M48
; DRILL file {KiCad 9.0.0} date 2025-03-28T03:05:10+0200
; FORMAT={-:-/ absolute / inch / decimal}
; #@! TF.CreationDate,2025-03-28T03:05:10+02:00
; #@! TF.GenerationSoftware,Kicad,Pcbnew,9.0.0
; #@! TF.FileFunction,Plated,1,2,PTH
FMAT,2
INCH
; #@! TA.AperFunction,Plated,PTH,ComponentDrill
T1C0.0079
; #@! TA.AperFunction,Plated,PTH,ComponentDrill
T2C0.0394
%
G90
G05
T1
X4.0816Y-4.3721
X4.0816Y-4.4312
X4.0816Y-4.4903
X4.1407Y-4.3721
X4.1407Y-4.4312
X4.1407Y-4.4903
T2
X4.1751Y-4.083
X4.1751Y-4.1617
X4.6141Y-2.8664
X4.6141Y-2.9664
X4.6141Y-3.0664
X4.6141Y-3.1664
X4.6141Y-3.2664
X4.6141Y-3.3664
X4.6141Y-3.4664
X4.6141Y-3.5664
X4.6141Y-3.6664
X4.6141Y-3.7664
X4.6141Y-3.8664
X4.6141Y-3.9664
X4.6141Y-4.0664
X4.6141Y-4.1664
X4.6141Y-4.2664
X4.6141Y-4.3664
X4.7141Y-2.8664
X4.7141Y-2.9664
X4.7141Y-3.0664
X4.7141Y-3.1664
X4.7141Y-3.2664
X4.7141Y-3.3664
X4.7141Y-3.4664
X4.7141Y-3.5664
X4.7141Y-3.6664
X4.7141Y-3.7664
X4.7141Y-3.8664
X4.7141Y-3.9664
X4.7141Y-4.0664
X4.7141Y-4.1664
X4.7141Y-4.2664
X4.7141Y-4.3664
M30
