%TF.GenerationSoftware,KiCad,Pcbnew,9.0.0*%
%TF.CreationDate,2025-03-28T07:13:48+02:00*%
%TF.ProjectId,PCB,5043422e-6b69-4636-9164-5f7063625858,rev?*%
%TF.SameCoordinates,Original*%
%TF.FileFunction,Copper,L2,Bot*%
%TF.FilePolarity,Positive*%
%FSLAX46Y46*%
G04 Gerber Fmt 4.6, Leading zero omitted, Abs format (unit mm)*
G04 Created by KiCad (PCBNEW 9.0.0) date 2025-03-28 07:13:48*
%MOMM*%
%LPD*%
G01*
G04 APERTURE LIST*
G04 Aperture macros list*
%AMRoundRect*
0 Rectangle with rounded corners*
0 $1 Rounding radius*
0 $2 $3 $4 $5 $6 $7 $8 $9 X,Y pos of 4 corners*
0 Add a 4 corners polygon primitive as box body*
4,1,4,$2,$3,$4,$5,$6,$7,$8,$9,$2,$3,0*
0 Add four circle primitives for the rounded corners*
1,1,$1+$1,$2,$3*
1,1,$1+$1,$4,$5*
1,1,$1+$1,$6,$7*
1,1,$1+$1,$8,$9*
0 Add four rect primitives between the rounded corners*
20,1,$1+$1,$2,$3,$4,$5,0*
20,1,$1+$1,$4,$5,$6,$7,0*
20,1,$1+$1,$6,$7,$8,$9,0*
20,1,$1+$1,$8,$9,$2,$3,0*%
G04 Aperture macros list end*
%TA.AperFunction,HeatsinkPad*%
%ADD10C,0.500000*%
%TD*%
%TA.AperFunction,HeatsinkPad*%
%ADD11R,2.000000X3.500000*%
%TD*%
%TA.AperFunction,ComponentPad*%
%ADD12C,2.500000*%
%TD*%
%TA.AperFunction,ComponentPad*%
%ADD13O,3.000000X1.600000*%
%TD*%
%TA.AperFunction,ComponentPad*%
%ADD14R,1.700000X1.700000*%
%TD*%
%TA.AperFunction,ComponentPad*%
%ADD15O,1.700000X1.700000*%
%TD*%
%TA.AperFunction,ComponentPad*%
%ADD16RoundRect,0.250000X-0.750000X-0.400000X0.750000X-0.400000X0.750000X0.400000X-0.750000X0.400000X0*%
%TD*%
%TA.AperFunction,ComponentPad*%
%ADD17O,2.000000X1.300000*%
%TD*%
G04 APERTURE END LIST*
D10*
%TO.P,U4,17,GND*%
%TO.N,GND*%
X207112500Y-100325000D03*
X207112500Y-101825000D03*
X207112500Y-103325000D03*
D11*
X207862500Y-101825000D03*
D10*
X208612500Y-100325000D03*
X208612500Y-101825000D03*
X208612500Y-103325000D03*
%TD*%
D12*
%TO.P,TP38,1,1*%
%TO.N,Load_Supply*%
X205337500Y-111970000D03*
%TD*%
%TO.P,TP37,1,1*%
%TO.N,Battery*%
X205337500Y-107420000D03*
%TD*%
D13*
%TO.P,SW1,1,C*%
%TO.N,Battery*%
X249619500Y-143352000D03*
%TO.P,SW1,2,B*%
%TO.N,Net-(J1-Pin_1)*%
X249619500Y-138652000D03*
%TO.P,SW1,3,A*%
%TO.N,Charger*%
X249619500Y-133952000D03*
%TD*%
D14*
%TO.P,J3,1,Pin_1*%
%TO.N,MOTOR2_B_OUT*%
X237960000Y-85180000D03*
D15*
%TO.P,J3,2,Pin_2*%
%TO.N,MOTOR2_A_OUT*%
X240500000Y-85180000D03*
%TO.P,J3,3,Pin_3*%
%TO.N,MOTOR4_A_OUT*%
X237960000Y-87720000D03*
%TO.P,J3,4,Pin_4*%
%TO.N,MOTOR2_CTRL1*%
X240500000Y-87720000D03*
%TO.P,J3,5,Pin_5*%
%TO.N,MOTOR4_B_OUT*%
X237960000Y-90260000D03*
%TO.P,J3,6,Pin_6*%
%TO.N,MOTOR2_CTRL2*%
X240500000Y-90260000D03*
%TO.P,J3,7,Pin_7*%
%TO.N,CTRL_EXT_LOAD2*%
X237960000Y-92800000D03*
%TO.P,J3,8,Pin_8*%
%TO.N,MOTOR4_CTRL1*%
X240500000Y-92800000D03*
%TO.P,J3,9,Pin_9*%
%TO.N,unconnected-(J3-Pin_9-Pad9)*%
X237960000Y-95340000D03*
%TO.P,J3,10,Pin_10*%
%TO.N,MOTOR4_CTRL2*%
X240500000Y-95340000D03*
%TO.P,J3,11,Pin_11*%
%TO.N,EXT_LOAD2_OUT*%
X237960000Y-97880000D03*
%TO.P,J3,12,Pin_12*%
%TO.N,unconnected-(J3-Pin_12-Pad12)*%
X240500000Y-97880000D03*
%TO.P,J3,13,Pin_13*%
%TO.N,FAST_CHARGE_CTRL*%
X237960000Y-100420000D03*
%TO.P,J3,14,Pin_14*%
%TO.N,Battery*%
X240500000Y-100420000D03*
%TO.P,J3,15,Pin_15*%
%TO.N,unconnected-(J3-Pin_15-Pad15)*%
X237960000Y-102960000D03*
%TO.P,J3,16,Pin_16*%
%TO.N,I2C1_SCL*%
X240500000Y-102960000D03*
%TO.P,J3,17,Pin_17*%
%TO.N,I2C1_SDA*%
X237960000Y-105500000D03*
%TO.P,J3,18,Pin_18*%
%TO.N,/3V3_Out*%
X240500000Y-105500000D03*
%TO.P,J3,19,Pin_19*%
%TO.N,GND*%
X237960000Y-108040000D03*
%TO.P,J3,20,Pin_20*%
%TO.N,/5V_Out*%
X240500000Y-108040000D03*
%TO.P,J3,21,Pin_21*%
%TO.N,EXT_LOAD1_OUT*%
X237960000Y-110580000D03*
%TO.P,J3,22,Pin_22*%
%TO.N,High_Voltage_(9V)*%
X240500000Y-110580000D03*
%TO.P,J3,23,Pin_23*%
%TO.N,GND*%
X237960000Y-113120000D03*
%TO.P,J3,24,Pin_24*%
%TO.N,MOTOR3_CTRL1*%
X240500000Y-113120000D03*
%TO.P,J3,25,Pin_25*%
%TO.N,CTRL_EXT_LOAD1*%
X237960000Y-115660000D03*
%TO.P,J3,26,Pin_26*%
%TO.N,MOTOR3_CTRL2*%
X240500000Y-115660000D03*
%TO.P,J3,27,Pin_27*%
%TO.N,MOTOR3_A_OUT*%
X237960000Y-118200000D03*
%TO.P,J3,28,Pin_28*%
%TO.N,MOTOR1_CTRL1*%
X240500000Y-118200000D03*
%TO.P,J3,29,Pin_29*%
%TO.N,MOTOR3_B_OUT*%
X237960000Y-120740000D03*
%TO.P,J3,30,Pin_30*%
%TO.N,MOTOR1_CTRL2*%
X240500000Y-120740000D03*
%TO.P,J3,31,Pin_31*%
%TO.N,MOTOR1_B_OUT*%
X237960000Y-123280000D03*
%TO.P,J3,32,Pin_32*%
%TO.N,MOTOR1_A_OUT*%
X240500000Y-123280000D03*
%TD*%
D16*
%TO.P,J1,1,Pin_1*%
%TO.N,Net-(J1-Pin_1)*%
X209487500Y-92980000D03*
D17*
%TO.P,J1,2,Pin_2*%
%TO.N,GND*%
X209487500Y-94980000D03*
%TD*%
M02*
