%TF.GenerationSoftware,KiCad,Pcbnew,9.0.0*%
%TF.CreationDate,2025-03-28T07:13:47+02:00*%
%TF.ProjectId,PCB,5043422e-6b69-4636-9164-5f7063625858,rev?*%
%TF.SameCoordinates,Original*%
%TF.FileFunction,Copper,L1,Top*%
%TF.FilePolarity,Positive*%
%FSLAX46Y46*%
G04 Gerber Fmt 4.6, Leading zero omitted, Abs format (unit mm)*
G04 Created by KiCad (PCBNEW 9.0.0) date 2025-03-28 07:13:47*
%MOMM*%
%LPD*%
G01*
G04 APERTURE LIST*
G04 Aperture macros list*
%AMRoundRect*
0 Rectangle with rounded corners*
0 $1 Rounding radius*
0 $2 $3 $4 $5 $6 $7 $8 $9 X,Y pos of 4 corners*
0 Add a 4 corners polygon primitive as box body*
4,1,4,$2,$3,$4,$5,$6,$7,$8,$9,$2,$3,0*
0 Add four circle primitives for the rounded corners*
1,1,$1+$1,$2,$3*
1,1,$1+$1,$4,$5*
1,1,$1+$1,$6,$7*
1,1,$1+$1,$8,$9*
0 Add four rect primitives between the rounded corners*
20,1,$1+$1,$2,$3,$4,$5,0*
20,1,$1+$1,$4,$5,$6,$7,0*
20,1,$1+$1,$6,$7,$8,$9,0*
20,1,$1+$1,$8,$9,$2,$3,0*%
%AMFreePoly0*
4,1,53,0.022600,0.297700,0.037100,0.294100,0.051100,0.288500,0.064300,0.281200,0.076500,0.272300,0.087400,0.262100,0.097100,0.250400,0.105200,0.237700,0.111500,0.224000,0.116400,0.209800,0.119200,0.195100,0.120200,0.179800,0.120200,-0.180100,0.119200,-0.195100,0.116400,-0.209800,0.111500,-0.224300,0.105200,-0.237800,0.097100,-0.250700,0.087400,-0.262100,0.076500,-0.272600,
0.064300,-0.281400,0.051100,-0.288600,0.037100,-0.294100,0.022600,-0.298000,0.007600,-0.299700,-0.007600,-0.299700,-0.022300,-0.298000,-0.037100,-0.294100,-0.051000,-0.288600,-0.064200,-0.281400,-0.076400,-0.272600,-0.087300,-0.262100,-0.097000,-0.250700,-0.105100,-0.237800,-0.111500,-0.224300,-0.116300,-0.209800,-0.119100,-0.195100,-0.119900,-0.180100,-0.119900,0.179800,-0.119100,0.195100,
-0.116300,0.209800,-0.111500,0.224000,-0.105100,0.237700,-0.097000,0.250400,-0.087300,0.262100,-0.076400,0.272300,-0.064200,0.281200,-0.051000,0.288500,-0.037100,0.294100,-0.022300,0.297700,-0.007600,0.299700,0.007600,0.299700,0.022600,0.297700,0.022600,0.297700,$1*%
%AMFreePoly1*
4,1,53,0.022300,0.297700,0.037000,0.294100,0.051000,0.288500,0.064200,0.281200,0.076400,0.272300,0.087300,0.262100,0.097000,0.250400,0.105100,0.237700,0.111500,0.224000,0.116000,0.209800,0.118800,0.195100,0.119800,0.179800,0.119800,-0.180100,0.118800,-0.195100,0.116000,-0.209800,0.111500,-0.224300,0.105100,-0.237800,0.097000,-0.250700,0.087300,-0.262100,0.076400,-0.272600,
0.064200,-0.281400,0.051000,-0.288600,0.037000,-0.294100,0.022300,-0.298000,0.007300,-0.299700,-0.007700,-0.299700,-0.022700,-0.298000,-0.037100,-0.294100,-0.051400,-0.288600,-0.064600,-0.281400,-0.076800,-0.272600,-0.087700,-0.262100,-0.097300,-0.250700,-0.105200,-0.237800,-0.111800,-0.224300,-0.116400,-0.209800,-0.119200,-0.195100,-0.120200,-0.180100,-0.120200,0.179800,-0.119200,0.195100,
-0.116400,0.209800,-0.111800,0.224000,-0.105200,0.237700,-0.097300,0.250400,-0.087700,0.262100,-0.076800,0.272300,-0.064600,0.281200,-0.051400,0.288500,-0.037100,0.294100,-0.022700,0.297700,-0.007700,0.299700,0.007300,0.299700,0.022300,0.297700,0.022300,0.297700,$1*%
%AMFreePoly2*
4,1,53,0.022600,0.297700,0.037100,0.294100,0.051100,0.288500,0.064300,0.281200,0.076500,0.272300,0.087400,0.262100,0.097100,0.250400,0.105200,0.237700,0.111500,0.224000,0.116400,0.209800,0.119200,0.195100,0.120200,0.179800,0.120200,-0.180100,0.119200,-0.195100,0.116400,-0.209800,0.111500,-0.224300,0.105200,-0.237800,0.097100,-0.250700,0.087400,-0.262100,0.076500,-0.272600,
0.064300,-0.281400,0.051100,-0.288600,0.037100,-0.294100,0.022600,-0.298000,0.007600,-0.299700,-0.007600,-0.299700,-0.022300,-0.298000,-0.037100,-0.294100,-0.051000,-0.288600,-0.064200,-0.281400,-0.076400,-0.272600,-0.087400,-0.262100,-0.097000,-0.250700,-0.105100,-0.237800,-0.111500,-0.224300,-0.116300,-0.209800,-0.119100,-0.195100,-0.119900,-0.180100,-0.119900,0.179800,-0.119100,0.195100,
-0.116300,0.209800,-0.111500,0.224000,-0.105100,0.237700,-0.097000,0.250400,-0.087400,0.262100,-0.076400,0.272300,-0.064200,0.281200,-0.051000,0.288500,-0.037100,0.294100,-0.022300,0.297700,-0.007600,0.299700,0.007600,0.299700,0.022600,0.297700,0.022600,0.297700,$1*%
%AMFreePoly3*
4,1,53,0.022600,0.297700,0.037100,0.294100,0.051100,0.288500,0.064300,0.281200,0.076500,0.272300,0.087400,0.262100,0.097100,0.250400,0.105200,0.237700,0.111500,0.224000,0.116400,0.209800,0.119100,0.195100,0.120200,0.179800,0.120200,-0.180100,0.119100,-0.195100,0.116400,-0.209800,0.111500,-0.224300,0.105200,-0.237800,0.097100,-0.250700,0.087400,-0.262100,0.076500,-0.272600,
0.064300,-0.281400,0.051100,-0.288600,0.037100,-0.294100,0.022600,-0.298000,0.007600,-0.299700,-0.007600,-0.299700,-0.022300,-0.298000,-0.037100,-0.294100,-0.051000,-0.288600,-0.064200,-0.281400,-0.076400,-0.272600,-0.087400,-0.262100,-0.097000,-0.250700,-0.105100,-0.237800,-0.111500,-0.224300,-0.116300,-0.209800,-0.119100,-0.195100,-0.119900,-0.180100,-0.119900,0.179800,-0.119100,0.195100,
-0.116300,0.209800,-0.111500,0.224000,-0.105100,0.237700,-0.097000,0.250400,-0.087400,0.262100,-0.076400,0.272300,-0.064200,0.281200,-0.051000,0.288500,-0.037100,0.294100,-0.022300,0.297700,-0.007600,0.299700,0.007600,0.299700,0.022600,0.297700,0.022600,0.297700,$1*%
%AMFreePoly4*
4,1,53,0.022600,0.298000,0.037100,0.294200,0.051100,0.288800,0.064300,0.281500,0.076500,0.272600,0.087400,0.262200,0.097100,0.250700,0.105200,0.238000,0.111500,0.224300,0.116400,0.210100,0.119100,0.195100,0.120200,0.180100,0.120200,-0.179800,0.119100,-0.195000,0.116400,-0.209800,0.111500,-0.224000,0.105200,-0.237700,0.097100,-0.250400,0.087400,-0.262100,0.076500,-0.272300,
0.064300,-0.281100,0.051100,-0.288500,0.037100,-0.294100,0.022600,-0.297700,0.007600,-0.299700,-0.007600,-0.299700,-0.022300,-0.297700,-0.037100,-0.294100,-0.051000,-0.288500,-0.064200,-0.281100,-0.076400,-0.272300,-0.087400,-0.262100,-0.097000,-0.250400,-0.105100,-0.237700,-0.111500,-0.224000,-0.116300,-0.209800,-0.119100,-0.195000,-0.119900,-0.179800,-0.119900,0.180100,-0.119100,0.195100,
-0.116300,0.210100,-0.111500,0.224300,-0.105100,0.238000,-0.097000,0.250700,-0.087400,0.262200,-0.076400,0.272600,-0.064200,0.281500,-0.051000,0.288800,-0.037100,0.294200,-0.022300,0.298000,-0.007600,0.300000,0.007600,0.300000,0.022600,0.298000,0.022600,0.298000,$1*%
%AMFreePoly5*
4,1,53,0.022300,0.298000,0.037000,0.294200,0.051000,0.288800,0.064200,0.281500,0.076400,0.272600,0.087300,0.262200,0.097000,0.250700,0.105100,0.238000,0.111500,0.224300,0.116000,0.210100,0.118800,0.195100,0.119800,0.180100,0.119800,-0.179800,0.118800,-0.195000,0.116000,-0.209800,0.111500,-0.224000,0.105100,-0.237700,0.097000,-0.250400,0.087300,-0.262100,0.076400,-0.272300,
0.064200,-0.281100,0.051000,-0.288500,0.037000,-0.294100,0.022300,-0.297700,0.007300,-0.299700,-0.007700,-0.299700,-0.022700,-0.297700,-0.037100,-0.294100,-0.051400,-0.288500,-0.064600,-0.281100,-0.076800,-0.272300,-0.087700,-0.262100,-0.097300,-0.250400,-0.105200,-0.237700,-0.111800,-0.224000,-0.116400,-0.209800,-0.119200,-0.195000,-0.120200,-0.179800,-0.120200,0.180100,-0.119200,0.195100,
-0.116400,0.210100,-0.111800,0.224300,-0.105200,0.238000,-0.097300,0.250700,-0.087700,0.262200,-0.076800,0.272600,-0.064600,0.281500,-0.051400,0.288800,-0.037100,0.294200,-0.022700,0.298000,-0.007700,0.300000,0.007300,0.300000,0.022300,0.298000,0.022300,0.298000,$1*%
%AMFreePoly6*
4,1,53,0.022600,0.298000,0.037100,0.294200,0.051100,0.288800,0.064300,0.281500,0.076500,0.272600,0.087400,0.262200,0.097100,0.250700,0.105200,0.238000,0.111500,0.224300,0.116400,0.210100,0.119200,0.195100,0.120200,0.180100,0.120200,-0.179800,0.119200,-0.195000,0.116400,-0.209800,0.111500,-0.224000,0.105200,-0.237700,0.097100,-0.250400,0.087400,-0.262100,0.076500,-0.272300,
0.064300,-0.281100,0.051100,-0.288500,0.037100,-0.294100,0.022600,-0.297700,0.007600,-0.299700,-0.007600,-0.299700,-0.022300,-0.297700,-0.037100,-0.294100,-0.051000,-0.288500,-0.064200,-0.281100,-0.076400,-0.272300,-0.087400,-0.262100,-0.097000,-0.250400,-0.105100,-0.237700,-0.111500,-0.224000,-0.116300,-0.209800,-0.119100,-0.195000,-0.119900,-0.179800,-0.119900,0.180100,-0.119100,0.195100,
-0.116300,0.210100,-0.111500,0.224300,-0.105100,0.238000,-0.097000,0.250700,-0.087400,0.262200,-0.076400,0.272600,-0.064200,0.281500,-0.051000,0.288800,-0.037100,0.294200,-0.022300,0.298000,-0.007600,0.300000,0.007600,0.300000,0.022600,0.298000,0.022600,0.298000,$1*%
%AMFreePoly7*
4,1,53,0.022600,0.298000,0.037100,0.294200,0.051100,0.288800,0.064300,0.281500,0.076500,0.272600,0.087400,0.262200,0.097100,0.250700,0.105200,0.238000,0.111500,0.224300,0.116400,0.210100,0.119200,0.195100,0.120200,0.180100,0.120200,-0.179800,0.119200,-0.195000,0.116400,-0.209800,0.111500,-0.224000,0.105200,-0.237700,0.097100,-0.250400,0.087400,-0.262100,0.076500,-0.272300,
0.064300,-0.281100,0.051100,-0.288500,0.037100,-0.294100,0.022600,-0.297700,0.007600,-0.299700,-0.007600,-0.299700,-0.022300,-0.297700,-0.037100,-0.294100,-0.051000,-0.288500,-0.064200,-0.281100,-0.076400,-0.272300,-0.087300,-0.262100,-0.097000,-0.250400,-0.105100,-0.237700,-0.111500,-0.224000,-0.116300,-0.209800,-0.119100,-0.195000,-0.119900,-0.179800,-0.119900,0.180100,-0.119100,0.195100,
-0.116300,0.210100,-0.111500,0.224300,-0.105100,0.238000,-0.097000,0.250700,-0.087300,0.262200,-0.076400,0.272600,-0.064200,0.281500,-0.051000,0.288800,-0.037100,0.294200,-0.022300,0.298000,-0.007600,0.300000,0.007600,0.300000,0.022600,0.298000,0.022600,0.298000,$1*%
%AMFreePoly8*
4,1,57,0.700500,0.224500,0.707100,0.223200,0.713700,0.221200,0.719800,0.218400,0.725700,0.214900,0.731000,0.210800,0.735800,0.206000,0.739900,0.200600,0.743400,0.194800,0.746200,0.188700,0.748300,0.182100,0.749500,0.175500,0.749800,0.168600,0.749800,-0.168900,0.749500,-0.175500,0.748300,-0.182400,0.746200,-0.188700,0.743400,-0.195100,0.739900,-0.200700,0.735800,-0.206300,
0.731000,-0.210800,0.725700,-0.215200,0.719800,-0.218700,0.713700,-0.221500,0.707100,-0.223500,0.700500,-0.224800,0.693700,-0.225100,-0.693900,-0.225100,-0.700600,-0.224800,-0.707400,-0.223500,-0.713800,-0.221500,-0.720100,-0.218700,-0.725700,-0.215200,-0.731000,-0.210800,-0.735900,-0.206300,-0.740200,-0.200700,-0.743700,-0.195100,-0.746500,-0.188700,-0.748600,-0.182400,-0.749600,-0.175500,
-0.750100,-0.168900,-0.750100,0.168600,-0.749600,0.175500,-0.748600,0.182100,-0.746500,0.188700,-0.743700,0.194800,-0.740200,0.200600,-0.735900,0.206000,-0.731000,0.210800,-0.725700,0.214900,-0.720100,0.218400,-0.713800,0.221200,-0.707400,0.223200,-0.700600,0.224500,-0.693900,0.225000,0.693700,0.225000,0.700500,0.224500,0.700500,0.224500,$1*%
%AMFreePoly9*
4,1,57,0.700500,0.224500,0.707100,0.223300,0.713700,0.221200,0.719800,0.218400,0.725700,0.214900,0.731000,0.210800,0.735800,0.206000,0.739900,0.200700,0.743400,0.194800,0.746200,0.188700,0.748300,0.182100,0.749500,0.175500,0.749800,0.168600,0.749800,-0.168900,0.749500,-0.175500,0.748300,-0.182400,0.746200,-0.188700,0.743400,-0.195100,0.739900,-0.200900,0.735800,-0.206300,
0.731000,-0.211100,0.725700,-0.215100,0.719800,-0.218700,0.713700,-0.221500,0.707100,-0.223500,0.700500,-0.224800,0.693700,-0.225100,-0.693900,-0.225100,-0.700600,-0.224800,-0.707400,-0.223500,-0.713800,-0.221500,-0.720100,-0.218700,-0.725700,-0.215100,-0.731000,-0.211100,-0.735900,-0.206300,-0.740200,-0.200900,-0.743700,-0.195100,-0.746500,-0.188700,-0.748600,-0.182400,-0.749600,-0.175500,
-0.750100,-0.168900,-0.750100,0.168600,-0.749600,0.175500,-0.748600,0.182100,-0.746500,0.188700,-0.743700,0.194800,-0.740200,0.200700,-0.735900,0.206000,-0.731000,0.210800,-0.725700,0.214900,-0.720100,0.218400,-0.713800,0.221200,-0.707400,0.223300,-0.700600,0.224500,-0.693900,0.224800,0.693700,0.224800,0.700500,0.224500,0.700500,0.224500,$1*%
%AMFreePoly10*
4,1,57,0.700500,0.224500,0.707100,0.223300,0.713700,0.221200,0.719800,0.218400,0.725700,0.214900,0.731000,0.210800,0.735800,0.206000,0.739900,0.200700,0.743400,0.194800,0.746200,0.188500,0.748300,0.182100,0.749500,0.175500,0.749800,0.168700,0.749800,-0.168900,0.749500,-0.175500,0.748300,-0.182400,0.746200,-0.188700,0.743400,-0.195100,0.739900,-0.200900,0.735800,-0.206200,
0.731000,-0.211100,0.725700,-0.215100,0.719800,-0.218700,0.713700,-0.221500,0.707100,-0.223500,0.700500,-0.224800,0.693700,-0.225000,-0.693900,-0.225000,-0.700600,-0.224800,-0.707400,-0.223500,-0.713800,-0.221500,-0.720100,-0.218700,-0.725700,-0.215100,-0.731000,-0.211100,-0.735900,-0.206200,-0.740200,-0.200900,-0.743700,-0.195100,-0.746500,-0.188700,-0.748600,-0.182400,-0.749600,-0.175500,
-0.750100,-0.168900,-0.750100,0.168700,-0.749600,0.175500,-0.748600,0.182100,-0.746500,0.188500,-0.743700,0.194800,-0.740200,0.200700,-0.735900,0.206000,-0.731000,0.210800,-0.725700,0.214900,-0.720100,0.218400,-0.713800,0.221200,-0.707400,0.223300,-0.700600,0.224500,-0.693900,0.224800,0.693700,0.224800,0.700500,0.224500,0.700500,0.224500,$1*%
%AMFreePoly11*
4,1,57,0.700500,0.224600,0.707100,0.223300,0.713700,0.221300,0.719800,0.218500,0.725700,0.214900,0.731000,0.210800,0.735800,0.206000,0.739900,0.200700,0.743400,0.194800,0.746200,0.188500,0.748300,0.182100,0.749500,0.175500,0.749800,0.168700,0.749800,-0.168900,0.749500,-0.175700,0.748300,-0.182400,0.746200,-0.188700,0.743400,-0.195100,0.739900,-0.200900,0.735800,-0.206200,
0.731000,-0.211100,0.725700,-0.215100,0.719800,-0.218700,0.713700,-0.221500,0.707100,-0.223500,0.700500,-0.224800,0.693700,-0.225000,-0.693900,-0.225000,-0.700600,-0.224800,-0.707400,-0.223500,-0.713800,-0.221500,-0.720100,-0.218700,-0.725700,-0.215100,-0.731000,-0.211100,-0.735900,-0.206200,-0.740200,-0.200900,-0.743700,-0.195100,-0.746500,-0.188700,-0.748600,-0.182400,-0.749600,-0.175700,
-0.750100,-0.168900,-0.750100,0.168700,-0.749600,0.175500,-0.748600,0.182100,-0.746500,0.188500,-0.743700,0.194800,-0.740200,0.200700,-0.735900,0.206000,-0.731000,0.210800,-0.725700,0.214900,-0.720100,0.218500,-0.713800,0.221300,-0.707400,0.223300,-0.700600,0.224600,-0.693900,0.224800,0.693700,0.224800,0.700500,0.224600,0.700500,0.224600,$1*%
%AMFreePoly12*
4,1,57,0.700500,0.224800,0.707100,0.223500,0.713700,0.221500,0.719800,0.218700,0.725700,0.215100,0.731000,0.211100,0.735800,0.206200,0.739900,0.200900,0.743400,0.195100,0.746200,0.188700,0.748300,0.182400,0.749500,0.175700,0.749800,0.168900,0.749800,-0.168700,0.749500,-0.175500,0.748300,-0.182100,0.746200,-0.188500,0.743400,-0.194800,0.739900,-0.200700,0.735800,-0.206000,
0.731000,-0.210800,0.725700,-0.214900,0.719800,-0.218500,0.713700,-0.221300,0.707100,-0.223300,0.700500,-0.224600,0.693700,-0.224800,-0.693900,-0.224800,-0.700600,-0.224600,-0.707400,-0.223300,-0.713800,-0.221300,-0.720100,-0.218500,-0.725700,-0.214900,-0.731000,-0.210800,-0.735900,-0.206000,-0.740200,-0.200700,-0.743700,-0.194800,-0.746500,-0.188500,-0.748600,-0.182100,-0.749600,-0.175500,
-0.750100,-0.168700,-0.750100,0.168900,-0.749600,0.175700,-0.748600,0.182400,-0.746500,0.188700,-0.743700,0.195100,-0.740200,0.200900,-0.735900,0.206200,-0.731000,0.211100,-0.725700,0.215100,-0.720100,0.218700,-0.713800,0.221500,-0.707400,0.223500,-0.700600,0.224800,-0.693900,0.225000,0.693700,0.225000,0.700500,0.224800,0.700500,0.224800,$1*%
%AMFreePoly13*
4,1,57,0.700500,0.224800,0.707100,0.223500,0.713700,0.221500,0.719800,0.218700,0.725700,0.215100,0.731000,0.211100,0.735800,0.206200,0.739900,0.200900,0.743400,0.195100,0.746200,0.188700,0.748300,0.182400,0.749500,0.175500,0.749800,0.168900,0.749800,-0.168700,0.749500,-0.175500,0.748300,-0.182100,0.746200,-0.188500,0.743400,-0.194800,0.739900,-0.200700,0.735800,-0.206000,
0.731000,-0.210800,0.725700,-0.214900,0.719800,-0.218400,0.713700,-0.221200,0.707100,-0.223300,0.700500,-0.224500,0.693700,-0.224800,-0.693900,-0.224800,-0.700600,-0.224500,-0.707400,-0.223300,-0.713800,-0.221200,-0.720100,-0.218400,-0.725700,-0.214900,-0.731000,-0.210800,-0.735900,-0.206000,-0.740200,-0.200700,-0.743700,-0.194800,-0.746500,-0.188500,-0.748600,-0.182100,-0.749600,-0.175500,
-0.750100,-0.168700,-0.750100,0.168900,-0.749600,0.175500,-0.748600,0.182400,-0.746500,0.188700,-0.743700,0.195100,-0.740200,0.200900,-0.735900,0.206200,-0.731000,0.211100,-0.725700,0.215100,-0.720100,0.218700,-0.713800,0.221500,-0.707400,0.223500,-0.700600,0.224800,-0.693900,0.225000,0.693700,0.225000,0.700500,0.224800,0.700500,0.224800,$1*%
%AMFreePoly14*
4,1,57,0.700500,0.224800,0.707100,0.223500,0.713700,0.221500,0.719800,0.218700,0.725700,0.215100,0.731000,0.211100,0.735800,0.206300,0.739900,0.200900,0.743400,0.195100,0.746200,0.188700,0.748300,0.182400,0.749500,0.175500,0.749800,0.168900,0.749800,-0.168600,0.749500,-0.175500,0.748300,-0.182100,0.746200,-0.188700,0.743400,-0.194800,0.739900,-0.200700,0.735800,-0.206000,
0.731000,-0.210800,0.725700,-0.214900,0.719800,-0.218400,0.713700,-0.221200,0.707100,-0.223300,0.700500,-0.224500,0.693700,-0.224800,-0.693900,-0.224800,-0.700600,-0.224500,-0.707400,-0.223300,-0.713800,-0.221200,-0.720100,-0.218400,-0.725700,-0.214900,-0.731000,-0.210800,-0.735900,-0.206000,-0.740200,-0.200700,-0.743700,-0.194800,-0.746500,-0.188700,-0.748600,-0.182100,-0.749600,-0.175500,
-0.750100,-0.168600,-0.750100,0.168900,-0.749600,0.175500,-0.748600,0.182400,-0.746500,0.188700,-0.743700,0.195100,-0.740200,0.200900,-0.735900,0.206300,-0.731000,0.211100,-0.725700,0.215100,-0.720100,0.218700,-0.713800,0.221500,-0.707400,0.223500,-0.700600,0.224800,-0.693900,0.225100,0.693700,0.225100,0.700500,0.224800,0.700500,0.224800,$1*%
%AMFreePoly15*
4,1,57,0.700500,0.224800,0.707100,0.223500,0.713700,0.221500,0.719800,0.218700,0.725700,0.215200,0.731000,0.210800,0.735800,0.206300,0.739900,0.200700,0.743400,0.195100,0.746200,0.188700,0.748300,0.182400,0.749500,0.175500,0.749800,0.168900,0.749800,-0.168600,0.749500,-0.175500,0.748300,-0.182100,0.746200,-0.188700,0.743400,-0.194800,0.739900,-0.200600,0.735800,-0.206000,
0.731000,-0.210800,0.725700,-0.214900,0.719800,-0.218400,0.713700,-0.221200,0.707100,-0.223200,0.700500,-0.224500,0.693700,-0.225000,-0.693900,-0.225000,-0.700600,-0.224500,-0.707400,-0.223200,-0.713800,-0.221200,-0.720100,-0.218400,-0.725700,-0.214900,-0.731000,-0.210800,-0.735900,-0.206000,-0.740200,-0.200600,-0.743700,-0.194800,-0.746500,-0.188700,-0.748600,-0.182100,-0.749600,-0.175500,
-0.750100,-0.168600,-0.750100,0.168900,-0.749600,0.175500,-0.748600,0.182400,-0.746500,0.188700,-0.743700,0.195100,-0.740200,0.200700,-0.735900,0.206300,-0.731000,0.210800,-0.725700,0.215200,-0.720100,0.218700,-0.713800,0.221500,-0.707400,0.223500,-0.700600,0.224800,-0.693900,0.225100,0.693700,0.225100,0.700500,0.224800,0.700500,0.224800,$1*%
%AMFreePoly16*
4,1,57,0.700600,0.224800,0.707400,0.223500,0.713800,0.221500,0.720100,0.218700,0.725700,0.215200,0.731000,0.210800,0.735900,0.206300,0.740200,0.200700,0.743700,0.195100,0.746500,0.188700,0.748600,0.182400,0.749600,0.175500,0.750100,0.168900,0.750100,-0.168600,0.749600,-0.175500,0.748600,-0.182100,0.746500,-0.188700,0.743700,-0.194800,0.740200,-0.200600,0.735900,-0.206000,
0.731000,-0.210800,0.725700,-0.214900,0.720100,-0.218400,0.713800,-0.221200,0.707400,-0.223200,0.700600,-0.224500,0.693900,-0.225000,-0.693700,-0.225000,-0.700500,-0.224500,-0.707100,-0.223200,-0.713700,-0.221200,-0.719800,-0.218400,-0.725700,-0.214900,-0.731000,-0.210800,-0.735800,-0.206000,-0.739900,-0.200600,-0.743400,-0.194800,-0.746200,-0.188700,-0.748300,-0.182100,-0.749500,-0.175500,
-0.749800,-0.168600,-0.749800,0.168900,-0.749500,0.175500,-0.748300,0.182400,-0.746200,0.188700,-0.743400,0.195100,-0.739900,0.200700,-0.735800,0.206300,-0.731000,0.210800,-0.725700,0.215200,-0.719800,0.218700,-0.713700,0.221500,-0.707100,0.223500,-0.700500,0.224800,-0.693700,0.225100,0.693900,0.225100,0.700600,0.224800,0.700600,0.224800,$1*%
%AMFreePoly17*
4,1,57,0.700600,0.224800,0.707400,0.223500,0.713800,0.221500,0.720100,0.218700,0.725700,0.215100,0.731000,0.211100,0.735900,0.206300,0.740200,0.200900,0.743700,0.195100,0.746500,0.188700,0.748600,0.182400,0.749600,0.175500,0.750100,0.168900,0.750100,-0.168600,0.749600,-0.175500,0.748600,-0.182100,0.746500,-0.188700,0.743700,-0.194800,0.740200,-0.200700,0.735900,-0.206000,
0.731000,-0.210800,0.725700,-0.214900,0.720100,-0.218400,0.713800,-0.221200,0.707400,-0.223300,0.700600,-0.224500,0.693900,-0.224800,-0.693700,-0.224800,-0.700500,-0.224500,-0.707100,-0.223300,-0.713700,-0.221200,-0.719800,-0.218400,-0.725700,-0.214900,-0.731000,-0.210800,-0.735800,-0.206000,-0.739900,-0.200700,-0.743400,-0.194800,-0.746200,-0.188700,-0.748300,-0.182100,-0.749500,-0.175500,
-0.749800,-0.168600,-0.749800,0.168900,-0.749500,0.175500,-0.748300,0.182400,-0.746200,0.188700,-0.743400,0.195100,-0.739900,0.200900,-0.735800,0.206300,-0.731000,0.211100,-0.725700,0.215100,-0.719800,0.218700,-0.713700,0.221500,-0.707100,0.223500,-0.700500,0.224800,-0.693700,0.225100,0.693900,0.225100,0.700600,0.224800,0.700600,0.224800,$1*%
%AMFreePoly18*
4,1,57,0.700600,0.224800,0.707400,0.223500,0.713800,0.221500,0.720100,0.218700,0.725700,0.215100,0.731000,0.211100,0.735900,0.206200,0.740200,0.200900,0.743700,0.195100,0.746500,0.188700,0.748600,0.182400,0.749600,0.175500,0.750100,0.168900,0.750100,-0.168700,0.749600,-0.175500,0.748600,-0.182100,0.746500,-0.188500,0.743700,-0.194800,0.740200,-0.200700,0.735900,-0.206000,
0.731000,-0.210800,0.725700,-0.214900,0.720100,-0.218400,0.713800,-0.221200,0.707400,-0.223300,0.700600,-0.224500,0.693900,-0.224800,-0.693700,-0.224800,-0.700500,-0.224500,-0.707100,-0.223300,-0.713700,-0.221200,-0.719800,-0.218400,-0.725700,-0.214900,-0.731000,-0.210800,-0.735800,-0.206000,-0.739900,-0.200700,-0.743400,-0.194800,-0.746200,-0.188500,-0.748300,-0.182100,-0.749500,-0.175500,
-0.749800,-0.168700,-0.749800,0.168900,-0.749500,0.175500,-0.748300,0.182400,-0.746200,0.188700,-0.743400,0.195100,-0.739900,0.200900,-0.735800,0.206200,-0.731000,0.211100,-0.725700,0.215100,-0.719800,0.218700,-0.713700,0.221500,-0.707100,0.223500,-0.700500,0.224800,-0.693700,0.225000,0.693900,0.225000,0.700600,0.224800,0.700600,0.224800,$1*%
%AMFreePoly19*
4,1,57,0.700600,0.224800,0.707400,0.223500,0.713800,0.221500,0.720100,0.218700,0.725700,0.215100,0.731000,0.211100,0.735900,0.206200,0.740200,0.200900,0.743700,0.195100,0.746500,0.188700,0.748600,0.182400,0.749600,0.175700,0.750100,0.168900,0.750100,-0.168700,0.749600,-0.175500,0.748600,-0.182100,0.746500,-0.188500,0.743700,-0.194800,0.740200,-0.200700,0.735900,-0.206000,
0.731000,-0.210800,0.725700,-0.214900,0.720100,-0.218500,0.713800,-0.221300,0.707400,-0.223300,0.700600,-0.224600,0.693900,-0.224800,-0.693700,-0.224800,-0.700500,-0.224600,-0.707100,-0.223300,-0.713700,-0.221300,-0.719800,-0.218500,-0.725700,-0.214900,-0.731000,-0.210800,-0.735800,-0.206000,-0.739900,-0.200700,-0.743400,-0.194800,-0.746200,-0.188500,-0.748300,-0.182100,-0.749500,-0.175500,
-0.749800,-0.168700,-0.749800,0.168900,-0.749500,0.175700,-0.748300,0.182400,-0.746200,0.188700,-0.743400,0.195100,-0.739900,0.200900,-0.735800,0.206200,-0.731000,0.211100,-0.725700,0.215100,-0.719800,0.218700,-0.713700,0.221500,-0.707100,0.223500,-0.700500,0.224800,-0.693700,0.225000,0.693900,0.225000,0.700600,0.224800,0.700600,0.224800,$1*%
%AMFreePoly20*
4,1,57,0.700600,0.224600,0.707400,0.223300,0.713800,0.221300,0.720100,0.218500,0.725700,0.214900,0.731000,0.210800,0.735900,0.206000,0.740200,0.200700,0.743700,0.194800,0.746500,0.188500,0.748600,0.182100,0.749600,0.175500,0.750100,0.168700,0.750100,-0.168900,0.749600,-0.175700,0.748600,-0.182400,0.746500,-0.188700,0.743700,-0.195100,0.740200,-0.200900,0.735900,-0.206200,
0.731000,-0.211100,0.725700,-0.215100,0.720100,-0.218700,0.713800,-0.221500,0.707400,-0.223500,0.700600,-0.224800,0.693900,-0.225000,-0.693700,-0.225000,-0.700500,-0.224800,-0.707100,-0.223500,-0.713700,-0.221500,-0.719800,-0.218700,-0.725700,-0.215100,-0.731000,-0.211100,-0.735800,-0.206200,-0.739900,-0.200900,-0.743400,-0.195100,-0.746200,-0.188700,-0.748300,-0.182400,-0.749500,-0.175700,
-0.749800,-0.168900,-0.749800,0.168700,-0.749500,0.175500,-0.748300,0.182100,-0.746200,0.188500,-0.743400,0.194800,-0.739900,0.200700,-0.735800,0.206000,-0.731000,0.210800,-0.725700,0.214900,-0.719800,0.218500,-0.713700,0.221300,-0.707100,0.223300,-0.700500,0.224600,-0.693700,0.224800,0.693900,0.224800,0.700600,0.224600,0.700600,0.224600,$1*%
%AMFreePoly21*
4,1,57,0.700600,0.224500,0.707400,0.223300,0.713800,0.221200,0.720100,0.218400,0.725700,0.214900,0.731000,0.210800,0.735900,0.206000,0.740200,0.200700,0.743700,0.194800,0.746500,0.188500,0.748600,0.182100,0.749600,0.175500,0.750100,0.168700,0.750100,-0.168900,0.749600,-0.175500,0.748600,-0.182400,0.746500,-0.188700,0.743700,-0.195100,0.740200,-0.200900,0.735900,-0.206200,
0.731000,-0.211100,0.725700,-0.215100,0.720100,-0.218700,0.713800,-0.221500,0.707400,-0.223500,0.700600,-0.224800,0.693900,-0.225000,-0.693700,-0.225000,-0.700500,-0.224800,-0.707100,-0.223500,-0.713700,-0.221500,-0.719800,-0.218700,-0.725700,-0.215100,-0.731000,-0.211100,-0.735800,-0.206200,-0.739900,-0.200900,-0.743400,-0.195100,-0.746200,-0.188700,-0.748300,-0.182400,-0.749500,-0.175500,
-0.749800,-0.168900,-0.749800,0.168700,-0.749500,0.175500,-0.748300,0.182100,-0.746200,0.188500,-0.743400,0.194800,-0.739900,0.200700,-0.735800,0.206000,-0.731000,0.210800,-0.725700,0.214900,-0.719800,0.218400,-0.713700,0.221200,-0.707100,0.223300,-0.700500,0.224500,-0.693700,0.224800,0.693900,0.224800,0.700600,0.224500,0.700600,0.224500,$1*%
%AMFreePoly22*
4,1,57,0.700600,0.224500,0.707400,0.223300,0.713800,0.221200,0.720100,0.218400,0.725700,0.214900,0.731000,0.210800,0.735900,0.206000,0.740200,0.200700,0.743700,0.194800,0.746500,0.188700,0.748600,0.182100,0.749600,0.175500,0.750100,0.168600,0.750100,-0.168900,0.749600,-0.175500,0.748600,-0.182400,0.746500,-0.188700,0.743700,-0.195100,0.740200,-0.200900,0.735900,-0.206300,
0.731000,-0.211100,0.725700,-0.215100,0.720100,-0.218700,0.713800,-0.221500,0.707400,-0.223500,0.700600,-0.224800,0.693900,-0.225100,-0.693700,-0.225100,-0.700500,-0.224800,-0.707100,-0.223500,-0.713700,-0.221500,-0.719800,-0.218700,-0.725700,-0.215100,-0.731000,-0.211100,-0.735800,-0.206300,-0.739900,-0.200900,-0.743400,-0.195100,-0.746200,-0.188700,-0.748300,-0.182400,-0.749500,-0.175500,
-0.749800,-0.168900,-0.749800,0.168600,-0.749500,0.175500,-0.748300,0.182100,-0.746200,0.188700,-0.743400,0.194800,-0.739900,0.200700,-0.735800,0.206000,-0.731000,0.210800,-0.725700,0.214900,-0.719800,0.218400,-0.713700,0.221200,-0.707100,0.223300,-0.700500,0.224500,-0.693700,0.224800,0.693900,0.224800,0.700600,0.224500,0.700600,0.224500,$1*%
%AMFreePoly23*
4,1,57,0.700600,0.224500,0.707400,0.223200,0.713800,0.221200,0.720100,0.218400,0.725700,0.214900,0.731000,0.210800,0.735900,0.206000,0.740200,0.200600,0.743700,0.194800,0.746500,0.188700,0.748600,0.182100,0.749600,0.175500,0.750100,0.168600,0.750100,-0.168900,0.749600,-0.175500,0.748600,-0.182400,0.746500,-0.188700,0.743700,-0.195100,0.740200,-0.200700,0.735900,-0.206300,
0.731000,-0.210800,0.725700,-0.215200,0.720100,-0.218700,0.713800,-0.221500,0.707400,-0.223500,0.700600,-0.224800,0.693900,-0.225100,-0.693700,-0.225100,-0.700500,-0.224800,-0.707100,-0.223500,-0.713700,-0.221500,-0.719800,-0.218700,-0.725700,-0.215200,-0.731000,-0.210800,-0.735800,-0.206300,-0.739900,-0.200700,-0.743400,-0.195100,-0.746200,-0.188700,-0.748300,-0.182400,-0.749500,-0.175500,
-0.749800,-0.168900,-0.749800,0.168600,-0.749500,0.175500,-0.748300,0.182100,-0.746200,0.188700,-0.743400,0.194800,-0.739900,0.200600,-0.735800,0.206000,-0.731000,0.210800,-0.725700,0.214900,-0.719800,0.218400,-0.713700,0.221200,-0.707100,0.223200,-0.700500,0.224500,-0.693700,0.225000,0.693900,0.225000,0.700600,0.224500,0.700600,0.224500,$1*%
%AMFreePoly24*
4,1,5,1.700000,-2.499900,-1.700000,-2.499900,-1.700000,2.499900,1.700000,2.499900,1.700000,-2.499900,1.700000,-2.499900,$1*%
G04 Aperture macros list end*
%TA.AperFunction,NonConductor*%
%ADD10C,0.200000*%
%TD*%
%TA.AperFunction,Conductor*%
%ADD11C,0.200000*%
%TD*%
%TA.AperFunction,SMDPad,CuDef*%
%ADD12RoundRect,0.250001X-0.462499X-0.849999X0.462499X-0.849999X0.462499X0.849999X-0.462499X0.849999X0*%
%TD*%
%TA.AperFunction,SMDPad,CuDef*%
%ADD13R,0.775000X0.199900*%
%TD*%
%TA.AperFunction,SMDPad,CuDef*%
%ADD14R,2.849900X1.579900*%
%TD*%
%TA.AperFunction,SMDPad,CuDef*%
%ADD15FreePoly0,0.000000*%
%TD*%
%TA.AperFunction,SMDPad,CuDef*%
%ADD16FreePoly1,0.000000*%
%TD*%
%TA.AperFunction,SMDPad,CuDef*%
%ADD17FreePoly2,0.000000*%
%TD*%
%TA.AperFunction,SMDPad,CuDef*%
%ADD18FreePoly3,0.000000*%
%TD*%
%TA.AperFunction,SMDPad,CuDef*%
%ADD19FreePoly4,0.000000*%
%TD*%
%TA.AperFunction,SMDPad,CuDef*%
%ADD20FreePoly5,0.000000*%
%TD*%
%TA.AperFunction,SMDPad,CuDef*%
%ADD21FreePoly6,0.000000*%
%TD*%
%TA.AperFunction,SMDPad,CuDef*%
%ADD22FreePoly7,0.000000*%
%TD*%
%TA.AperFunction,SMDPad,CuDef*%
%ADD23RoundRect,0.100000X-0.687500X-0.100000X0.687500X-0.100000X0.687500X0.100000X-0.687500X0.100000X0*%
%TD*%
%TA.AperFunction,HeatsinkPad*%
%ADD24C,0.500000*%
%TD*%
%TA.AperFunction,HeatsinkPad*%
%ADD25R,3.400000X5.000000*%
%TD*%
%TA.AperFunction,SMDPad,CuDef*%
%ADD26R,1.320800X0.431800*%
%TD*%
%TA.AperFunction,SMDPad,CuDef*%
%ADD27FreePoly8,0.000000*%
%TD*%
%TA.AperFunction,SMDPad,CuDef*%
%ADD28FreePoly9,0.000000*%
%TD*%
%TA.AperFunction,SMDPad,CuDef*%
%ADD29FreePoly10,0.000000*%
%TD*%
%TA.AperFunction,SMDPad,CuDef*%
%ADD30FreePoly11,0.000000*%
%TD*%
%TA.AperFunction,SMDPad,CuDef*%
%ADD31FreePoly12,0.000000*%
%TD*%
%TA.AperFunction,SMDPad,CuDef*%
%ADD32FreePoly13,0.000000*%
%TD*%
%TA.AperFunction,SMDPad,CuDef*%
%ADD33FreePoly14,0.000000*%
%TD*%
%TA.AperFunction,SMDPad,CuDef*%
%ADD34FreePoly15,0.000000*%
%TD*%
%TA.AperFunction,SMDPad,CuDef*%
%ADD35FreePoly16,0.000000*%
%TD*%
%TA.AperFunction,SMDPad,CuDef*%
%ADD36FreePoly17,0.000000*%
%TD*%
%TA.AperFunction,SMDPad,CuDef*%
%ADD37FreePoly18,0.000000*%
%TD*%
%TA.AperFunction,SMDPad,CuDef*%
%ADD38FreePoly19,0.000000*%
%TD*%
%TA.AperFunction,SMDPad,CuDef*%
%ADD39FreePoly20,0.000000*%
%TD*%
%TA.AperFunction,SMDPad,CuDef*%
%ADD40FreePoly21,0.000000*%
%TD*%
%TA.AperFunction,SMDPad,CuDef*%
%ADD41FreePoly22,0.000000*%
%TD*%
%TA.AperFunction,SMDPad,CuDef*%
%ADD42FreePoly23,0.000000*%
%TD*%
%TA.AperFunction,SMDPad,CuDef*%
%ADD43FreePoly24,0.000000*%
%TD*%
%TA.AperFunction,SMDPad,CuDef*%
%ADD44C,1.000000*%
%TD*%
%TA.AperFunction,ComponentPad*%
%ADD45C,2.500000*%
%TD*%
%TA.AperFunction,ComponentPad*%
%ADD46O,3.000000X1.600000*%
%TD*%
%TA.AperFunction,SMDPad,CuDef*%
%ADD47RoundRect,0.250000X-0.350000X-0.450000X0.350000X-0.450000X0.350000X0.450000X-0.350000X0.450000X0*%
%TD*%
%TA.AperFunction,SMDPad,CuDef*%
%ADD48RoundRect,0.237500X-0.250000X-0.237500X0.250000X-0.237500X0.250000X0.237500X-0.250000X0.237500X0*%
%TD*%
%TA.AperFunction,SMDPad,CuDef*%
%ADD49R,1.282500X3.456000*%
%TD*%
%TA.AperFunction,SMDPad,CuDef*%
%ADD50RoundRect,0.200000X-0.200000X-0.275000X0.200000X-0.275000X0.200000X0.275000X-0.200000X0.275000X0*%
%TD*%
%TA.AperFunction,SMDPad,CuDef*%
%ADD51R,1.000000X1.500000*%
%TD*%
%TA.AperFunction,SMDPad,CuDef*%
%ADD52RoundRect,0.150000X-0.150000X-0.425000X0.150000X-0.425000X0.150000X0.425000X-0.150000X0.425000X0*%
%TD*%
%TA.AperFunction,SMDPad,CuDef*%
%ADD53RoundRect,0.075000X-0.075000X-0.500000X0.075000X-0.500000X0.075000X0.500000X-0.075000X0.500000X0*%
%TD*%
%TA.AperFunction,SMDPad,CuDef*%
%ADD54RoundRect,0.250000X-0.840000X-0.750000X0.840000X-0.750000X0.840000X0.750000X-0.840000X0.750000X0*%
%TD*%
%TA.AperFunction,ComponentPad*%
%ADD55R,1.700000X1.700000*%
%TD*%
%TA.AperFunction,ComponentPad*%
%ADD56O,1.700000X1.700000*%
%TD*%
%TA.AperFunction,ComponentPad*%
%ADD57RoundRect,0.250000X-0.750000X-0.400000X0.750000X-0.400000X0.750000X0.400000X-0.750000X0.400000X0*%
%TD*%
%TA.AperFunction,ComponentPad*%
%ADD58O,2.000000X1.300000*%
%TD*%
%TA.AperFunction,SMDPad,CuDef*%
%ADD59RoundRect,0.237500X-0.287500X-0.237500X0.287500X-0.237500X0.287500X0.237500X-0.287500X0.237500X0*%
%TD*%
%TA.AperFunction,SMDPad,CuDef*%
%ADD60RoundRect,0.237500X-0.300000X-0.237500X0.300000X-0.237500X0.300000X0.237500X-0.300000X0.237500X0*%
%TD*%
%TA.AperFunction,SMDPad,CuDef*%
%ADD61RoundRect,0.250000X-0.337500X-0.475000X0.337500X-0.475000X0.337500X0.475000X-0.337500X0.475000X0*%
%TD*%
G04 APERTURE END LIST*
D10*
X210425000Y-70120000D02*
X130425000Y-70120000D01*
X92500000Y-58000000D02*
X92500000Y-118000000D01*
D11*
%TO.N,GND*%
X266450000Y-57100000D02*
X266450000Y-110050000D01*
%TD*%
D12*
%TO.P,L2,2,2*%
%TO.N,Net-(L2-Pad2)*%
X257500000Y-137250000D03*
%TO.P,L2,1,1*%
%TO.N,Net-(L2-Pad1)*%
X255175000Y-137250000D03*
%TD*%
%TO.P,L1,2,2*%
%TO.N,Net-(L1-Pad2)*%
X257500000Y-133500000D03*
%TO.P,L1,1,1*%
%TO.N,Net-(L1-Pad1)*%
X255175000Y-133500000D03*
%TD*%
D13*
%TO.P,U11,0*%
%TO.N,N/C*%
X284375200Y-100540000D03*
X284375200Y-101000000D03*
X284375200Y-101460000D03*
X284375200Y-101920000D03*
D14*
X286187800Y-101229900D03*
D13*
X288000000Y-100540000D03*
X288000000Y-101000000D03*
X288000000Y-101460000D03*
X288000000Y-101920000D03*
D15*
%TO.P,U11,1,VINA*%
%TO.N,Net-(U11-EN)*%
X284687600Y-102629900D03*
D16*
%TO.P,U11,2,GND*%
%TO.N,GND*%
X285187800Y-102629900D03*
D15*
%TO.P,U11,3,FB*%
%TO.N,Net-(U11-FB)*%
X285687600Y-102629900D03*
D16*
%TO.P,U11,4,VOUT1*%
%TO.N,Net-(JP18-A)*%
X286187800Y-102629900D03*
D17*
%TO.P,U11,5,VOUT2*%
%TO.N,/3V3_VOUT2*%
X286687600Y-102629900D03*
D16*
%TO.P,U11,6,L2*%
%TO.N,Net-(L2-Pad1)*%
X287187800Y-102629900D03*
D18*
%TO.P,U11,7,L2*%
X287687600Y-102629900D03*
D19*
%TO.P,U11,8,L1*%
%TO.N,Net-(L2-Pad2)*%
X287687600Y-99830100D03*
D20*
%TO.P,U11,9,L1*%
X287187800Y-99830100D03*
D21*
%TO.P,U11,10,VIN2*%
%TO.N,Load_Supply*%
X286687600Y-99830100D03*
D20*
%TO.P,U11,11,VIN1*%
X286187800Y-99830100D03*
D22*
%TO.P,U11,12,EN*%
%TO.N,Net-(U11-EN)*%
X285687600Y-99830100D03*
D20*
%TO.P,U11,13,PS/SYNC*%
X285187800Y-99830100D03*
D22*
%TO.P,U11,14,PG*%
%TO.N,Net-(U11-PG)*%
X284687600Y-99830100D03*
%TD*%
D13*
%TO.P,U10,0*%
%TO.N,N/C*%
X224687400Y-91910100D03*
X224687400Y-92370100D03*
X224687400Y-92830100D03*
X224687400Y-93290100D03*
D14*
X226500000Y-92600000D03*
D13*
X228312200Y-91910100D03*
X228312200Y-92370100D03*
X228312200Y-92830100D03*
X228312200Y-93290100D03*
D15*
%TO.P,U10,1,VINA*%
%TO.N,Net-(U10-EN)*%
X224999800Y-94000000D03*
D16*
%TO.P,U10,2,GND*%
%TO.N,GND*%
X225500000Y-94000000D03*
D15*
%TO.P,U10,3,FB*%
%TO.N,Net-(U10-FB)*%
X225999800Y-94000000D03*
D16*
%TO.P,U10,4,VOUT1*%
%TO.N,Net-(JP17-B)*%
X226500000Y-94000000D03*
D17*
%TO.P,U10,5,VOUT2*%
%TO.N,/5V_VOUT2*%
X226999800Y-94000000D03*
D16*
%TO.P,U10,6,L2*%
%TO.N,Net-(L1-Pad1)*%
X227500000Y-94000000D03*
D18*
%TO.P,U10,7,L2*%
X227999800Y-94000000D03*
D19*
%TO.P,U10,8,L1*%
%TO.N,Net-(L1-Pad2)*%
X227999800Y-91200200D03*
D20*
%TO.P,U10,9,L1*%
X227500000Y-91200200D03*
D21*
%TO.P,U10,10,VIN2*%
%TO.N,Load_Supply*%
X226999800Y-91200200D03*
D20*
%TO.P,U10,11,VIN1*%
X226500000Y-91200200D03*
D22*
%TO.P,U10,12,EN*%
%TO.N,Net-(U10-EN)*%
X225999800Y-91200200D03*
D20*
%TO.P,U10,13,PS/SYNC*%
X225500000Y-91200200D03*
D22*
%TO.P,U10,14,PG*%
%TO.N,Net-(U10-PG)*%
X224999800Y-91200200D03*
%TD*%
D23*
%TO.P,U4,1,~{SLEEP}*%
%TO.N,/5V_Out*%
X205000000Y-99550000D03*
%TO.P,U4,2,AOUT1*%
%TO.N,MOTOR3_A_OUT*%
X205000000Y-100200000D03*
%TO.P,U4,3,AISEN*%
%TO.N,/AISEN2*%
X205000000Y-100850000D03*
%TO.P,U4,4,AOUT2*%
%TO.N,/M3AO2*%
X205000000Y-101500000D03*
%TO.P,U4,5,BOUT2*%
%TO.N,/M4AB2*%
X205000000Y-102150000D03*
%TO.P,U4,6,BISEN*%
%TO.N,/BISEN2*%
X205000000Y-102800000D03*
%TO.P,U4,7,BOUT1*%
%TO.N,MOTOR4_A_OUT*%
X205000000Y-103450000D03*
%TO.P,U4,8,~{FAULT}*%
%TO.N,Net-(U4-~{FAULT})*%
X205000000Y-104100000D03*
%TO.P,U4,9,BIN1*%
%TO.N,MOTOR4_CTRL1*%
X210725000Y-104100000D03*
%TO.P,U4,10,BIN2*%
%TO.N,MOTOR4_CTRL2*%
X210725000Y-103450000D03*
%TO.P,U4,11,VCP*%
%TO.N,Net-(U4-VCP)*%
X210725000Y-102800000D03*
%TO.P,U4,12,VM*%
%TO.N,Load_Supply*%
X210725000Y-102150000D03*
%TO.P,U4,13,GND*%
%TO.N,GND*%
X210725000Y-101500000D03*
%TO.P,U4,14,VINT*%
%TO.N,Net-(U4-VINT)*%
X210725000Y-100850000D03*
%TO.P,U4,15,AIN2*%
%TO.N,MOTOR3_CTRL2*%
X210725000Y-100200000D03*
%TO.P,U4,16,AIN1*%
%TO.N,MOTOR3_CTRL1*%
X210725000Y-99550000D03*
D24*
%TO.P,U4,17,GND*%
%TO.N,GND*%
X207112500Y-100325000D03*
X207112500Y-101825000D03*
X207112500Y-103325000D03*
D25*
X207862500Y-101825000D03*
D24*
X208612500Y-100325000D03*
X208612500Y-101825000D03*
X208612500Y-103325000D03*
%TD*%
D26*
%TO.P,U2,1,IN+*%
%TO.N,Battery*%
X208772900Y-112404700D03*
%TO.P,U2,2,IN-*%
%TO.N,Load_Supply*%
X208772900Y-113054700D03*
%TO.P,U2,3,GND*%
%TO.N,GND*%
X208772900Y-113704900D03*
%TO.P,U2,4,VS*%
%TO.N,Battery*%
X208772900Y-114354900D03*
%TO.P,U2,5,SCL*%
%TO.N,I2C1_SCL*%
X211160500Y-114354900D03*
%TO.P,U2,6,SDA*%
%TO.N,I2C1_SDA*%
X211160500Y-113704900D03*
%TO.P,U2,7,A0*%
%TO.N,GND*%
X211160500Y-113054700D03*
%TO.P,U2,8,A1*%
%TO.N,Battery*%
X211160500Y-112404700D03*
%TD*%
D27*
%TO.P,U1,1,~{SLEEP}*%
%TO.N,/5V_Out*%
X209612675Y-105967625D03*
D28*
%TO.P,U1,2,AOUT1*%
%TO.N,MOTOR1_A_OUT*%
X209612675Y-106617625D03*
D29*
%TO.P,U1,3,AISEN*%
%TO.N,/AISEN1*%
X209612675Y-107267625D03*
D30*
%TO.P,U1,4,AOUT2*%
%TO.N,MOTOR1_A_OUT*%
X209612675Y-107917625D03*
D31*
%TO.P,U1,5,BOUT2*%
%TO.N,/M2AO2*%
X209612675Y-108567825D03*
D32*
%TO.P,U1,6,BISEN*%
%TO.N,/BISEN1*%
X209612675Y-109217825D03*
D33*
%TO.P,U1,7,BOUT1*%
%TO.N,/M2AO1*%
X209612675Y-109867825D03*
D34*
%TO.P,U1,8,~{FAULT}*%
%TO.N,Net-(U1-~{FAULT})*%
X209612675Y-110517825D03*
D35*
%TO.P,U1,9,BIN1*%
%TO.N,MOTOR2_CTRL1*%
X215412475Y-110517825D03*
D36*
%TO.P,U1,10,BIN2*%
%TO.N,MOTOR2_CTRL2*%
X215412475Y-109867825D03*
D37*
%TO.P,U1,11,VCP*%
%TO.N,Net-(U1-VCP)*%
X215412475Y-109217825D03*
D38*
%TO.P,U1,12,VM*%
%TO.N,Load_Supply*%
X215412475Y-108567825D03*
D39*
%TO.P,U1,13,GND*%
%TO.N,GND*%
X215412475Y-107917625D03*
D40*
%TO.P,U1,14,VINT*%
%TO.N,Net-(U1-VINT)*%
X215412475Y-107267625D03*
D41*
%TO.P,U1,15,AIN2*%
%TO.N,MOTOR1_CTRL2*%
X215412475Y-106617625D03*
D42*
%TO.P,U1,16,AIN1*%
%TO.N,MOTOR1_CTRL1*%
X215412475Y-105967625D03*
D43*
%TO.P,U1,17,GND*%
%TO.N,GND*%
X212512575Y-108242725D03*
%TD*%
D44*
%TO.P,TP40,1,1*%
%TO.N,Net-(U10-FB)*%
X275050000Y-120150000D03*
%TD*%
%TO.P,TP39,1,1*%
%TO.N,Net-(U11-FB)*%
X275050000Y-117100000D03*
%TD*%
D45*
%TO.P,TP38,1,1*%
%TO.N,Load_Supply*%
X205337500Y-111970000D03*
%TD*%
%TO.P,TP37,1,1*%
%TO.N,Battery*%
X205337500Y-107420000D03*
%TD*%
D44*
%TO.P,TP36,1,1*%
%TO.N,MOTOR1_A_OUT*%
X275050000Y-114050000D03*
%TD*%
%TO.P,TP35,1,1*%
%TO.N,/3V3_Out*%
X275050000Y-111000000D03*
%TD*%
%TO.P,TP34,1,1*%
%TO.N,Net-(JP15-B)*%
X275050000Y-107950000D03*
%TD*%
%TO.P,TP33,1,1*%
%TO.N,Net-(JP17-B)*%
X272000000Y-123200000D03*
%TD*%
%TO.P,TP32,1,1*%
%TO.N,MOTOR2_A_OUT*%
X272000000Y-120150000D03*
%TD*%
%TO.P,TP30,1,1*%
%TO.N,/M2BO2*%
X272000000Y-117100000D03*
%TD*%
%TO.P,TP27,1,1*%
%TO.N,MOTOR1_A_OUT*%
X272000000Y-114050000D03*
%TD*%
%TO.P,TP26,1,1*%
%TO.N,/M3AO2*%
X272000000Y-111000000D03*
%TD*%
%TO.P,TP25,1,1*%
%TO.N,Net-(JP10-A)*%
X272000000Y-107950000D03*
%TD*%
%TO.P,TP24,1,1*%
%TO.N,Net-(JP9-A)*%
X268950000Y-123200000D03*
%TD*%
%TO.P,TP23,1,1*%
%TO.N,/M4AB2*%
X268950000Y-120150000D03*
%TD*%
%TO.P,TP22,1,1*%
%TO.N,MOTOR4_A_OUT*%
X268950000Y-117100000D03*
%TD*%
%TO.P,TP21,1,1*%
%TO.N,GND*%
X268950000Y-114050000D03*
%TD*%
%TO.P,TP20,1,1*%
%TO.N,MOTOR3_A_OUT*%
X268950000Y-111000000D03*
%TD*%
%TO.P,TP19,1,1*%
%TO.N,/3V3_Out*%
X268950000Y-107950000D03*
%TD*%
%TO.P,TP14,1,1*%
%TO.N,GND*%
X265900000Y-123200000D03*
%TD*%
%TO.P,TP13,1,1*%
%TO.N,Load_Supply*%
X265900000Y-120150000D03*
%TD*%
%TO.P,TP12,1,1*%
%TO.N,GND*%
X265900000Y-117100000D03*
%TD*%
%TO.P,TP11,1,1*%
%TO.N,Net-(U4-VINT)*%
X265900000Y-114050000D03*
%TD*%
%TO.P,TP10,1,1*%
%TO.N,GND*%
X265900000Y-111000000D03*
%TD*%
%TO.P,TP9,1,1*%
%TO.N,GND*%
X265900000Y-107950000D03*
%TD*%
%TO.P,TP8,1,1*%
%TO.N,Load_Supply*%
X262850000Y-123200000D03*
%TD*%
%TO.P,TP7,1,1*%
%TO.N,GND*%
X262850000Y-120150000D03*
%TD*%
%TO.P,TP6,1,1*%
%TO.N,Net-(U1-VINT)*%
X262850000Y-117100000D03*
%TD*%
%TO.P,TP4,1,1*%
%TO.N,/VBUS*%
X262850000Y-114050000D03*
%TD*%
%TO.P,TP3,1,1*%
%TO.N,High_Voltage_(9V)*%
X262850000Y-111000000D03*
%TD*%
%TO.P,TP2,1,1*%
%TO.N,Net-(JP19-B)*%
X262850000Y-107950000D03*
%TD*%
D46*
%TO.P,SW1,1,C*%
%TO.N,Battery*%
X249619500Y-143352000D03*
%TO.P,SW1,2,B*%
%TO.N,Net-(J1-Pin_1)*%
X249619500Y-138652000D03*
%TO.P,SW1,3,A*%
%TO.N,Charger*%
X249619500Y-133952000D03*
%TD*%
D47*
%TO.P,R32,1*%
%TO.N,Net-(U11-PG)*%
X262700000Y-80100000D03*
%TO.P,R32,2*%
%TO.N,Net-(JP18-A)*%
X264700000Y-80100000D03*
%TD*%
%TO.P,R31,1*%
%TO.N,Net-(U10-PG)*%
X237010000Y-147730000D03*
%TO.P,R31,2*%
%TO.N,Net-(JP17-B)*%
X239010000Y-147730000D03*
%TD*%
%TO.P,R30,1*%
%TO.N,Net-(U13-VBUS)*%
X237010000Y-144780000D03*
%TO.P,R30,2*%
%TO.N,/VBUS*%
X239010000Y-144780000D03*
%TD*%
%TO.P,R29,1*%
%TO.N,GND*%
X237010000Y-141830000D03*
%TO.P,R29,2*%
%TO.N,Net-(U13-CFG1)*%
X239010000Y-141830000D03*
%TD*%
D48*
%TO.P,R28,1*%
%TO.N,High_Voltage_(9V)*%
X275637500Y-138530000D03*
%TO.P,R28,2*%
%TO.N,/3V3_Out*%
X277462500Y-138530000D03*
%TD*%
%TO.P,R27,1*%
%TO.N,Battery*%
X275637500Y-136020000D03*
%TO.P,R27,2*%
%TO.N,I2C1_SDA*%
X277462500Y-136020000D03*
%TD*%
%TO.P,R25,1*%
%TO.N,Net-(U9-PROG)*%
X275637500Y-133510000D03*
%TO.P,R25,2*%
%TO.N,Net-(R25-Pad2)*%
X277462500Y-133510000D03*
%TD*%
%TO.P,R24,1*%
%TO.N,Battery*%
X275637500Y-131000000D03*
%TO.P,R24,2*%
%TO.N,I2C1_SCL*%
X277462500Y-131000000D03*
%TD*%
D49*
%TO.P,R19,1*%
%TO.N,Net-(JP7-B)*%
X244281000Y-115781400D03*
%TO.P,R19,2*%
%TO.N,GND*%
X250413600Y-115781400D03*
%TD*%
%TO.P,R18,1*%
%TO.N,GND*%
X244281000Y-110715800D03*
%TO.P,R18,2*%
%TO.N,Net-(JP5-B)*%
X250413600Y-110715800D03*
%TD*%
%TO.P,R17,1*%
%TO.N,Net-(JP3-B)*%
X244281000Y-105650200D03*
%TO.P,R17,2*%
%TO.N,GND*%
X250413600Y-105650200D03*
%TD*%
D48*
%TO.P,R16,1*%
%TO.N,Net-(D4-A)*%
X275637500Y-128490000D03*
%TO.P,R16,2*%
%TO.N,Net-(U4-~{FAULT})*%
X277462500Y-128490000D03*
%TD*%
D49*
%TO.P,R15,1*%
%TO.N,Battery*%
X244281000Y-100584600D03*
%TO.P,R15,2*%
%TO.N,Net-(JP16-B)*%
X250413600Y-100584600D03*
%TD*%
D48*
%TO.P,R14,1*%
%TO.N,Net-(D1-A)*%
X275637500Y-125980000D03*
%TO.P,R14,2*%
%TO.N,Net-(U1-~{FAULT})*%
X277462500Y-125980000D03*
%TD*%
D47*
%TO.P,R13,1*%
%TO.N,Net-(U9-PROG)*%
X237010000Y-138880000D03*
%TO.P,R13,2*%
%TO.N,Net-(R13-Pad2)*%
X239010000Y-138880000D03*
%TD*%
D49*
%TO.P,R12,1*%
%TO.N,GND*%
X244281000Y-95519000D03*
%TO.P,R12,2*%
%TO.N,Net-(JP1-B)*%
X250413600Y-95519000D03*
%TD*%
D47*
%TO.P,R11,1*%
%TO.N,Net-(U11-FB)*%
X237010000Y-135930000D03*
%TO.P,R11,2*%
%TO.N,GND*%
X239010000Y-135930000D03*
%TD*%
%TO.P,R10,1*%
%TO.N,Net-(U10-FB)*%
X237010000Y-132980000D03*
%TO.P,R10,2*%
%TO.N,GND*%
X239010000Y-132980000D03*
%TD*%
D49*
%TO.P,R9,1*%
%TO.N,Battery*%
X244281000Y-90453400D03*
%TO.P,R9,2*%
%TO.N,Net-(JP13-B)*%
X250413600Y-90453400D03*
%TD*%
%TO.P,R8,1*%
%TO.N,Battery*%
X244281000Y-85387800D03*
%TO.P,R8,2*%
%TO.N,Net-(JP13-A)*%
X250413600Y-85387800D03*
%TD*%
D47*
%TO.P,R7,1*%
%TO.N,Net-(JP15-B)*%
X237010000Y-130030000D03*
%TO.P,R7,2*%
%TO.N,GND*%
X239010000Y-130030000D03*
%TD*%
%TO.P,R6,1*%
%TO.N,High_Voltage_(9V)*%
X237010000Y-127080000D03*
%TO.P,R6,2*%
%TO.N,Net-(JP15-B)*%
X239010000Y-127080000D03*
%TD*%
D48*
%TO.P,R5,1*%
%TO.N,Net-(JP15-A)*%
X271287500Y-138530000D03*
%TO.P,R5,2*%
%TO.N,Net-(D3-A)*%
X273112500Y-138530000D03*
%TD*%
D50*
%TO.P,R4,1*%
%TO.N,/5V_Out*%
X217202500Y-86670000D03*
%TO.P,R4,2*%
%TO.N,Net-(U11-FB)*%
X218852500Y-86670000D03*
%TD*%
%TO.P,R2,1*%
%TO.N,/5V_Out*%
X217202500Y-84160000D03*
%TO.P,R2,2*%
%TO.N,Net-(U10-FB)*%
X218852500Y-84160000D03*
%TD*%
D51*
%TO.P,JP24,1,A*%
%TO.N,/M4AB2*%
X271550000Y-104650000D03*
%TO.P,JP24,2,B*%
%TO.N,MOTOR4_B_OUT*%
X272850000Y-104650000D03*
%TD*%
%TO.P,JP23,1,A*%
%TO.N,/M3AO2*%
X271550000Y-101100000D03*
%TO.P,JP23,2,B*%
%TO.N,MOTOR3_B_OUT*%
X272850000Y-101100000D03*
%TD*%
%TO.P,JP22,1,A*%
%TO.N,/M2BO2*%
X271550000Y-97550000D03*
%TO.P,JP22,2,B*%
%TO.N,MOTOR2_B_OUT*%
X272850000Y-97550000D03*
%TD*%
%TO.P,JP21,1,A*%
%TO.N,MOTOR1_A_OUT*%
X271550000Y-94000000D03*
%TO.P,JP21,2,B*%
%TO.N,MOTOR1_B_OUT*%
X272850000Y-94000000D03*
%TD*%
%TO.P,JP19,1,A*%
%TO.N,Charger*%
X271550000Y-90450000D03*
%TO.P,JP19,2,B*%
%TO.N,Net-(JP19-B)*%
X272850000Y-90450000D03*
%TD*%
%TO.P,JP18,1,A*%
%TO.N,Net-(JP18-A)*%
X271550000Y-86900000D03*
%TO.P,JP18,2,B*%
%TO.N,/3V3_Out*%
X272850000Y-86900000D03*
%TD*%
%TO.P,JP17,1,A*%
%TO.N,/5V_Out*%
X271550000Y-83350000D03*
%TO.P,JP17,2,B*%
%TO.N,Net-(JP17-B)*%
X272850000Y-83350000D03*
%TD*%
%TO.P,JP16,1,A*%
%TO.N,Load_Supply*%
X267200000Y-104650000D03*
%TO.P,JP16,2,B*%
%TO.N,Net-(JP16-B)*%
X268500000Y-104650000D03*
%TD*%
%TO.P,JP15,1,A*%
%TO.N,Net-(JP15-A)*%
X267200000Y-101100000D03*
%TO.P,JP15,2,B*%
%TO.N,Net-(JP15-B)*%
X268500000Y-101100000D03*
%TD*%
%TO.P,JP14,1,A*%
%TO.N,/5V_VOUT2*%
X267200000Y-97550000D03*
%TO.P,JP14,2,B*%
%TO.N,5V Out*%
X268500000Y-97550000D03*
%TD*%
%TO.P,JP11,1,A*%
%TO.N,/3V3_VOUT2*%
X267200000Y-94000000D03*
%TO.P,JP11,2,B*%
%TO.N,/3V3_Out*%
X268500000Y-94000000D03*
%TD*%
%TO.P,JP10,1,A*%
%TO.N,Net-(JP10-A)*%
X267200000Y-90450000D03*
%TO.P,JP10,2,B*%
%TO.N,EXT_LOAD2_OUT*%
X268500000Y-90450000D03*
%TD*%
%TO.P,JP9,1,A*%
%TO.N,Net-(JP9-A)*%
X267200000Y-86900000D03*
%TO.P,JP9,2,B*%
%TO.N,EXT_LOAD1_OUT*%
X268500000Y-86900000D03*
%TD*%
%TO.P,JP8,1,A*%
%TO.N,/BISEN2*%
X267200000Y-83350000D03*
%TO.P,JP8,2,B*%
%TO.N,GND*%
X268500000Y-83350000D03*
%TD*%
%TO.P,JP7,1,A*%
%TO.N,/BISEN2*%
X262850000Y-104650000D03*
%TO.P,JP7,2,B*%
%TO.N,Net-(JP7-B)*%
X264150000Y-104650000D03*
%TD*%
%TO.P,JP6,1,A*%
%TO.N,/AISEN2*%
X262850000Y-101100000D03*
%TO.P,JP6,2,B*%
%TO.N,GND*%
X264150000Y-101100000D03*
%TD*%
%TO.P,JP5,1,A*%
%TO.N,/AISEN2*%
X262850000Y-97550000D03*
%TO.P,JP5,2,B*%
%TO.N,Net-(JP5-B)*%
X264150000Y-97550000D03*
%TD*%
%TO.P,JP4,1,A*%
%TO.N,/BISEN1*%
X262850000Y-94000000D03*
%TO.P,JP4,2,B*%
%TO.N,GND*%
X264150000Y-94000000D03*
%TD*%
%TO.P,JP3,1,A*%
%TO.N,/BISEN1*%
X262850000Y-90450000D03*
%TO.P,JP3,2,B*%
%TO.N,Net-(JP3-B)*%
X264150000Y-90450000D03*
%TD*%
%TO.P,JP2,1,A*%
%TO.N,/AISEN1*%
X262850000Y-86900000D03*
%TO.P,JP2,2,B*%
%TO.N,GND*%
X264150000Y-86900000D03*
%TD*%
%TO.P,JP1,1,A*%
%TO.N,/AISEN1*%
X262850000Y-83350000D03*
%TO.P,JP1,2,B*%
%TO.N,Net-(JP1-B)*%
X264150000Y-83350000D03*
%TD*%
D52*
%TO.P,J4,A1*%
%TO.N,N/C*%
X249567500Y-123240000D03*
%TO.P,J4,A4*%
X250367500Y-123240000D03*
D53*
%TO.P,J4,A5,CC1*%
%TO.N,/CC1*%
X251517500Y-123240000D03*
%TO.P,J4,A6*%
%TO.N,N/C*%
X252517500Y-123240000D03*
%TO.P,J4,A7*%
X253017500Y-123240000D03*
%TO.P,J4,A8*%
X254017500Y-123240000D03*
D52*
%TO.P,J4,A9,VBUS*%
%TO.N,High_Voltage_(9V)*%
X255167500Y-123240000D03*
%TO.P,J4,A12,GND*%
%TO.N,GND*%
X255967500Y-123240000D03*
%TO.P,J4,B1*%
%TO.N,N/C*%
X255967500Y-123240000D03*
%TO.P,J4,B4*%
X255167500Y-123240000D03*
D53*
%TO.P,J4,B5,CC2*%
%TO.N,/CC2*%
X254517500Y-123240000D03*
%TO.P,J4,B6*%
%TO.N,N/C*%
X253517500Y-123240000D03*
%TO.P,J4,B7*%
X252017500Y-123240000D03*
%TO.P,J4,B8*%
X251017500Y-123240000D03*
D52*
%TO.P,J4,B9,VBUS*%
%TO.N,High_Voltage_(9V)*%
X250367500Y-123240000D03*
%TO.P,J4,B12,GND*%
%TO.N,GND*%
X249567500Y-123240000D03*
D54*
%TO.P,J4,S1,SHIELD*%
%TO.N,unconnected-(J4-SHIELD-PadS1)_1*%
X247657500Y-123815000D03*
%TO.N,unconnected-(J4-SHIELD-PadS1)_2*%
X247657500Y-127745000D03*
%TO.N,unconnected-(J4-SHIELD-PadS1)_3*%
X257877500Y-123815000D03*
%TO.N,unconnected-(J4-SHIELD-PadS1)*%
X257877500Y-127745000D03*
%TD*%
D55*
%TO.P,J3,1,Pin_1*%
%TO.N,MOTOR2_B_OUT*%
X237960000Y-85180000D03*
D56*
%TO.P,J3,2,Pin_2*%
%TO.N,MOTOR2_A_OUT*%
X240500000Y-85180000D03*
%TO.P,J3,3,Pin_3*%
%TO.N,MOTOR4_A_OUT*%
X237960000Y-87720000D03*
%TO.P,J3,4,Pin_4*%
%TO.N,MOTOR2_CTRL1*%
X240500000Y-87720000D03*
%TO.P,J3,5,Pin_5*%
%TO.N,MOTOR4_B_OUT*%
X237960000Y-90260000D03*
%TO.P,J3,6,Pin_6*%
%TO.N,MOTOR2_CTRL2*%
X240500000Y-90260000D03*
%TO.P,J3,7,Pin_7*%
%TO.N,CTRL_EXT_LOAD2*%
X237960000Y-92800000D03*
%TO.P,J3,8,Pin_8*%
%TO.N,MOTOR4_CTRL1*%
X240500000Y-92800000D03*
%TO.P,J3,9,Pin_9*%
%TO.N,unconnected-(J3-Pin_9-Pad9)*%
X237960000Y-95340000D03*
%TO.P,J3,10,Pin_10*%
%TO.N,MOTOR4_CTRL2*%
X240500000Y-95340000D03*
%TO.P,J3,11,Pin_11*%
%TO.N,EXT_LOAD2_OUT*%
X237960000Y-97880000D03*
%TO.P,J3,12,Pin_12*%
%TO.N,unconnected-(J3-Pin_12-Pad12)*%
X240500000Y-97880000D03*
%TO.P,J3,13,Pin_13*%
%TO.N,FAST_CHARGE_CTRL*%
X237960000Y-100420000D03*
%TO.P,J3,14,Pin_14*%
%TO.N,Battery*%
X240500000Y-100420000D03*
%TO.P,J3,15,Pin_15*%
%TO.N,unconnected-(J3-Pin_15-Pad15)*%
X237960000Y-102960000D03*
%TO.P,J3,16,Pin_16*%
%TO.N,I2C1_SCL*%
X240500000Y-102960000D03*
%TO.P,J3,17,Pin_17*%
%TO.N,I2C1_SDA*%
X237960000Y-105500000D03*
%TO.P,J3,18,Pin_18*%
%TO.N,/3V3_Out*%
X240500000Y-105500000D03*
%TO.P,J3,19,Pin_19*%
%TO.N,GND*%
X237960000Y-108040000D03*
%TO.P,J3,20,Pin_20*%
%TO.N,/5V_Out*%
X240500000Y-108040000D03*
%TO.P,J3,21,Pin_21*%
%TO.N,EXT_LOAD1_OUT*%
X237960000Y-110580000D03*
%TO.P,J3,22,Pin_22*%
%TO.N,High_Voltage_(9V)*%
X240500000Y-110580000D03*
%TO.P,J3,23,Pin_23*%
%TO.N,GND*%
X237960000Y-113120000D03*
%TO.P,J3,24,Pin_24*%
%TO.N,MOTOR3_CTRL1*%
X240500000Y-113120000D03*
%TO.P,J3,25,Pin_25*%
%TO.N,CTRL_EXT_LOAD1*%
X237960000Y-115660000D03*
%TO.P,J3,26,Pin_26*%
%TO.N,MOTOR3_CTRL2*%
X240500000Y-115660000D03*
%TO.P,J3,27,Pin_27*%
%TO.N,MOTOR3_A_OUT*%
X237960000Y-118200000D03*
%TO.P,J3,28,Pin_28*%
%TO.N,MOTOR1_CTRL1*%
X240500000Y-118200000D03*
%TO.P,J3,29,Pin_29*%
%TO.N,MOTOR3_B_OUT*%
X237960000Y-120740000D03*
%TO.P,J3,30,Pin_30*%
%TO.N,MOTOR1_CTRL2*%
X240500000Y-120740000D03*
%TO.P,J3,31,Pin_31*%
%TO.N,MOTOR1_B_OUT*%
X237960000Y-123280000D03*
%TO.P,J3,32,Pin_32*%
%TO.N,MOTOR1_A_OUT*%
X240500000Y-123280000D03*
%TD*%
D57*
%TO.P,J1,1,Pin_1*%
%TO.N,Net-(J1-Pin_1)*%
X209487500Y-92980000D03*
D58*
%TO.P,J1,2,Pin_2*%
%TO.N,GND*%
X209487500Y-94980000D03*
%TD*%
D59*
%TO.P,D4,1,K*%
%TO.N,GND*%
X214557500Y-95930000D03*
%TO.P,D4,2,A*%
%TO.N,Net-(D4-A)*%
X216307500Y-95930000D03*
%TD*%
%TO.P,D3,1,K*%
%TO.N,Net-(D3-K)*%
X214557500Y-93340000D03*
%TO.P,D3,2,A*%
%TO.N,Net-(D3-A)*%
X216307500Y-93340000D03*
%TD*%
%TO.P,D1,1,K*%
%TO.N,GND*%
X214557500Y-90750000D03*
%TO.P,D1,2,A*%
%TO.N,Net-(D1-A)*%
X216307500Y-90750000D03*
%TD*%
D60*
%TO.P,C22,1*%
%TO.N,GND*%
X271337500Y-136020000D03*
%TO.P,C22,2*%
%TO.N,Net-(JP19-B)*%
X273062500Y-136020000D03*
%TD*%
%TO.P,C21,1*%
%TO.N,/3V3_Out*%
X271337500Y-133510000D03*
%TO.P,C21,2*%
%TO.N,GND*%
X273062500Y-133510000D03*
%TD*%
%TO.P,C19,1*%
%TO.N,Net-(JP15-A)*%
X271337500Y-131000000D03*
%TO.P,C19,2*%
%TO.N,GND*%
X273062500Y-131000000D03*
%TD*%
%TO.P,C17,1*%
%TO.N,Net-(U4-VINT)*%
X271337500Y-128490000D03*
%TO.P,C17,2*%
%TO.N,Net-(U4-VCP)*%
X273062500Y-128490000D03*
%TD*%
%TO.P,C16,1*%
%TO.N,Load_Supply*%
X271337500Y-125980000D03*
%TO.P,C16,2*%
%TO.N,Net-(U1-VCP)*%
X273062500Y-125980000D03*
%TD*%
%TO.P,C15,1*%
%TO.N,Net-(U11-EN)*%
X266987500Y-138530000D03*
%TO.P,C15,2*%
%TO.N,GND*%
X268712500Y-138530000D03*
%TD*%
%TO.P,C14,1*%
%TO.N,Load_Supply*%
X266987500Y-136020000D03*
%TO.P,C14,2*%
%TO.N,GND*%
X268712500Y-136020000D03*
%TD*%
%TO.P,C13,1*%
%TO.N,GND*%
X266987500Y-133510000D03*
%TO.P,C13,2*%
%TO.N,Net-(U4-VINT)*%
X268712500Y-133510000D03*
%TD*%
%TO.P,C12,1*%
%TO.N,Load_Supply*%
X266987500Y-131000000D03*
%TO.P,C12,2*%
%TO.N,GND*%
X268712500Y-131000000D03*
%TD*%
%TO.P,C11,1*%
%TO.N,Load_Supply*%
X266987500Y-128490000D03*
%TO.P,C11,2*%
%TO.N,GND*%
X268712500Y-128490000D03*
%TD*%
%TO.P,C10,1*%
%TO.N,Net-(U10-EN)*%
X266987500Y-125980000D03*
%TO.P,C10,2*%
%TO.N,GND*%
X268712500Y-125980000D03*
%TD*%
D61*
%TO.P,C9,1*%
%TO.N,EXT_LOAD2_OUT*%
X212580000Y-87420000D03*
%TO.P,C9,2*%
%TO.N,GND*%
X214655000Y-87420000D03*
%TD*%
%TO.P,C8,1*%
%TO.N,EXT_LOAD1_OUT*%
X212580000Y-84410000D03*
%TO.P,C8,2*%
%TO.N,GND*%
X214655000Y-84410000D03*
%TD*%
D60*
%TO.P,C7,1*%
%TO.N,/5V_Out*%
X262637500Y-138530000D03*
%TO.P,C7,2*%
%TO.N,GND*%
X264362500Y-138530000D03*
%TD*%
%TO.P,C6,1*%
%TO.N,/5V_Out*%
X262637500Y-136020000D03*
%TO.P,C6,2*%
%TO.N,GND*%
X264362500Y-136020000D03*
%TD*%
%TO.P,C5,1*%
%TO.N,Battery*%
X262637500Y-133510000D03*
%TO.P,C5,2*%
%TO.N,GND*%
X264362500Y-133510000D03*
%TD*%
%TO.P,C4,1*%
%TO.N,Battery*%
X262637500Y-131000000D03*
%TO.P,C4,2*%
%TO.N,Load_Supply*%
X264362500Y-131000000D03*
%TD*%
%TO.P,C3,1*%
%TO.N,Load_Supply*%
X262637500Y-128490000D03*
%TO.P,C3,2*%
%TO.N,GND*%
X264362500Y-128490000D03*
%TD*%
%TO.P,C2,1*%
%TO.N,GND*%
X262637500Y-125980000D03*
%TO.P,C2,2*%
%TO.N,Net-(U1-VINT)*%
X264362500Y-125980000D03*
%TD*%
M02*
