M48
; DRILL file {KiCad 9.0.0} date 2025-03-28T07:13:48+0200
; FORMAT={-:-/ absolute / inch / decimal}
; #@! TF.CreationDate,2025-03-28T07:13:48+02:00
; #@! TF.GenerationSoftware,Kicad,Pcbnew,9.0.0
; #@! TF.FileFunction,Plated,1,2,PTH
FMAT,2
INCH
; #@! TA.AperFunction,Plated,PTH,ComponentDrill
T1C0.0079
; #@! TA.AperFunction,Plated,PTH,ComponentDrill
T2C0.0394
; #@! TA.AperFunction,Plated,PTH,ComponentDrill
T3C0.0472
%
G90
G05
T1
X8.154Y-3.9498
X8.154Y-4.0089
X8.154Y-4.0679
X8.2131Y-3.9498
X8.2131Y-4.0089
X8.2131Y-4.0679
T2
X8.2475Y-3.6606
X8.2475Y-3.7394
X9.3685Y-3.3535
X9.3685Y-3.4535
X9.3685Y-3.5535
X9.3685Y-3.6535
X9.3685Y-3.7535
X9.3685Y-3.8535
X9.3685Y-3.9535
X9.3685Y-4.0535
X9.3685Y-4.1535
X9.3685Y-4.2535
X9.3685Y-4.3535
X9.3685Y-4.4535
X9.3685Y-4.5535
X9.3685Y-4.6535
X9.3685Y-4.7535
X9.3685Y-4.8535
X9.4685Y-3.3535
X9.4685Y-3.4535
X9.4685Y-3.5535
X9.4685Y-3.6535
X9.4685Y-3.7535
X9.4685Y-3.8535
X9.4685Y-3.9535
X9.4685Y-4.0535
X9.4685Y-4.1535
X9.4685Y-4.2535
X9.4685Y-4.3535
X9.4685Y-4.4535
X9.4685Y-4.5535
X9.4685Y-4.6535
X9.4685Y-4.7535
X9.4685Y-4.8535
T3
X8.0842Y-4.2291
X8.0842Y-4.4083
T2
G00X9.8039Y-5.2737
M15
G01X9.8512Y-5.2737
M16
G05
G00X9.8039Y-5.4587
M15
G01X9.8512Y-5.4587
M16
G05
G00X9.8039Y-5.6438
M15
G01X9.8512Y-5.6438
M16
G05
M30
