%TF.GenerationSoftware,KiCad,Pcbnew,9.0.0*%
%TF.CreationDate,2025-03-28T03:05:09+02:00*%
%TF.ProjectId,PCB,5043422e-6b69-4636-9164-5f7063625858,rev?*%
%TF.SameCoordinates,Original*%
%TF.FileFunction,Legend,Top*%
%TF.FilePolarity,Positive*%
%FSLAX46Y46*%
G04 Gerber Fmt 4.6, Leading zero omitted, Abs format (unit mm)*
G04 Created by KiCad (PCBNEW 9.0.0) date 2025-03-28 03:05:09*
%MOMM*%
%LPD*%
G01*
G04 APERTURE LIST*
G04 Aperture macros list*
%AMRoundRect*
0 Rectangle with rounded corners*
0 $1 Rounding radius*
0 $2 $3 $4 $5 $6 $7 $8 $9 X,Y pos of 4 corners*
0 Add a 4 corners polygon primitive as box body*
4,1,4,$2,$3,$4,$5,$6,$7,$8,$9,$2,$3,0*
0 Add four circle primitives for the rounded corners*
1,1,$1+$1,$2,$3*
1,1,$1+$1,$4,$5*
1,1,$1+$1,$6,$7*
1,1,$1+$1,$8,$9*
0 Add four rect primitives between the rounded corners*
20,1,$1+$1,$2,$3,$4,$5,0*
20,1,$1+$1,$4,$5,$6,$7,0*
20,1,$1+$1,$6,$7,$8,$9,0*
20,1,$1+$1,$8,$9,$2,$3,0*%
G04 Aperture macros list end*
%ADD10C,0.150000*%
%ADD11C,0.254000*%
%ADD12C,0.152400*%
%ADD13C,0.300000*%
%ADD14C,0.120000*%
%ADD15RoundRect,0.050000X0.300000X-0.750000X0.300000X0.750000X-0.300000X0.750000X-0.300000X-0.750000X0*%
%ADD16RoundRect,0.050000X1.650000X1.050000X-1.650000X1.050000X-1.650000X-1.050000X1.650000X-1.050000X0*%
%ADD17RoundRect,0.051000X-0.550000X-0.300000X0.550000X-0.300000X0.550000X0.300000X-0.550000X0.300000X0*%
%ADD18O,0.731600X1.966600*%
%ADD19RoundRect,0.050000X-1.650000X-1.200000X1.650000X-1.200000X1.650000X1.200000X-1.650000X1.200000X0*%
%ADD20RoundRect,0.150000X-0.512500X-0.150000X0.512500X-0.150000X0.512500X0.150000X-0.512500X0.150000X0*%
%ADD21R,2.460000X2.310000*%
%ADD22RoundRect,0.100000X-0.687500X-0.100000X0.687500X-0.100000X0.687500X0.100000X-0.687500X0.100000X0*%
%ADD23C,1.000000*%
%ADD24RoundRect,0.237500X-0.250000X-0.237500X0.250000X-0.237500X0.250000X0.237500X-0.250000X0.237500X0*%
%ADD25RoundRect,0.250000X-0.350000X-0.450000X0.350000X-0.450000X0.350000X0.450000X-0.350000X0.450000X0*%
%ADD26RoundRect,0.160000X-0.197500X-0.160000X0.197500X-0.160000X0.197500X0.160000X-0.197500X0.160000X0*%
%ADD27RoundRect,0.200000X-0.200000X-0.275000X0.200000X-0.275000X0.200000X0.275000X-0.200000X0.275000X0*%
%ADD28RoundRect,0.250001X-0.462499X-0.849999X0.462499X-0.849999X0.462499X0.849999X-0.462499X0.849999X0*%
%ADD29R,1.000000X1.500000*%
%ADD30RoundRect,0.050800X-0.975000X-0.600000X0.975000X-0.600000X0.975000X0.600000X-0.975000X0.600000X0*%
%ADD31RoundRect,0.050800X-0.975000X-0.800000X0.975000X-0.800000X0.975000X0.800000X-0.975000X0.800000X0*%
%ADD32RoundRect,0.050800X-0.400000X-0.700000X0.400000X-0.700000X0.400000X0.700000X-0.400000X0.700000X0*%
%ADD33R,1.700000X1.700000*%
%ADD34O,1.700000X1.700000*%
%ADD35C,1.150000*%
%ADD36RoundRect,0.250000X-0.750000X-0.400000X0.750000X-0.400000X0.750000X0.400000X-0.750000X0.400000X0*%
%ADD37O,2.000000X1.300000*%
%ADD38RoundRect,0.237500X-0.287500X-0.237500X0.287500X-0.237500X0.287500X0.237500X-0.287500X0.237500X0*%
%ADD39RoundRect,0.250000X-0.412500X-0.650000X0.412500X-0.650000X0.412500X0.650000X-0.412500X0.650000X0*%
%ADD40RoundRect,0.237500X-0.300000X-0.237500X0.300000X-0.237500X0.300000X0.237500X-0.300000X0.237500X0*%
%ADD41RoundRect,0.155000X-0.212500X-0.155000X0.212500X-0.155000X0.212500X0.155000X-0.212500X0.155000X0*%
%ADD42RoundRect,0.250000X-0.337500X-0.475000X0.337500X-0.475000X0.337500X0.475000X-0.337500X0.475000X0*%
G04 APERTURE END LIST*
D10*
X140975218Y-69457226D02*
X140975218Y-70485321D01*
X140975218Y-70485321D02*
X141035695Y-70606273D01*
X141035695Y-70606273D02*
X141096171Y-70666750D01*
X141096171Y-70666750D02*
X141217123Y-70727226D01*
X141217123Y-70727226D02*
X141459028Y-70727226D01*
X141459028Y-70727226D02*
X141579980Y-70666750D01*
X141579980Y-70666750D02*
X141640457Y-70606273D01*
X141640457Y-70606273D02*
X141700933Y-70485321D01*
X141700933Y-70485321D02*
X141700933Y-69457226D01*
X142970933Y-70727226D02*
X142245218Y-70727226D01*
X142608075Y-70727226D02*
X142608075Y-69457226D01*
X142608075Y-69457226D02*
X142487123Y-69638654D01*
X142487123Y-69638654D02*
X142366171Y-69759607D01*
X142366171Y-69759607D02*
X142245218Y-69820083D01*
X143394266Y-69457226D02*
X144180457Y-69457226D01*
X144180457Y-69457226D02*
X143757123Y-69941035D01*
X143757123Y-69941035D02*
X143938552Y-69941035D01*
X143938552Y-69941035D02*
X144059504Y-70001511D01*
X144059504Y-70001511D02*
X144119980Y-70061988D01*
X144119980Y-70061988D02*
X144180457Y-70182940D01*
X144180457Y-70182940D02*
X144180457Y-70485321D01*
X144180457Y-70485321D02*
X144119980Y-70606273D01*
X144119980Y-70606273D02*
X144059504Y-70666750D01*
X144059504Y-70666750D02*
X143938552Y-70727226D01*
X143938552Y-70727226D02*
X143575695Y-70727226D01*
X143575695Y-70727226D02*
X143454742Y-70666750D01*
X143454742Y-70666750D02*
X143394266Y-70606273D01*
X122900218Y-108327226D02*
X122900218Y-109355321D01*
X122900218Y-109355321D02*
X122960695Y-109476273D01*
X122960695Y-109476273D02*
X123021171Y-109536750D01*
X123021171Y-109536750D02*
X123142123Y-109597226D01*
X123142123Y-109597226D02*
X123384028Y-109597226D01*
X123384028Y-109597226D02*
X123504980Y-109536750D01*
X123504980Y-109536750D02*
X123565457Y-109476273D01*
X123565457Y-109476273D02*
X123625933Y-109355321D01*
X123625933Y-109355321D02*
X123625933Y-108327226D01*
X124895933Y-109597226D02*
X124170218Y-109597226D01*
X124533075Y-109597226D02*
X124533075Y-108327226D01*
X124533075Y-108327226D02*
X124412123Y-108508654D01*
X124412123Y-108508654D02*
X124291171Y-108629607D01*
X124291171Y-108629607D02*
X124170218Y-108690083D01*
X125379742Y-108448178D02*
X125440218Y-108387702D01*
X125440218Y-108387702D02*
X125561171Y-108327226D01*
X125561171Y-108327226D02*
X125863552Y-108327226D01*
X125863552Y-108327226D02*
X125984504Y-108387702D01*
X125984504Y-108387702D02*
X126044980Y-108448178D01*
X126044980Y-108448178D02*
X126105457Y-108569130D01*
X126105457Y-108569130D02*
X126105457Y-108690083D01*
X126105457Y-108690083D02*
X126044980Y-108871511D01*
X126044980Y-108871511D02*
X125319266Y-109597226D01*
X125319266Y-109597226D02*
X126105457Y-109597226D01*
X137467380Y-107677226D02*
X137467380Y-108705321D01*
X137467380Y-108705321D02*
X137527857Y-108826273D01*
X137527857Y-108826273D02*
X137588333Y-108886750D01*
X137588333Y-108886750D02*
X137709285Y-108947226D01*
X137709285Y-108947226D02*
X137951190Y-108947226D01*
X137951190Y-108947226D02*
X138072142Y-108886750D01*
X138072142Y-108886750D02*
X138132619Y-108826273D01*
X138132619Y-108826273D02*
X138193095Y-108705321D01*
X138193095Y-108705321D02*
X138193095Y-107677226D01*
X138858333Y-108947226D02*
X139100237Y-108947226D01*
X139100237Y-108947226D02*
X139221190Y-108886750D01*
X139221190Y-108886750D02*
X139281666Y-108826273D01*
X139281666Y-108826273D02*
X139402618Y-108644845D01*
X139402618Y-108644845D02*
X139463095Y-108402940D01*
X139463095Y-108402940D02*
X139463095Y-107919130D01*
X139463095Y-107919130D02*
X139402618Y-107798178D01*
X139402618Y-107798178D02*
X139342142Y-107737702D01*
X139342142Y-107737702D02*
X139221190Y-107677226D01*
X139221190Y-107677226D02*
X138979285Y-107677226D01*
X138979285Y-107677226D02*
X138858333Y-107737702D01*
X138858333Y-107737702D02*
X138797856Y-107798178D01*
X138797856Y-107798178D02*
X138737380Y-107919130D01*
X138737380Y-107919130D02*
X138737380Y-108221511D01*
X138737380Y-108221511D02*
X138797856Y-108342464D01*
X138797856Y-108342464D02*
X138858333Y-108402940D01*
X138858333Y-108402940D02*
X138979285Y-108463416D01*
X138979285Y-108463416D02*
X139221190Y-108463416D01*
X139221190Y-108463416D02*
X139342142Y-108402940D01*
X139342142Y-108402940D02*
X139402618Y-108342464D01*
X139402618Y-108342464D02*
X139463095Y-108221511D01*
X141685695Y-102182319D02*
X141685695Y-102991842D01*
X141685695Y-102991842D02*
X141733314Y-103087080D01*
X141733314Y-103087080D02*
X141780933Y-103134700D01*
X141780933Y-103134700D02*
X141876171Y-103182319D01*
X141876171Y-103182319D02*
X142066647Y-103182319D01*
X142066647Y-103182319D02*
X142161885Y-103134700D01*
X142161885Y-103134700D02*
X142209504Y-103087080D01*
X142209504Y-103087080D02*
X142257123Y-102991842D01*
X142257123Y-102991842D02*
X142257123Y-102182319D01*
X143209504Y-102182319D02*
X142733314Y-102182319D01*
X142733314Y-102182319D02*
X142685695Y-102658509D01*
X142685695Y-102658509D02*
X142733314Y-102610890D01*
X142733314Y-102610890D02*
X142828552Y-102563271D01*
X142828552Y-102563271D02*
X143066647Y-102563271D01*
X143066647Y-102563271D02*
X143161885Y-102610890D01*
X143161885Y-102610890D02*
X143209504Y-102658509D01*
X143209504Y-102658509D02*
X143257123Y-102753747D01*
X143257123Y-102753747D02*
X143257123Y-102991842D01*
X143257123Y-102991842D02*
X143209504Y-103087080D01*
X143209504Y-103087080D02*
X143161885Y-103134700D01*
X143161885Y-103134700D02*
X143066647Y-103182319D01*
X143066647Y-103182319D02*
X142828552Y-103182319D01*
X142828552Y-103182319D02*
X142733314Y-103134700D01*
X142733314Y-103134700D02*
X142685695Y-103087080D01*
X103660695Y-108557319D02*
X103660695Y-109366842D01*
X103660695Y-109366842D02*
X103708314Y-109462080D01*
X103708314Y-109462080D02*
X103755933Y-109509700D01*
X103755933Y-109509700D02*
X103851171Y-109557319D01*
X103851171Y-109557319D02*
X104041647Y-109557319D01*
X104041647Y-109557319D02*
X104136885Y-109509700D01*
X104136885Y-109509700D02*
X104184504Y-109462080D01*
X104184504Y-109462080D02*
X104232123Y-109366842D01*
X104232123Y-109366842D02*
X104232123Y-108557319D01*
X105136885Y-108890652D02*
X105136885Y-109557319D01*
X104898790Y-108509700D02*
X104660695Y-109223985D01*
X104660695Y-109223985D02*
X105279742Y-109223985D01*
X141685695Y-97557319D02*
X141685695Y-98366842D01*
X141685695Y-98366842D02*
X141733314Y-98462080D01*
X141733314Y-98462080D02*
X141780933Y-98509700D01*
X141780933Y-98509700D02*
X141876171Y-98557319D01*
X141876171Y-98557319D02*
X142066647Y-98557319D01*
X142066647Y-98557319D02*
X142161885Y-98509700D01*
X142161885Y-98509700D02*
X142209504Y-98462080D01*
X142209504Y-98462080D02*
X142257123Y-98366842D01*
X142257123Y-98366842D02*
X142257123Y-97557319D01*
X142638076Y-97557319D02*
X143257123Y-97557319D01*
X143257123Y-97557319D02*
X142923790Y-97938271D01*
X142923790Y-97938271D02*
X143066647Y-97938271D01*
X143066647Y-97938271D02*
X143161885Y-97985890D01*
X143161885Y-97985890D02*
X143209504Y-98033509D01*
X143209504Y-98033509D02*
X143257123Y-98128747D01*
X143257123Y-98128747D02*
X143257123Y-98366842D01*
X143257123Y-98366842D02*
X143209504Y-98462080D01*
X143209504Y-98462080D02*
X143161885Y-98509700D01*
X143161885Y-98509700D02*
X143066647Y-98557319D01*
X143066647Y-98557319D02*
X142780933Y-98557319D01*
X142780933Y-98557319D02*
X142685695Y-98509700D01*
X142685695Y-98509700D02*
X142638076Y-98462080D01*
X111609505Y-85264319D02*
X112180933Y-85264319D01*
X111895219Y-86264319D02*
X111895219Y-85264319D01*
X112514267Y-86264319D02*
X112514267Y-85264319D01*
X112514267Y-85264319D02*
X112895219Y-85264319D01*
X112895219Y-85264319D02*
X112990457Y-85311938D01*
X112990457Y-85311938D02*
X113038076Y-85359557D01*
X113038076Y-85359557D02*
X113085695Y-85454795D01*
X113085695Y-85454795D02*
X113085695Y-85597652D01*
X113085695Y-85597652D02*
X113038076Y-85692890D01*
X113038076Y-85692890D02*
X112990457Y-85740509D01*
X112990457Y-85740509D02*
X112895219Y-85788128D01*
X112895219Y-85788128D02*
X112514267Y-85788128D01*
X113419029Y-85264319D02*
X114038076Y-85264319D01*
X114038076Y-85264319D02*
X113704743Y-85645271D01*
X113704743Y-85645271D02*
X113847600Y-85645271D01*
X113847600Y-85645271D02*
X113942838Y-85692890D01*
X113942838Y-85692890D02*
X113990457Y-85740509D01*
X113990457Y-85740509D02*
X114038076Y-85835747D01*
X114038076Y-85835747D02*
X114038076Y-86073842D01*
X114038076Y-86073842D02*
X113990457Y-86169080D01*
X113990457Y-86169080D02*
X113942838Y-86216700D01*
X113942838Y-86216700D02*
X113847600Y-86264319D01*
X113847600Y-86264319D02*
X113561886Y-86264319D01*
X113561886Y-86264319D02*
X113466648Y-86216700D01*
X113466648Y-86216700D02*
X113419029Y-86169080D01*
X114895219Y-85264319D02*
X114704743Y-85264319D01*
X114704743Y-85264319D02*
X114609505Y-85311938D01*
X114609505Y-85311938D02*
X114561886Y-85359557D01*
X114561886Y-85359557D02*
X114466648Y-85502414D01*
X114466648Y-85502414D02*
X114419029Y-85692890D01*
X114419029Y-85692890D02*
X114419029Y-86073842D01*
X114419029Y-86073842D02*
X114466648Y-86169080D01*
X114466648Y-86169080D02*
X114514267Y-86216700D01*
X114514267Y-86216700D02*
X114609505Y-86264319D01*
X114609505Y-86264319D02*
X114799981Y-86264319D01*
X114799981Y-86264319D02*
X114895219Y-86216700D01*
X114895219Y-86216700D02*
X114942838Y-86169080D01*
X114942838Y-86169080D02*
X114990457Y-86073842D01*
X114990457Y-86073842D02*
X114990457Y-85835747D01*
X114990457Y-85835747D02*
X114942838Y-85740509D01*
X114942838Y-85740509D02*
X114895219Y-85692890D01*
X114895219Y-85692890D02*
X114799981Y-85645271D01*
X114799981Y-85645271D02*
X114609505Y-85645271D01*
X114609505Y-85645271D02*
X114514267Y-85692890D01*
X114514267Y-85692890D02*
X114466648Y-85740509D01*
X114466648Y-85740509D02*
X114419029Y-85835747D01*
X111609505Y-82214319D02*
X112180933Y-82214319D01*
X111895219Y-83214319D02*
X111895219Y-82214319D01*
X112514267Y-83214319D02*
X112514267Y-82214319D01*
X112514267Y-82214319D02*
X112895219Y-82214319D01*
X112895219Y-82214319D02*
X112990457Y-82261938D01*
X112990457Y-82261938D02*
X113038076Y-82309557D01*
X113038076Y-82309557D02*
X113085695Y-82404795D01*
X113085695Y-82404795D02*
X113085695Y-82547652D01*
X113085695Y-82547652D02*
X113038076Y-82642890D01*
X113038076Y-82642890D02*
X112990457Y-82690509D01*
X112990457Y-82690509D02*
X112895219Y-82738128D01*
X112895219Y-82738128D02*
X112514267Y-82738128D01*
X113419029Y-82214319D02*
X114038076Y-82214319D01*
X114038076Y-82214319D02*
X113704743Y-82595271D01*
X113704743Y-82595271D02*
X113847600Y-82595271D01*
X113847600Y-82595271D02*
X113942838Y-82642890D01*
X113942838Y-82642890D02*
X113990457Y-82690509D01*
X113990457Y-82690509D02*
X114038076Y-82785747D01*
X114038076Y-82785747D02*
X114038076Y-83023842D01*
X114038076Y-83023842D02*
X113990457Y-83119080D01*
X113990457Y-83119080D02*
X113942838Y-83166700D01*
X113942838Y-83166700D02*
X113847600Y-83214319D01*
X113847600Y-83214319D02*
X113561886Y-83214319D01*
X113561886Y-83214319D02*
X113466648Y-83166700D01*
X113466648Y-83166700D02*
X113419029Y-83119080D01*
X114942838Y-82214319D02*
X114466648Y-82214319D01*
X114466648Y-82214319D02*
X114419029Y-82690509D01*
X114419029Y-82690509D02*
X114466648Y-82642890D01*
X114466648Y-82642890D02*
X114561886Y-82595271D01*
X114561886Y-82595271D02*
X114799981Y-82595271D01*
X114799981Y-82595271D02*
X114895219Y-82642890D01*
X114895219Y-82642890D02*
X114942838Y-82690509D01*
X114942838Y-82690509D02*
X114990457Y-82785747D01*
X114990457Y-82785747D02*
X114990457Y-83023842D01*
X114990457Y-83023842D02*
X114942838Y-83119080D01*
X114942838Y-83119080D02*
X114895219Y-83166700D01*
X114895219Y-83166700D02*
X114799981Y-83214319D01*
X114799981Y-83214319D02*
X114561886Y-83214319D01*
X114561886Y-83214319D02*
X114466648Y-83166700D01*
X114466648Y-83166700D02*
X114419029Y-83119080D01*
X111609505Y-79164319D02*
X112180933Y-79164319D01*
X111895219Y-80164319D02*
X111895219Y-79164319D01*
X112514267Y-80164319D02*
X112514267Y-79164319D01*
X112514267Y-79164319D02*
X112895219Y-79164319D01*
X112895219Y-79164319D02*
X112990457Y-79211938D01*
X112990457Y-79211938D02*
X113038076Y-79259557D01*
X113038076Y-79259557D02*
X113085695Y-79354795D01*
X113085695Y-79354795D02*
X113085695Y-79497652D01*
X113085695Y-79497652D02*
X113038076Y-79592890D01*
X113038076Y-79592890D02*
X112990457Y-79640509D01*
X112990457Y-79640509D02*
X112895219Y-79688128D01*
X112895219Y-79688128D02*
X112514267Y-79688128D01*
X113419029Y-79164319D02*
X114038076Y-79164319D01*
X114038076Y-79164319D02*
X113704743Y-79545271D01*
X113704743Y-79545271D02*
X113847600Y-79545271D01*
X113847600Y-79545271D02*
X113942838Y-79592890D01*
X113942838Y-79592890D02*
X113990457Y-79640509D01*
X113990457Y-79640509D02*
X114038076Y-79735747D01*
X114038076Y-79735747D02*
X114038076Y-79973842D01*
X114038076Y-79973842D02*
X113990457Y-80069080D01*
X113990457Y-80069080D02*
X113942838Y-80116700D01*
X113942838Y-80116700D02*
X113847600Y-80164319D01*
X113847600Y-80164319D02*
X113561886Y-80164319D01*
X113561886Y-80164319D02*
X113466648Y-80116700D01*
X113466648Y-80116700D02*
X113419029Y-80069080D01*
X114895219Y-79497652D02*
X114895219Y-80164319D01*
X114657124Y-79116700D02*
X114419029Y-79830985D01*
X114419029Y-79830985D02*
X115038076Y-79830985D01*
X111609505Y-76114319D02*
X112180933Y-76114319D01*
X111895219Y-77114319D02*
X111895219Y-76114319D01*
X112514267Y-77114319D02*
X112514267Y-76114319D01*
X112514267Y-76114319D02*
X112895219Y-76114319D01*
X112895219Y-76114319D02*
X112990457Y-76161938D01*
X112990457Y-76161938D02*
X113038076Y-76209557D01*
X113038076Y-76209557D02*
X113085695Y-76304795D01*
X113085695Y-76304795D02*
X113085695Y-76447652D01*
X113085695Y-76447652D02*
X113038076Y-76542890D01*
X113038076Y-76542890D02*
X112990457Y-76590509D01*
X112990457Y-76590509D02*
X112895219Y-76638128D01*
X112895219Y-76638128D02*
X112514267Y-76638128D01*
X113419029Y-76114319D02*
X114038076Y-76114319D01*
X114038076Y-76114319D02*
X113704743Y-76495271D01*
X113704743Y-76495271D02*
X113847600Y-76495271D01*
X113847600Y-76495271D02*
X113942838Y-76542890D01*
X113942838Y-76542890D02*
X113990457Y-76590509D01*
X113990457Y-76590509D02*
X114038076Y-76685747D01*
X114038076Y-76685747D02*
X114038076Y-76923842D01*
X114038076Y-76923842D02*
X113990457Y-77019080D01*
X113990457Y-77019080D02*
X113942838Y-77066700D01*
X113942838Y-77066700D02*
X113847600Y-77114319D01*
X113847600Y-77114319D02*
X113561886Y-77114319D01*
X113561886Y-77114319D02*
X113466648Y-77066700D01*
X113466648Y-77066700D02*
X113419029Y-77019080D01*
X114371410Y-76114319D02*
X114990457Y-76114319D01*
X114990457Y-76114319D02*
X114657124Y-76495271D01*
X114657124Y-76495271D02*
X114799981Y-76495271D01*
X114799981Y-76495271D02*
X114895219Y-76542890D01*
X114895219Y-76542890D02*
X114942838Y-76590509D01*
X114942838Y-76590509D02*
X114990457Y-76685747D01*
X114990457Y-76685747D02*
X114990457Y-76923842D01*
X114990457Y-76923842D02*
X114942838Y-77019080D01*
X114942838Y-77019080D02*
X114895219Y-77066700D01*
X114895219Y-77066700D02*
X114799981Y-77114319D01*
X114799981Y-77114319D02*
X114514267Y-77114319D01*
X114514267Y-77114319D02*
X114419029Y-77066700D01*
X114419029Y-77066700D02*
X114371410Y-77019080D01*
X111609505Y-73064319D02*
X112180933Y-73064319D01*
X111895219Y-74064319D02*
X111895219Y-73064319D01*
X112514267Y-74064319D02*
X112514267Y-73064319D01*
X112514267Y-73064319D02*
X112895219Y-73064319D01*
X112895219Y-73064319D02*
X112990457Y-73111938D01*
X112990457Y-73111938D02*
X113038076Y-73159557D01*
X113038076Y-73159557D02*
X113085695Y-73254795D01*
X113085695Y-73254795D02*
X113085695Y-73397652D01*
X113085695Y-73397652D02*
X113038076Y-73492890D01*
X113038076Y-73492890D02*
X112990457Y-73540509D01*
X112990457Y-73540509D02*
X112895219Y-73588128D01*
X112895219Y-73588128D02*
X112514267Y-73588128D01*
X113419029Y-73064319D02*
X114038076Y-73064319D01*
X114038076Y-73064319D02*
X113704743Y-73445271D01*
X113704743Y-73445271D02*
X113847600Y-73445271D01*
X113847600Y-73445271D02*
X113942838Y-73492890D01*
X113942838Y-73492890D02*
X113990457Y-73540509D01*
X113990457Y-73540509D02*
X114038076Y-73635747D01*
X114038076Y-73635747D02*
X114038076Y-73873842D01*
X114038076Y-73873842D02*
X113990457Y-73969080D01*
X113990457Y-73969080D02*
X113942838Y-74016700D01*
X113942838Y-74016700D02*
X113847600Y-74064319D01*
X113847600Y-74064319D02*
X113561886Y-74064319D01*
X113561886Y-74064319D02*
X113466648Y-74016700D01*
X113466648Y-74016700D02*
X113419029Y-73969080D01*
X114419029Y-73159557D02*
X114466648Y-73111938D01*
X114466648Y-73111938D02*
X114561886Y-73064319D01*
X114561886Y-73064319D02*
X114799981Y-73064319D01*
X114799981Y-73064319D02*
X114895219Y-73111938D01*
X114895219Y-73111938D02*
X114942838Y-73159557D01*
X114942838Y-73159557D02*
X114990457Y-73254795D01*
X114990457Y-73254795D02*
X114990457Y-73350033D01*
X114990457Y-73350033D02*
X114942838Y-73492890D01*
X114942838Y-73492890D02*
X114371410Y-74064319D01*
X114371410Y-74064319D02*
X114990457Y-74064319D01*
X111609505Y-70014319D02*
X112180933Y-70014319D01*
X111895219Y-71014319D02*
X111895219Y-70014319D01*
X112514267Y-71014319D02*
X112514267Y-70014319D01*
X112514267Y-70014319D02*
X112895219Y-70014319D01*
X112895219Y-70014319D02*
X112990457Y-70061938D01*
X112990457Y-70061938D02*
X113038076Y-70109557D01*
X113038076Y-70109557D02*
X113085695Y-70204795D01*
X113085695Y-70204795D02*
X113085695Y-70347652D01*
X113085695Y-70347652D02*
X113038076Y-70442890D01*
X113038076Y-70442890D02*
X112990457Y-70490509D01*
X112990457Y-70490509D02*
X112895219Y-70538128D01*
X112895219Y-70538128D02*
X112514267Y-70538128D01*
X113419029Y-70014319D02*
X114038076Y-70014319D01*
X114038076Y-70014319D02*
X113704743Y-70395271D01*
X113704743Y-70395271D02*
X113847600Y-70395271D01*
X113847600Y-70395271D02*
X113942838Y-70442890D01*
X113942838Y-70442890D02*
X113990457Y-70490509D01*
X113990457Y-70490509D02*
X114038076Y-70585747D01*
X114038076Y-70585747D02*
X114038076Y-70823842D01*
X114038076Y-70823842D02*
X113990457Y-70919080D01*
X113990457Y-70919080D02*
X113942838Y-70966700D01*
X113942838Y-70966700D02*
X113847600Y-71014319D01*
X113847600Y-71014319D02*
X113561886Y-71014319D01*
X113561886Y-71014319D02*
X113466648Y-70966700D01*
X113466648Y-70966700D02*
X113419029Y-70919080D01*
X114990457Y-71014319D02*
X114419029Y-71014319D01*
X114704743Y-71014319D02*
X114704743Y-70014319D01*
X114704743Y-70014319D02*
X114609505Y-70157176D01*
X114609505Y-70157176D02*
X114514267Y-70252414D01*
X114514267Y-70252414D02*
X114419029Y-70300033D01*
X108559505Y-88314319D02*
X109130933Y-88314319D01*
X108845219Y-89314319D02*
X108845219Y-88314319D01*
X109464267Y-89314319D02*
X109464267Y-88314319D01*
X109464267Y-88314319D02*
X109845219Y-88314319D01*
X109845219Y-88314319D02*
X109940457Y-88361938D01*
X109940457Y-88361938D02*
X109988076Y-88409557D01*
X109988076Y-88409557D02*
X110035695Y-88504795D01*
X110035695Y-88504795D02*
X110035695Y-88647652D01*
X110035695Y-88647652D02*
X109988076Y-88742890D01*
X109988076Y-88742890D02*
X109940457Y-88790509D01*
X109940457Y-88790509D02*
X109845219Y-88838128D01*
X109845219Y-88838128D02*
X109464267Y-88838128D01*
X110369029Y-88314319D02*
X110988076Y-88314319D01*
X110988076Y-88314319D02*
X110654743Y-88695271D01*
X110654743Y-88695271D02*
X110797600Y-88695271D01*
X110797600Y-88695271D02*
X110892838Y-88742890D01*
X110892838Y-88742890D02*
X110940457Y-88790509D01*
X110940457Y-88790509D02*
X110988076Y-88885747D01*
X110988076Y-88885747D02*
X110988076Y-89123842D01*
X110988076Y-89123842D02*
X110940457Y-89219080D01*
X110940457Y-89219080D02*
X110892838Y-89266700D01*
X110892838Y-89266700D02*
X110797600Y-89314319D01*
X110797600Y-89314319D02*
X110511886Y-89314319D01*
X110511886Y-89314319D02*
X110416648Y-89266700D01*
X110416648Y-89266700D02*
X110369029Y-89219080D01*
X111607124Y-88314319D02*
X111702362Y-88314319D01*
X111702362Y-88314319D02*
X111797600Y-88361938D01*
X111797600Y-88361938D02*
X111845219Y-88409557D01*
X111845219Y-88409557D02*
X111892838Y-88504795D01*
X111892838Y-88504795D02*
X111940457Y-88695271D01*
X111940457Y-88695271D02*
X111940457Y-88933366D01*
X111940457Y-88933366D02*
X111892838Y-89123842D01*
X111892838Y-89123842D02*
X111845219Y-89219080D01*
X111845219Y-89219080D02*
X111797600Y-89266700D01*
X111797600Y-89266700D02*
X111702362Y-89314319D01*
X111702362Y-89314319D02*
X111607124Y-89314319D01*
X111607124Y-89314319D02*
X111511886Y-89266700D01*
X111511886Y-89266700D02*
X111464267Y-89219080D01*
X111464267Y-89219080D02*
X111416648Y-89123842D01*
X111416648Y-89123842D02*
X111369029Y-88933366D01*
X111369029Y-88933366D02*
X111369029Y-88695271D01*
X111369029Y-88695271D02*
X111416648Y-88504795D01*
X111416648Y-88504795D02*
X111464267Y-88409557D01*
X111464267Y-88409557D02*
X111511886Y-88361938D01*
X111511886Y-88361938D02*
X111607124Y-88314319D01*
X108559505Y-85264319D02*
X109130933Y-85264319D01*
X108845219Y-86264319D02*
X108845219Y-85264319D01*
X109464267Y-86264319D02*
X109464267Y-85264319D01*
X109464267Y-85264319D02*
X109845219Y-85264319D01*
X109845219Y-85264319D02*
X109940457Y-85311938D01*
X109940457Y-85311938D02*
X109988076Y-85359557D01*
X109988076Y-85359557D02*
X110035695Y-85454795D01*
X110035695Y-85454795D02*
X110035695Y-85597652D01*
X110035695Y-85597652D02*
X109988076Y-85692890D01*
X109988076Y-85692890D02*
X109940457Y-85740509D01*
X109940457Y-85740509D02*
X109845219Y-85788128D01*
X109845219Y-85788128D02*
X109464267Y-85788128D01*
X110416648Y-85359557D02*
X110464267Y-85311938D01*
X110464267Y-85311938D02*
X110559505Y-85264319D01*
X110559505Y-85264319D02*
X110797600Y-85264319D01*
X110797600Y-85264319D02*
X110892838Y-85311938D01*
X110892838Y-85311938D02*
X110940457Y-85359557D01*
X110940457Y-85359557D02*
X110988076Y-85454795D01*
X110988076Y-85454795D02*
X110988076Y-85550033D01*
X110988076Y-85550033D02*
X110940457Y-85692890D01*
X110940457Y-85692890D02*
X110369029Y-86264319D01*
X110369029Y-86264319D02*
X110988076Y-86264319D01*
X111464267Y-86264319D02*
X111654743Y-86264319D01*
X111654743Y-86264319D02*
X111749981Y-86216700D01*
X111749981Y-86216700D02*
X111797600Y-86169080D01*
X111797600Y-86169080D02*
X111892838Y-86026223D01*
X111892838Y-86026223D02*
X111940457Y-85835747D01*
X111940457Y-85835747D02*
X111940457Y-85454795D01*
X111940457Y-85454795D02*
X111892838Y-85359557D01*
X111892838Y-85359557D02*
X111845219Y-85311938D01*
X111845219Y-85311938D02*
X111749981Y-85264319D01*
X111749981Y-85264319D02*
X111559505Y-85264319D01*
X111559505Y-85264319D02*
X111464267Y-85311938D01*
X111464267Y-85311938D02*
X111416648Y-85359557D01*
X111416648Y-85359557D02*
X111369029Y-85454795D01*
X111369029Y-85454795D02*
X111369029Y-85692890D01*
X111369029Y-85692890D02*
X111416648Y-85788128D01*
X111416648Y-85788128D02*
X111464267Y-85835747D01*
X111464267Y-85835747D02*
X111559505Y-85883366D01*
X111559505Y-85883366D02*
X111749981Y-85883366D01*
X111749981Y-85883366D02*
X111845219Y-85835747D01*
X111845219Y-85835747D02*
X111892838Y-85788128D01*
X111892838Y-85788128D02*
X111940457Y-85692890D01*
X108559505Y-82214319D02*
X109130933Y-82214319D01*
X108845219Y-83214319D02*
X108845219Y-82214319D01*
X109464267Y-83214319D02*
X109464267Y-82214319D01*
X109464267Y-82214319D02*
X109845219Y-82214319D01*
X109845219Y-82214319D02*
X109940457Y-82261938D01*
X109940457Y-82261938D02*
X109988076Y-82309557D01*
X109988076Y-82309557D02*
X110035695Y-82404795D01*
X110035695Y-82404795D02*
X110035695Y-82547652D01*
X110035695Y-82547652D02*
X109988076Y-82642890D01*
X109988076Y-82642890D02*
X109940457Y-82690509D01*
X109940457Y-82690509D02*
X109845219Y-82738128D01*
X109845219Y-82738128D02*
X109464267Y-82738128D01*
X110416648Y-82309557D02*
X110464267Y-82261938D01*
X110464267Y-82261938D02*
X110559505Y-82214319D01*
X110559505Y-82214319D02*
X110797600Y-82214319D01*
X110797600Y-82214319D02*
X110892838Y-82261938D01*
X110892838Y-82261938D02*
X110940457Y-82309557D01*
X110940457Y-82309557D02*
X110988076Y-82404795D01*
X110988076Y-82404795D02*
X110988076Y-82500033D01*
X110988076Y-82500033D02*
X110940457Y-82642890D01*
X110940457Y-82642890D02*
X110369029Y-83214319D01*
X110369029Y-83214319D02*
X110988076Y-83214319D01*
X111559505Y-82642890D02*
X111464267Y-82595271D01*
X111464267Y-82595271D02*
X111416648Y-82547652D01*
X111416648Y-82547652D02*
X111369029Y-82452414D01*
X111369029Y-82452414D02*
X111369029Y-82404795D01*
X111369029Y-82404795D02*
X111416648Y-82309557D01*
X111416648Y-82309557D02*
X111464267Y-82261938D01*
X111464267Y-82261938D02*
X111559505Y-82214319D01*
X111559505Y-82214319D02*
X111749981Y-82214319D01*
X111749981Y-82214319D02*
X111845219Y-82261938D01*
X111845219Y-82261938D02*
X111892838Y-82309557D01*
X111892838Y-82309557D02*
X111940457Y-82404795D01*
X111940457Y-82404795D02*
X111940457Y-82452414D01*
X111940457Y-82452414D02*
X111892838Y-82547652D01*
X111892838Y-82547652D02*
X111845219Y-82595271D01*
X111845219Y-82595271D02*
X111749981Y-82642890D01*
X111749981Y-82642890D02*
X111559505Y-82642890D01*
X111559505Y-82642890D02*
X111464267Y-82690509D01*
X111464267Y-82690509D02*
X111416648Y-82738128D01*
X111416648Y-82738128D02*
X111369029Y-82833366D01*
X111369029Y-82833366D02*
X111369029Y-83023842D01*
X111369029Y-83023842D02*
X111416648Y-83119080D01*
X111416648Y-83119080D02*
X111464267Y-83166700D01*
X111464267Y-83166700D02*
X111559505Y-83214319D01*
X111559505Y-83214319D02*
X111749981Y-83214319D01*
X111749981Y-83214319D02*
X111845219Y-83166700D01*
X111845219Y-83166700D02*
X111892838Y-83119080D01*
X111892838Y-83119080D02*
X111940457Y-83023842D01*
X111940457Y-83023842D02*
X111940457Y-82833366D01*
X111940457Y-82833366D02*
X111892838Y-82738128D01*
X111892838Y-82738128D02*
X111845219Y-82690509D01*
X111845219Y-82690509D02*
X111749981Y-82642890D01*
X108559505Y-79164319D02*
X109130933Y-79164319D01*
X108845219Y-80164319D02*
X108845219Y-79164319D01*
X109464267Y-80164319D02*
X109464267Y-79164319D01*
X109464267Y-79164319D02*
X109845219Y-79164319D01*
X109845219Y-79164319D02*
X109940457Y-79211938D01*
X109940457Y-79211938D02*
X109988076Y-79259557D01*
X109988076Y-79259557D02*
X110035695Y-79354795D01*
X110035695Y-79354795D02*
X110035695Y-79497652D01*
X110035695Y-79497652D02*
X109988076Y-79592890D01*
X109988076Y-79592890D02*
X109940457Y-79640509D01*
X109940457Y-79640509D02*
X109845219Y-79688128D01*
X109845219Y-79688128D02*
X109464267Y-79688128D01*
X110416648Y-79259557D02*
X110464267Y-79211938D01*
X110464267Y-79211938D02*
X110559505Y-79164319D01*
X110559505Y-79164319D02*
X110797600Y-79164319D01*
X110797600Y-79164319D02*
X110892838Y-79211938D01*
X110892838Y-79211938D02*
X110940457Y-79259557D01*
X110940457Y-79259557D02*
X110988076Y-79354795D01*
X110988076Y-79354795D02*
X110988076Y-79450033D01*
X110988076Y-79450033D02*
X110940457Y-79592890D01*
X110940457Y-79592890D02*
X110369029Y-80164319D01*
X110369029Y-80164319D02*
X110988076Y-80164319D01*
X111845219Y-79164319D02*
X111654743Y-79164319D01*
X111654743Y-79164319D02*
X111559505Y-79211938D01*
X111559505Y-79211938D02*
X111511886Y-79259557D01*
X111511886Y-79259557D02*
X111416648Y-79402414D01*
X111416648Y-79402414D02*
X111369029Y-79592890D01*
X111369029Y-79592890D02*
X111369029Y-79973842D01*
X111369029Y-79973842D02*
X111416648Y-80069080D01*
X111416648Y-80069080D02*
X111464267Y-80116700D01*
X111464267Y-80116700D02*
X111559505Y-80164319D01*
X111559505Y-80164319D02*
X111749981Y-80164319D01*
X111749981Y-80164319D02*
X111845219Y-80116700D01*
X111845219Y-80116700D02*
X111892838Y-80069080D01*
X111892838Y-80069080D02*
X111940457Y-79973842D01*
X111940457Y-79973842D02*
X111940457Y-79735747D01*
X111940457Y-79735747D02*
X111892838Y-79640509D01*
X111892838Y-79640509D02*
X111845219Y-79592890D01*
X111845219Y-79592890D02*
X111749981Y-79545271D01*
X111749981Y-79545271D02*
X111559505Y-79545271D01*
X111559505Y-79545271D02*
X111464267Y-79592890D01*
X111464267Y-79592890D02*
X111416648Y-79640509D01*
X111416648Y-79640509D02*
X111369029Y-79735747D01*
X108559505Y-76114319D02*
X109130933Y-76114319D01*
X108845219Y-77114319D02*
X108845219Y-76114319D01*
X109464267Y-77114319D02*
X109464267Y-76114319D01*
X109464267Y-76114319D02*
X109845219Y-76114319D01*
X109845219Y-76114319D02*
X109940457Y-76161938D01*
X109940457Y-76161938D02*
X109988076Y-76209557D01*
X109988076Y-76209557D02*
X110035695Y-76304795D01*
X110035695Y-76304795D02*
X110035695Y-76447652D01*
X110035695Y-76447652D02*
X109988076Y-76542890D01*
X109988076Y-76542890D02*
X109940457Y-76590509D01*
X109940457Y-76590509D02*
X109845219Y-76638128D01*
X109845219Y-76638128D02*
X109464267Y-76638128D01*
X110416648Y-76209557D02*
X110464267Y-76161938D01*
X110464267Y-76161938D02*
X110559505Y-76114319D01*
X110559505Y-76114319D02*
X110797600Y-76114319D01*
X110797600Y-76114319D02*
X110892838Y-76161938D01*
X110892838Y-76161938D02*
X110940457Y-76209557D01*
X110940457Y-76209557D02*
X110988076Y-76304795D01*
X110988076Y-76304795D02*
X110988076Y-76400033D01*
X110988076Y-76400033D02*
X110940457Y-76542890D01*
X110940457Y-76542890D02*
X110369029Y-77114319D01*
X110369029Y-77114319D02*
X110988076Y-77114319D01*
X111892838Y-76114319D02*
X111416648Y-76114319D01*
X111416648Y-76114319D02*
X111369029Y-76590509D01*
X111369029Y-76590509D02*
X111416648Y-76542890D01*
X111416648Y-76542890D02*
X111511886Y-76495271D01*
X111511886Y-76495271D02*
X111749981Y-76495271D01*
X111749981Y-76495271D02*
X111845219Y-76542890D01*
X111845219Y-76542890D02*
X111892838Y-76590509D01*
X111892838Y-76590509D02*
X111940457Y-76685747D01*
X111940457Y-76685747D02*
X111940457Y-76923842D01*
X111940457Y-76923842D02*
X111892838Y-77019080D01*
X111892838Y-77019080D02*
X111845219Y-77066700D01*
X111845219Y-77066700D02*
X111749981Y-77114319D01*
X111749981Y-77114319D02*
X111511886Y-77114319D01*
X111511886Y-77114319D02*
X111416648Y-77066700D01*
X111416648Y-77066700D02*
X111369029Y-77019080D01*
X108559505Y-73064319D02*
X109130933Y-73064319D01*
X108845219Y-74064319D02*
X108845219Y-73064319D01*
X109464267Y-74064319D02*
X109464267Y-73064319D01*
X109464267Y-73064319D02*
X109845219Y-73064319D01*
X109845219Y-73064319D02*
X109940457Y-73111938D01*
X109940457Y-73111938D02*
X109988076Y-73159557D01*
X109988076Y-73159557D02*
X110035695Y-73254795D01*
X110035695Y-73254795D02*
X110035695Y-73397652D01*
X110035695Y-73397652D02*
X109988076Y-73492890D01*
X109988076Y-73492890D02*
X109940457Y-73540509D01*
X109940457Y-73540509D02*
X109845219Y-73588128D01*
X109845219Y-73588128D02*
X109464267Y-73588128D01*
X110416648Y-73159557D02*
X110464267Y-73111938D01*
X110464267Y-73111938D02*
X110559505Y-73064319D01*
X110559505Y-73064319D02*
X110797600Y-73064319D01*
X110797600Y-73064319D02*
X110892838Y-73111938D01*
X110892838Y-73111938D02*
X110940457Y-73159557D01*
X110940457Y-73159557D02*
X110988076Y-73254795D01*
X110988076Y-73254795D02*
X110988076Y-73350033D01*
X110988076Y-73350033D02*
X110940457Y-73492890D01*
X110940457Y-73492890D02*
X110369029Y-74064319D01*
X110369029Y-74064319D02*
X110988076Y-74064319D01*
X111845219Y-73397652D02*
X111845219Y-74064319D01*
X111607124Y-73016700D02*
X111369029Y-73730985D01*
X111369029Y-73730985D02*
X111988076Y-73730985D01*
X108559505Y-70014319D02*
X109130933Y-70014319D01*
X108845219Y-71014319D02*
X108845219Y-70014319D01*
X109464267Y-71014319D02*
X109464267Y-70014319D01*
X109464267Y-70014319D02*
X109845219Y-70014319D01*
X109845219Y-70014319D02*
X109940457Y-70061938D01*
X109940457Y-70061938D02*
X109988076Y-70109557D01*
X109988076Y-70109557D02*
X110035695Y-70204795D01*
X110035695Y-70204795D02*
X110035695Y-70347652D01*
X110035695Y-70347652D02*
X109988076Y-70442890D01*
X109988076Y-70442890D02*
X109940457Y-70490509D01*
X109940457Y-70490509D02*
X109845219Y-70538128D01*
X109845219Y-70538128D02*
X109464267Y-70538128D01*
X110416648Y-70109557D02*
X110464267Y-70061938D01*
X110464267Y-70061938D02*
X110559505Y-70014319D01*
X110559505Y-70014319D02*
X110797600Y-70014319D01*
X110797600Y-70014319D02*
X110892838Y-70061938D01*
X110892838Y-70061938D02*
X110940457Y-70109557D01*
X110940457Y-70109557D02*
X110988076Y-70204795D01*
X110988076Y-70204795D02*
X110988076Y-70300033D01*
X110988076Y-70300033D02*
X110940457Y-70442890D01*
X110940457Y-70442890D02*
X110369029Y-71014319D01*
X110369029Y-71014319D02*
X110988076Y-71014319D01*
X111321410Y-70014319D02*
X111940457Y-70014319D01*
X111940457Y-70014319D02*
X111607124Y-70395271D01*
X111607124Y-70395271D02*
X111749981Y-70395271D01*
X111749981Y-70395271D02*
X111845219Y-70442890D01*
X111845219Y-70442890D02*
X111892838Y-70490509D01*
X111892838Y-70490509D02*
X111940457Y-70585747D01*
X111940457Y-70585747D02*
X111940457Y-70823842D01*
X111940457Y-70823842D02*
X111892838Y-70919080D01*
X111892838Y-70919080D02*
X111845219Y-70966700D01*
X111845219Y-70966700D02*
X111749981Y-71014319D01*
X111749981Y-71014319D02*
X111464267Y-71014319D01*
X111464267Y-71014319D02*
X111369029Y-70966700D01*
X111369029Y-70966700D02*
X111321410Y-70919080D01*
X105509505Y-88314319D02*
X106080933Y-88314319D01*
X105795219Y-89314319D02*
X105795219Y-88314319D01*
X106414267Y-89314319D02*
X106414267Y-88314319D01*
X106414267Y-88314319D02*
X106795219Y-88314319D01*
X106795219Y-88314319D02*
X106890457Y-88361938D01*
X106890457Y-88361938D02*
X106938076Y-88409557D01*
X106938076Y-88409557D02*
X106985695Y-88504795D01*
X106985695Y-88504795D02*
X106985695Y-88647652D01*
X106985695Y-88647652D02*
X106938076Y-88742890D01*
X106938076Y-88742890D02*
X106890457Y-88790509D01*
X106890457Y-88790509D02*
X106795219Y-88838128D01*
X106795219Y-88838128D02*
X106414267Y-88838128D01*
X107366648Y-88409557D02*
X107414267Y-88361938D01*
X107414267Y-88361938D02*
X107509505Y-88314319D01*
X107509505Y-88314319D02*
X107747600Y-88314319D01*
X107747600Y-88314319D02*
X107842838Y-88361938D01*
X107842838Y-88361938D02*
X107890457Y-88409557D01*
X107890457Y-88409557D02*
X107938076Y-88504795D01*
X107938076Y-88504795D02*
X107938076Y-88600033D01*
X107938076Y-88600033D02*
X107890457Y-88742890D01*
X107890457Y-88742890D02*
X107319029Y-89314319D01*
X107319029Y-89314319D02*
X107938076Y-89314319D01*
X108319029Y-88409557D02*
X108366648Y-88361938D01*
X108366648Y-88361938D02*
X108461886Y-88314319D01*
X108461886Y-88314319D02*
X108699981Y-88314319D01*
X108699981Y-88314319D02*
X108795219Y-88361938D01*
X108795219Y-88361938D02*
X108842838Y-88409557D01*
X108842838Y-88409557D02*
X108890457Y-88504795D01*
X108890457Y-88504795D02*
X108890457Y-88600033D01*
X108890457Y-88600033D02*
X108842838Y-88742890D01*
X108842838Y-88742890D02*
X108271410Y-89314319D01*
X108271410Y-89314319D02*
X108890457Y-89314319D01*
X105509505Y-85264319D02*
X106080933Y-85264319D01*
X105795219Y-86264319D02*
X105795219Y-85264319D01*
X106414267Y-86264319D02*
X106414267Y-85264319D01*
X106414267Y-85264319D02*
X106795219Y-85264319D01*
X106795219Y-85264319D02*
X106890457Y-85311938D01*
X106890457Y-85311938D02*
X106938076Y-85359557D01*
X106938076Y-85359557D02*
X106985695Y-85454795D01*
X106985695Y-85454795D02*
X106985695Y-85597652D01*
X106985695Y-85597652D02*
X106938076Y-85692890D01*
X106938076Y-85692890D02*
X106890457Y-85740509D01*
X106890457Y-85740509D02*
X106795219Y-85788128D01*
X106795219Y-85788128D02*
X106414267Y-85788128D01*
X107366648Y-85359557D02*
X107414267Y-85311938D01*
X107414267Y-85311938D02*
X107509505Y-85264319D01*
X107509505Y-85264319D02*
X107747600Y-85264319D01*
X107747600Y-85264319D02*
X107842838Y-85311938D01*
X107842838Y-85311938D02*
X107890457Y-85359557D01*
X107890457Y-85359557D02*
X107938076Y-85454795D01*
X107938076Y-85454795D02*
X107938076Y-85550033D01*
X107938076Y-85550033D02*
X107890457Y-85692890D01*
X107890457Y-85692890D02*
X107319029Y-86264319D01*
X107319029Y-86264319D02*
X107938076Y-86264319D01*
X108890457Y-86264319D02*
X108319029Y-86264319D01*
X108604743Y-86264319D02*
X108604743Y-85264319D01*
X108604743Y-85264319D02*
X108509505Y-85407176D01*
X108509505Y-85407176D02*
X108414267Y-85502414D01*
X108414267Y-85502414D02*
X108319029Y-85550033D01*
X105509505Y-82214319D02*
X106080933Y-82214319D01*
X105795219Y-83214319D02*
X105795219Y-82214319D01*
X106414267Y-83214319D02*
X106414267Y-82214319D01*
X106414267Y-82214319D02*
X106795219Y-82214319D01*
X106795219Y-82214319D02*
X106890457Y-82261938D01*
X106890457Y-82261938D02*
X106938076Y-82309557D01*
X106938076Y-82309557D02*
X106985695Y-82404795D01*
X106985695Y-82404795D02*
X106985695Y-82547652D01*
X106985695Y-82547652D02*
X106938076Y-82642890D01*
X106938076Y-82642890D02*
X106890457Y-82690509D01*
X106890457Y-82690509D02*
X106795219Y-82738128D01*
X106795219Y-82738128D02*
X106414267Y-82738128D01*
X107366648Y-82309557D02*
X107414267Y-82261938D01*
X107414267Y-82261938D02*
X107509505Y-82214319D01*
X107509505Y-82214319D02*
X107747600Y-82214319D01*
X107747600Y-82214319D02*
X107842838Y-82261938D01*
X107842838Y-82261938D02*
X107890457Y-82309557D01*
X107890457Y-82309557D02*
X107938076Y-82404795D01*
X107938076Y-82404795D02*
X107938076Y-82500033D01*
X107938076Y-82500033D02*
X107890457Y-82642890D01*
X107890457Y-82642890D02*
X107319029Y-83214319D01*
X107319029Y-83214319D02*
X107938076Y-83214319D01*
X108557124Y-82214319D02*
X108652362Y-82214319D01*
X108652362Y-82214319D02*
X108747600Y-82261938D01*
X108747600Y-82261938D02*
X108795219Y-82309557D01*
X108795219Y-82309557D02*
X108842838Y-82404795D01*
X108842838Y-82404795D02*
X108890457Y-82595271D01*
X108890457Y-82595271D02*
X108890457Y-82833366D01*
X108890457Y-82833366D02*
X108842838Y-83023842D01*
X108842838Y-83023842D02*
X108795219Y-83119080D01*
X108795219Y-83119080D02*
X108747600Y-83166700D01*
X108747600Y-83166700D02*
X108652362Y-83214319D01*
X108652362Y-83214319D02*
X108557124Y-83214319D01*
X108557124Y-83214319D02*
X108461886Y-83166700D01*
X108461886Y-83166700D02*
X108414267Y-83119080D01*
X108414267Y-83119080D02*
X108366648Y-83023842D01*
X108366648Y-83023842D02*
X108319029Y-82833366D01*
X108319029Y-82833366D02*
X108319029Y-82595271D01*
X108319029Y-82595271D02*
X108366648Y-82404795D01*
X108366648Y-82404795D02*
X108414267Y-82309557D01*
X108414267Y-82309557D02*
X108461886Y-82261938D01*
X108461886Y-82261938D02*
X108557124Y-82214319D01*
X105509505Y-79164319D02*
X106080933Y-79164319D01*
X105795219Y-80164319D02*
X105795219Y-79164319D01*
X106414267Y-80164319D02*
X106414267Y-79164319D01*
X106414267Y-79164319D02*
X106795219Y-79164319D01*
X106795219Y-79164319D02*
X106890457Y-79211938D01*
X106890457Y-79211938D02*
X106938076Y-79259557D01*
X106938076Y-79259557D02*
X106985695Y-79354795D01*
X106985695Y-79354795D02*
X106985695Y-79497652D01*
X106985695Y-79497652D02*
X106938076Y-79592890D01*
X106938076Y-79592890D02*
X106890457Y-79640509D01*
X106890457Y-79640509D02*
X106795219Y-79688128D01*
X106795219Y-79688128D02*
X106414267Y-79688128D01*
X107938076Y-80164319D02*
X107366648Y-80164319D01*
X107652362Y-80164319D02*
X107652362Y-79164319D01*
X107652362Y-79164319D02*
X107557124Y-79307176D01*
X107557124Y-79307176D02*
X107461886Y-79402414D01*
X107461886Y-79402414D02*
X107366648Y-79450033D01*
X108414267Y-80164319D02*
X108604743Y-80164319D01*
X108604743Y-80164319D02*
X108699981Y-80116700D01*
X108699981Y-80116700D02*
X108747600Y-80069080D01*
X108747600Y-80069080D02*
X108842838Y-79926223D01*
X108842838Y-79926223D02*
X108890457Y-79735747D01*
X108890457Y-79735747D02*
X108890457Y-79354795D01*
X108890457Y-79354795D02*
X108842838Y-79259557D01*
X108842838Y-79259557D02*
X108795219Y-79211938D01*
X108795219Y-79211938D02*
X108699981Y-79164319D01*
X108699981Y-79164319D02*
X108509505Y-79164319D01*
X108509505Y-79164319D02*
X108414267Y-79211938D01*
X108414267Y-79211938D02*
X108366648Y-79259557D01*
X108366648Y-79259557D02*
X108319029Y-79354795D01*
X108319029Y-79354795D02*
X108319029Y-79592890D01*
X108319029Y-79592890D02*
X108366648Y-79688128D01*
X108366648Y-79688128D02*
X108414267Y-79735747D01*
X108414267Y-79735747D02*
X108509505Y-79783366D01*
X108509505Y-79783366D02*
X108699981Y-79783366D01*
X108699981Y-79783366D02*
X108795219Y-79735747D01*
X108795219Y-79735747D02*
X108842838Y-79688128D01*
X108842838Y-79688128D02*
X108890457Y-79592890D01*
X105509505Y-76114319D02*
X106080933Y-76114319D01*
X105795219Y-77114319D02*
X105795219Y-76114319D01*
X106414267Y-77114319D02*
X106414267Y-76114319D01*
X106414267Y-76114319D02*
X106795219Y-76114319D01*
X106795219Y-76114319D02*
X106890457Y-76161938D01*
X106890457Y-76161938D02*
X106938076Y-76209557D01*
X106938076Y-76209557D02*
X106985695Y-76304795D01*
X106985695Y-76304795D02*
X106985695Y-76447652D01*
X106985695Y-76447652D02*
X106938076Y-76542890D01*
X106938076Y-76542890D02*
X106890457Y-76590509D01*
X106890457Y-76590509D02*
X106795219Y-76638128D01*
X106795219Y-76638128D02*
X106414267Y-76638128D01*
X107938076Y-77114319D02*
X107366648Y-77114319D01*
X107652362Y-77114319D02*
X107652362Y-76114319D01*
X107652362Y-76114319D02*
X107557124Y-76257176D01*
X107557124Y-76257176D02*
X107461886Y-76352414D01*
X107461886Y-76352414D02*
X107366648Y-76400033D01*
X108509505Y-76542890D02*
X108414267Y-76495271D01*
X108414267Y-76495271D02*
X108366648Y-76447652D01*
X108366648Y-76447652D02*
X108319029Y-76352414D01*
X108319029Y-76352414D02*
X108319029Y-76304795D01*
X108319029Y-76304795D02*
X108366648Y-76209557D01*
X108366648Y-76209557D02*
X108414267Y-76161938D01*
X108414267Y-76161938D02*
X108509505Y-76114319D01*
X108509505Y-76114319D02*
X108699981Y-76114319D01*
X108699981Y-76114319D02*
X108795219Y-76161938D01*
X108795219Y-76161938D02*
X108842838Y-76209557D01*
X108842838Y-76209557D02*
X108890457Y-76304795D01*
X108890457Y-76304795D02*
X108890457Y-76352414D01*
X108890457Y-76352414D02*
X108842838Y-76447652D01*
X108842838Y-76447652D02*
X108795219Y-76495271D01*
X108795219Y-76495271D02*
X108699981Y-76542890D01*
X108699981Y-76542890D02*
X108509505Y-76542890D01*
X108509505Y-76542890D02*
X108414267Y-76590509D01*
X108414267Y-76590509D02*
X108366648Y-76638128D01*
X108366648Y-76638128D02*
X108319029Y-76733366D01*
X108319029Y-76733366D02*
X108319029Y-76923842D01*
X108319029Y-76923842D02*
X108366648Y-77019080D01*
X108366648Y-77019080D02*
X108414267Y-77066700D01*
X108414267Y-77066700D02*
X108509505Y-77114319D01*
X108509505Y-77114319D02*
X108699981Y-77114319D01*
X108699981Y-77114319D02*
X108795219Y-77066700D01*
X108795219Y-77066700D02*
X108842838Y-77019080D01*
X108842838Y-77019080D02*
X108890457Y-76923842D01*
X108890457Y-76923842D02*
X108890457Y-76733366D01*
X108890457Y-76733366D02*
X108842838Y-76638128D01*
X108842838Y-76638128D02*
X108795219Y-76590509D01*
X108795219Y-76590509D02*
X108699981Y-76542890D01*
X105509505Y-73064319D02*
X106080933Y-73064319D01*
X105795219Y-74064319D02*
X105795219Y-73064319D01*
X106414267Y-74064319D02*
X106414267Y-73064319D01*
X106414267Y-73064319D02*
X106795219Y-73064319D01*
X106795219Y-73064319D02*
X106890457Y-73111938D01*
X106890457Y-73111938D02*
X106938076Y-73159557D01*
X106938076Y-73159557D02*
X106985695Y-73254795D01*
X106985695Y-73254795D02*
X106985695Y-73397652D01*
X106985695Y-73397652D02*
X106938076Y-73492890D01*
X106938076Y-73492890D02*
X106890457Y-73540509D01*
X106890457Y-73540509D02*
X106795219Y-73588128D01*
X106795219Y-73588128D02*
X106414267Y-73588128D01*
X107938076Y-74064319D02*
X107366648Y-74064319D01*
X107652362Y-74064319D02*
X107652362Y-73064319D01*
X107652362Y-73064319D02*
X107557124Y-73207176D01*
X107557124Y-73207176D02*
X107461886Y-73302414D01*
X107461886Y-73302414D02*
X107366648Y-73350033D01*
X108271410Y-73064319D02*
X108938076Y-73064319D01*
X108938076Y-73064319D02*
X108509505Y-74064319D01*
X105509505Y-70014319D02*
X106080933Y-70014319D01*
X105795219Y-71014319D02*
X105795219Y-70014319D01*
X106414267Y-71014319D02*
X106414267Y-70014319D01*
X106414267Y-70014319D02*
X106795219Y-70014319D01*
X106795219Y-70014319D02*
X106890457Y-70061938D01*
X106890457Y-70061938D02*
X106938076Y-70109557D01*
X106938076Y-70109557D02*
X106985695Y-70204795D01*
X106985695Y-70204795D02*
X106985695Y-70347652D01*
X106985695Y-70347652D02*
X106938076Y-70442890D01*
X106938076Y-70442890D02*
X106890457Y-70490509D01*
X106890457Y-70490509D02*
X106795219Y-70538128D01*
X106795219Y-70538128D02*
X106414267Y-70538128D01*
X107938076Y-71014319D02*
X107366648Y-71014319D01*
X107652362Y-71014319D02*
X107652362Y-70014319D01*
X107652362Y-70014319D02*
X107557124Y-70157176D01*
X107557124Y-70157176D02*
X107461886Y-70252414D01*
X107461886Y-70252414D02*
X107366648Y-70300033D01*
X108795219Y-70014319D02*
X108604743Y-70014319D01*
X108604743Y-70014319D02*
X108509505Y-70061938D01*
X108509505Y-70061938D02*
X108461886Y-70109557D01*
X108461886Y-70109557D02*
X108366648Y-70252414D01*
X108366648Y-70252414D02*
X108319029Y-70442890D01*
X108319029Y-70442890D02*
X108319029Y-70823842D01*
X108319029Y-70823842D02*
X108366648Y-70919080D01*
X108366648Y-70919080D02*
X108414267Y-70966700D01*
X108414267Y-70966700D02*
X108509505Y-71014319D01*
X108509505Y-71014319D02*
X108699981Y-71014319D01*
X108699981Y-71014319D02*
X108795219Y-70966700D01*
X108795219Y-70966700D02*
X108842838Y-70919080D01*
X108842838Y-70919080D02*
X108890457Y-70823842D01*
X108890457Y-70823842D02*
X108890457Y-70585747D01*
X108890457Y-70585747D02*
X108842838Y-70490509D01*
X108842838Y-70490509D02*
X108795219Y-70442890D01*
X108795219Y-70442890D02*
X108699981Y-70395271D01*
X108699981Y-70395271D02*
X108509505Y-70395271D01*
X108509505Y-70395271D02*
X108414267Y-70442890D01*
X108414267Y-70442890D02*
X108366648Y-70490509D01*
X108366648Y-70490509D02*
X108319029Y-70585747D01*
X102459505Y-88314319D02*
X103030933Y-88314319D01*
X102745219Y-89314319D02*
X102745219Y-88314319D01*
X103364267Y-89314319D02*
X103364267Y-88314319D01*
X103364267Y-88314319D02*
X103745219Y-88314319D01*
X103745219Y-88314319D02*
X103840457Y-88361938D01*
X103840457Y-88361938D02*
X103888076Y-88409557D01*
X103888076Y-88409557D02*
X103935695Y-88504795D01*
X103935695Y-88504795D02*
X103935695Y-88647652D01*
X103935695Y-88647652D02*
X103888076Y-88742890D01*
X103888076Y-88742890D02*
X103840457Y-88790509D01*
X103840457Y-88790509D02*
X103745219Y-88838128D01*
X103745219Y-88838128D02*
X103364267Y-88838128D01*
X104888076Y-89314319D02*
X104316648Y-89314319D01*
X104602362Y-89314319D02*
X104602362Y-88314319D01*
X104602362Y-88314319D02*
X104507124Y-88457176D01*
X104507124Y-88457176D02*
X104411886Y-88552414D01*
X104411886Y-88552414D02*
X104316648Y-88600033D01*
X105792838Y-88314319D02*
X105316648Y-88314319D01*
X105316648Y-88314319D02*
X105269029Y-88790509D01*
X105269029Y-88790509D02*
X105316648Y-88742890D01*
X105316648Y-88742890D02*
X105411886Y-88695271D01*
X105411886Y-88695271D02*
X105649981Y-88695271D01*
X105649981Y-88695271D02*
X105745219Y-88742890D01*
X105745219Y-88742890D02*
X105792838Y-88790509D01*
X105792838Y-88790509D02*
X105840457Y-88885747D01*
X105840457Y-88885747D02*
X105840457Y-89123842D01*
X105840457Y-89123842D02*
X105792838Y-89219080D01*
X105792838Y-89219080D02*
X105745219Y-89266700D01*
X105745219Y-89266700D02*
X105649981Y-89314319D01*
X105649981Y-89314319D02*
X105411886Y-89314319D01*
X105411886Y-89314319D02*
X105316648Y-89266700D01*
X105316648Y-89266700D02*
X105269029Y-89219080D01*
X102459505Y-85264319D02*
X103030933Y-85264319D01*
X102745219Y-86264319D02*
X102745219Y-85264319D01*
X103364267Y-86264319D02*
X103364267Y-85264319D01*
X103364267Y-85264319D02*
X103745219Y-85264319D01*
X103745219Y-85264319D02*
X103840457Y-85311938D01*
X103840457Y-85311938D02*
X103888076Y-85359557D01*
X103888076Y-85359557D02*
X103935695Y-85454795D01*
X103935695Y-85454795D02*
X103935695Y-85597652D01*
X103935695Y-85597652D02*
X103888076Y-85692890D01*
X103888076Y-85692890D02*
X103840457Y-85740509D01*
X103840457Y-85740509D02*
X103745219Y-85788128D01*
X103745219Y-85788128D02*
X103364267Y-85788128D01*
X104888076Y-86264319D02*
X104316648Y-86264319D01*
X104602362Y-86264319D02*
X104602362Y-85264319D01*
X104602362Y-85264319D02*
X104507124Y-85407176D01*
X104507124Y-85407176D02*
X104411886Y-85502414D01*
X104411886Y-85502414D02*
X104316648Y-85550033D01*
X105745219Y-85597652D02*
X105745219Y-86264319D01*
X105507124Y-85216700D02*
X105269029Y-85930985D01*
X105269029Y-85930985D02*
X105888076Y-85930985D01*
X102459505Y-82214319D02*
X103030933Y-82214319D01*
X102745219Y-83214319D02*
X102745219Y-82214319D01*
X103364267Y-83214319D02*
X103364267Y-82214319D01*
X103364267Y-82214319D02*
X103745219Y-82214319D01*
X103745219Y-82214319D02*
X103840457Y-82261938D01*
X103840457Y-82261938D02*
X103888076Y-82309557D01*
X103888076Y-82309557D02*
X103935695Y-82404795D01*
X103935695Y-82404795D02*
X103935695Y-82547652D01*
X103935695Y-82547652D02*
X103888076Y-82642890D01*
X103888076Y-82642890D02*
X103840457Y-82690509D01*
X103840457Y-82690509D02*
X103745219Y-82738128D01*
X103745219Y-82738128D02*
X103364267Y-82738128D01*
X104888076Y-83214319D02*
X104316648Y-83214319D01*
X104602362Y-83214319D02*
X104602362Y-82214319D01*
X104602362Y-82214319D02*
X104507124Y-82357176D01*
X104507124Y-82357176D02*
X104411886Y-82452414D01*
X104411886Y-82452414D02*
X104316648Y-82500033D01*
X105221410Y-82214319D02*
X105840457Y-82214319D01*
X105840457Y-82214319D02*
X105507124Y-82595271D01*
X105507124Y-82595271D02*
X105649981Y-82595271D01*
X105649981Y-82595271D02*
X105745219Y-82642890D01*
X105745219Y-82642890D02*
X105792838Y-82690509D01*
X105792838Y-82690509D02*
X105840457Y-82785747D01*
X105840457Y-82785747D02*
X105840457Y-83023842D01*
X105840457Y-83023842D02*
X105792838Y-83119080D01*
X105792838Y-83119080D02*
X105745219Y-83166700D01*
X105745219Y-83166700D02*
X105649981Y-83214319D01*
X105649981Y-83214319D02*
X105364267Y-83214319D01*
X105364267Y-83214319D02*
X105269029Y-83166700D01*
X105269029Y-83166700D02*
X105221410Y-83119080D01*
X102459505Y-79164319D02*
X103030933Y-79164319D01*
X102745219Y-80164319D02*
X102745219Y-79164319D01*
X103364267Y-80164319D02*
X103364267Y-79164319D01*
X103364267Y-79164319D02*
X103745219Y-79164319D01*
X103745219Y-79164319D02*
X103840457Y-79211938D01*
X103840457Y-79211938D02*
X103888076Y-79259557D01*
X103888076Y-79259557D02*
X103935695Y-79354795D01*
X103935695Y-79354795D02*
X103935695Y-79497652D01*
X103935695Y-79497652D02*
X103888076Y-79592890D01*
X103888076Y-79592890D02*
X103840457Y-79640509D01*
X103840457Y-79640509D02*
X103745219Y-79688128D01*
X103745219Y-79688128D02*
X103364267Y-79688128D01*
X104888076Y-80164319D02*
X104316648Y-80164319D01*
X104602362Y-80164319D02*
X104602362Y-79164319D01*
X104602362Y-79164319D02*
X104507124Y-79307176D01*
X104507124Y-79307176D02*
X104411886Y-79402414D01*
X104411886Y-79402414D02*
X104316648Y-79450033D01*
X105269029Y-79259557D02*
X105316648Y-79211938D01*
X105316648Y-79211938D02*
X105411886Y-79164319D01*
X105411886Y-79164319D02*
X105649981Y-79164319D01*
X105649981Y-79164319D02*
X105745219Y-79211938D01*
X105745219Y-79211938D02*
X105792838Y-79259557D01*
X105792838Y-79259557D02*
X105840457Y-79354795D01*
X105840457Y-79354795D02*
X105840457Y-79450033D01*
X105840457Y-79450033D02*
X105792838Y-79592890D01*
X105792838Y-79592890D02*
X105221410Y-80164319D01*
X105221410Y-80164319D02*
X105840457Y-80164319D01*
X102459505Y-76114319D02*
X103030933Y-76114319D01*
X102745219Y-77114319D02*
X102745219Y-76114319D01*
X103364267Y-77114319D02*
X103364267Y-76114319D01*
X103364267Y-76114319D02*
X103745219Y-76114319D01*
X103745219Y-76114319D02*
X103840457Y-76161938D01*
X103840457Y-76161938D02*
X103888076Y-76209557D01*
X103888076Y-76209557D02*
X103935695Y-76304795D01*
X103935695Y-76304795D02*
X103935695Y-76447652D01*
X103935695Y-76447652D02*
X103888076Y-76542890D01*
X103888076Y-76542890D02*
X103840457Y-76590509D01*
X103840457Y-76590509D02*
X103745219Y-76638128D01*
X103745219Y-76638128D02*
X103364267Y-76638128D01*
X104888076Y-77114319D02*
X104316648Y-77114319D01*
X104602362Y-77114319D02*
X104602362Y-76114319D01*
X104602362Y-76114319D02*
X104507124Y-76257176D01*
X104507124Y-76257176D02*
X104411886Y-76352414D01*
X104411886Y-76352414D02*
X104316648Y-76400033D01*
X105840457Y-77114319D02*
X105269029Y-77114319D01*
X105554743Y-77114319D02*
X105554743Y-76114319D01*
X105554743Y-76114319D02*
X105459505Y-76257176D01*
X105459505Y-76257176D02*
X105364267Y-76352414D01*
X105364267Y-76352414D02*
X105269029Y-76400033D01*
X102459505Y-73064319D02*
X103030933Y-73064319D01*
X102745219Y-74064319D02*
X102745219Y-73064319D01*
X103364267Y-74064319D02*
X103364267Y-73064319D01*
X103364267Y-73064319D02*
X103745219Y-73064319D01*
X103745219Y-73064319D02*
X103840457Y-73111938D01*
X103840457Y-73111938D02*
X103888076Y-73159557D01*
X103888076Y-73159557D02*
X103935695Y-73254795D01*
X103935695Y-73254795D02*
X103935695Y-73397652D01*
X103935695Y-73397652D02*
X103888076Y-73492890D01*
X103888076Y-73492890D02*
X103840457Y-73540509D01*
X103840457Y-73540509D02*
X103745219Y-73588128D01*
X103745219Y-73588128D02*
X103364267Y-73588128D01*
X104888076Y-74064319D02*
X104316648Y-74064319D01*
X104602362Y-74064319D02*
X104602362Y-73064319D01*
X104602362Y-73064319D02*
X104507124Y-73207176D01*
X104507124Y-73207176D02*
X104411886Y-73302414D01*
X104411886Y-73302414D02*
X104316648Y-73350033D01*
X105507124Y-73064319D02*
X105602362Y-73064319D01*
X105602362Y-73064319D02*
X105697600Y-73111938D01*
X105697600Y-73111938D02*
X105745219Y-73159557D01*
X105745219Y-73159557D02*
X105792838Y-73254795D01*
X105792838Y-73254795D02*
X105840457Y-73445271D01*
X105840457Y-73445271D02*
X105840457Y-73683366D01*
X105840457Y-73683366D02*
X105792838Y-73873842D01*
X105792838Y-73873842D02*
X105745219Y-73969080D01*
X105745219Y-73969080D02*
X105697600Y-74016700D01*
X105697600Y-74016700D02*
X105602362Y-74064319D01*
X105602362Y-74064319D02*
X105507124Y-74064319D01*
X105507124Y-74064319D02*
X105411886Y-74016700D01*
X105411886Y-74016700D02*
X105364267Y-73969080D01*
X105364267Y-73969080D02*
X105316648Y-73873842D01*
X105316648Y-73873842D02*
X105269029Y-73683366D01*
X105269029Y-73683366D02*
X105269029Y-73445271D01*
X105269029Y-73445271D02*
X105316648Y-73254795D01*
X105316648Y-73254795D02*
X105364267Y-73159557D01*
X105364267Y-73159557D02*
X105411886Y-73111938D01*
X105411886Y-73111938D02*
X105507124Y-73064319D01*
X102935695Y-70014319D02*
X103507123Y-70014319D01*
X103221409Y-71014319D02*
X103221409Y-70014319D01*
X103840457Y-71014319D02*
X103840457Y-70014319D01*
X103840457Y-70014319D02*
X104221409Y-70014319D01*
X104221409Y-70014319D02*
X104316647Y-70061938D01*
X104316647Y-70061938D02*
X104364266Y-70109557D01*
X104364266Y-70109557D02*
X104411885Y-70204795D01*
X104411885Y-70204795D02*
X104411885Y-70347652D01*
X104411885Y-70347652D02*
X104364266Y-70442890D01*
X104364266Y-70442890D02*
X104316647Y-70490509D01*
X104316647Y-70490509D02*
X104221409Y-70538128D01*
X104221409Y-70538128D02*
X103840457Y-70538128D01*
X104888076Y-71014319D02*
X105078552Y-71014319D01*
X105078552Y-71014319D02*
X105173790Y-70966700D01*
X105173790Y-70966700D02*
X105221409Y-70919080D01*
X105221409Y-70919080D02*
X105316647Y-70776223D01*
X105316647Y-70776223D02*
X105364266Y-70585747D01*
X105364266Y-70585747D02*
X105364266Y-70204795D01*
X105364266Y-70204795D02*
X105316647Y-70109557D01*
X105316647Y-70109557D02*
X105269028Y-70061938D01*
X105269028Y-70061938D02*
X105173790Y-70014319D01*
X105173790Y-70014319D02*
X104983314Y-70014319D01*
X104983314Y-70014319D02*
X104888076Y-70061938D01*
X104888076Y-70061938D02*
X104840457Y-70109557D01*
X104840457Y-70109557D02*
X104792838Y-70204795D01*
X104792838Y-70204795D02*
X104792838Y-70442890D01*
X104792838Y-70442890D02*
X104840457Y-70538128D01*
X104840457Y-70538128D02*
X104888076Y-70585747D01*
X104888076Y-70585747D02*
X104983314Y-70633366D01*
X104983314Y-70633366D02*
X105173790Y-70633366D01*
X105173790Y-70633366D02*
X105269028Y-70585747D01*
X105269028Y-70585747D02*
X105316647Y-70538128D01*
X105316647Y-70538128D02*
X105364266Y-70442890D01*
X99885695Y-88314319D02*
X100457123Y-88314319D01*
X100171409Y-89314319D02*
X100171409Y-88314319D01*
X100790457Y-89314319D02*
X100790457Y-88314319D01*
X100790457Y-88314319D02*
X101171409Y-88314319D01*
X101171409Y-88314319D02*
X101266647Y-88361938D01*
X101266647Y-88361938D02*
X101314266Y-88409557D01*
X101314266Y-88409557D02*
X101361885Y-88504795D01*
X101361885Y-88504795D02*
X101361885Y-88647652D01*
X101361885Y-88647652D02*
X101314266Y-88742890D01*
X101314266Y-88742890D02*
X101266647Y-88790509D01*
X101266647Y-88790509D02*
X101171409Y-88838128D01*
X101171409Y-88838128D02*
X100790457Y-88838128D01*
X101933314Y-88742890D02*
X101838076Y-88695271D01*
X101838076Y-88695271D02*
X101790457Y-88647652D01*
X101790457Y-88647652D02*
X101742838Y-88552414D01*
X101742838Y-88552414D02*
X101742838Y-88504795D01*
X101742838Y-88504795D02*
X101790457Y-88409557D01*
X101790457Y-88409557D02*
X101838076Y-88361938D01*
X101838076Y-88361938D02*
X101933314Y-88314319D01*
X101933314Y-88314319D02*
X102123790Y-88314319D01*
X102123790Y-88314319D02*
X102219028Y-88361938D01*
X102219028Y-88361938D02*
X102266647Y-88409557D01*
X102266647Y-88409557D02*
X102314266Y-88504795D01*
X102314266Y-88504795D02*
X102314266Y-88552414D01*
X102314266Y-88552414D02*
X102266647Y-88647652D01*
X102266647Y-88647652D02*
X102219028Y-88695271D01*
X102219028Y-88695271D02*
X102123790Y-88742890D01*
X102123790Y-88742890D02*
X101933314Y-88742890D01*
X101933314Y-88742890D02*
X101838076Y-88790509D01*
X101838076Y-88790509D02*
X101790457Y-88838128D01*
X101790457Y-88838128D02*
X101742838Y-88933366D01*
X101742838Y-88933366D02*
X101742838Y-89123842D01*
X101742838Y-89123842D02*
X101790457Y-89219080D01*
X101790457Y-89219080D02*
X101838076Y-89266700D01*
X101838076Y-89266700D02*
X101933314Y-89314319D01*
X101933314Y-89314319D02*
X102123790Y-89314319D01*
X102123790Y-89314319D02*
X102219028Y-89266700D01*
X102219028Y-89266700D02*
X102266647Y-89219080D01*
X102266647Y-89219080D02*
X102314266Y-89123842D01*
X102314266Y-89123842D02*
X102314266Y-88933366D01*
X102314266Y-88933366D02*
X102266647Y-88838128D01*
X102266647Y-88838128D02*
X102219028Y-88790509D01*
X102219028Y-88790509D02*
X102123790Y-88742890D01*
X99885695Y-85264319D02*
X100457123Y-85264319D01*
X100171409Y-86264319D02*
X100171409Y-85264319D01*
X100790457Y-86264319D02*
X100790457Y-85264319D01*
X100790457Y-85264319D02*
X101171409Y-85264319D01*
X101171409Y-85264319D02*
X101266647Y-85311938D01*
X101266647Y-85311938D02*
X101314266Y-85359557D01*
X101314266Y-85359557D02*
X101361885Y-85454795D01*
X101361885Y-85454795D02*
X101361885Y-85597652D01*
X101361885Y-85597652D02*
X101314266Y-85692890D01*
X101314266Y-85692890D02*
X101266647Y-85740509D01*
X101266647Y-85740509D02*
X101171409Y-85788128D01*
X101171409Y-85788128D02*
X100790457Y-85788128D01*
X101695219Y-85264319D02*
X102361885Y-85264319D01*
X102361885Y-85264319D02*
X101933314Y-86264319D01*
X99885695Y-82214319D02*
X100457123Y-82214319D01*
X100171409Y-83214319D02*
X100171409Y-82214319D01*
X100790457Y-83214319D02*
X100790457Y-82214319D01*
X100790457Y-82214319D02*
X101171409Y-82214319D01*
X101171409Y-82214319D02*
X101266647Y-82261938D01*
X101266647Y-82261938D02*
X101314266Y-82309557D01*
X101314266Y-82309557D02*
X101361885Y-82404795D01*
X101361885Y-82404795D02*
X101361885Y-82547652D01*
X101361885Y-82547652D02*
X101314266Y-82642890D01*
X101314266Y-82642890D02*
X101266647Y-82690509D01*
X101266647Y-82690509D02*
X101171409Y-82738128D01*
X101171409Y-82738128D02*
X100790457Y-82738128D01*
X102219028Y-82214319D02*
X102028552Y-82214319D01*
X102028552Y-82214319D02*
X101933314Y-82261938D01*
X101933314Y-82261938D02*
X101885695Y-82309557D01*
X101885695Y-82309557D02*
X101790457Y-82452414D01*
X101790457Y-82452414D02*
X101742838Y-82642890D01*
X101742838Y-82642890D02*
X101742838Y-83023842D01*
X101742838Y-83023842D02*
X101790457Y-83119080D01*
X101790457Y-83119080D02*
X101838076Y-83166700D01*
X101838076Y-83166700D02*
X101933314Y-83214319D01*
X101933314Y-83214319D02*
X102123790Y-83214319D01*
X102123790Y-83214319D02*
X102219028Y-83166700D01*
X102219028Y-83166700D02*
X102266647Y-83119080D01*
X102266647Y-83119080D02*
X102314266Y-83023842D01*
X102314266Y-83023842D02*
X102314266Y-82785747D01*
X102314266Y-82785747D02*
X102266647Y-82690509D01*
X102266647Y-82690509D02*
X102219028Y-82642890D01*
X102219028Y-82642890D02*
X102123790Y-82595271D01*
X102123790Y-82595271D02*
X101933314Y-82595271D01*
X101933314Y-82595271D02*
X101838076Y-82642890D01*
X101838076Y-82642890D02*
X101790457Y-82690509D01*
X101790457Y-82690509D02*
X101742838Y-82785747D01*
X99885695Y-79164319D02*
X100457123Y-79164319D01*
X100171409Y-80164319D02*
X100171409Y-79164319D01*
X100790457Y-80164319D02*
X100790457Y-79164319D01*
X100790457Y-79164319D02*
X101171409Y-79164319D01*
X101171409Y-79164319D02*
X101266647Y-79211938D01*
X101266647Y-79211938D02*
X101314266Y-79259557D01*
X101314266Y-79259557D02*
X101361885Y-79354795D01*
X101361885Y-79354795D02*
X101361885Y-79497652D01*
X101361885Y-79497652D02*
X101314266Y-79592890D01*
X101314266Y-79592890D02*
X101266647Y-79640509D01*
X101266647Y-79640509D02*
X101171409Y-79688128D01*
X101171409Y-79688128D02*
X100790457Y-79688128D01*
X102266647Y-79164319D02*
X101790457Y-79164319D01*
X101790457Y-79164319D02*
X101742838Y-79640509D01*
X101742838Y-79640509D02*
X101790457Y-79592890D01*
X101790457Y-79592890D02*
X101885695Y-79545271D01*
X101885695Y-79545271D02*
X102123790Y-79545271D01*
X102123790Y-79545271D02*
X102219028Y-79592890D01*
X102219028Y-79592890D02*
X102266647Y-79640509D01*
X102266647Y-79640509D02*
X102314266Y-79735747D01*
X102314266Y-79735747D02*
X102314266Y-79973842D01*
X102314266Y-79973842D02*
X102266647Y-80069080D01*
X102266647Y-80069080D02*
X102219028Y-80116700D01*
X102219028Y-80116700D02*
X102123790Y-80164319D01*
X102123790Y-80164319D02*
X101885695Y-80164319D01*
X101885695Y-80164319D02*
X101790457Y-80116700D01*
X101790457Y-80116700D02*
X101742838Y-80069080D01*
X99885695Y-76114319D02*
X100457123Y-76114319D01*
X100171409Y-77114319D02*
X100171409Y-76114319D01*
X100790457Y-77114319D02*
X100790457Y-76114319D01*
X100790457Y-76114319D02*
X101171409Y-76114319D01*
X101171409Y-76114319D02*
X101266647Y-76161938D01*
X101266647Y-76161938D02*
X101314266Y-76209557D01*
X101314266Y-76209557D02*
X101361885Y-76304795D01*
X101361885Y-76304795D02*
X101361885Y-76447652D01*
X101361885Y-76447652D02*
X101314266Y-76542890D01*
X101314266Y-76542890D02*
X101266647Y-76590509D01*
X101266647Y-76590509D02*
X101171409Y-76638128D01*
X101171409Y-76638128D02*
X100790457Y-76638128D01*
X102219028Y-76447652D02*
X102219028Y-77114319D01*
X101980933Y-76066700D02*
X101742838Y-76780985D01*
X101742838Y-76780985D02*
X102361885Y-76780985D01*
X99885695Y-73064319D02*
X100457123Y-73064319D01*
X100171409Y-74064319D02*
X100171409Y-73064319D01*
X100790457Y-74064319D02*
X100790457Y-73064319D01*
X100790457Y-73064319D02*
X101171409Y-73064319D01*
X101171409Y-73064319D02*
X101266647Y-73111938D01*
X101266647Y-73111938D02*
X101314266Y-73159557D01*
X101314266Y-73159557D02*
X101361885Y-73254795D01*
X101361885Y-73254795D02*
X101361885Y-73397652D01*
X101361885Y-73397652D02*
X101314266Y-73492890D01*
X101314266Y-73492890D02*
X101266647Y-73540509D01*
X101266647Y-73540509D02*
X101171409Y-73588128D01*
X101171409Y-73588128D02*
X100790457Y-73588128D01*
X101695219Y-73064319D02*
X102314266Y-73064319D01*
X102314266Y-73064319D02*
X101980933Y-73445271D01*
X101980933Y-73445271D02*
X102123790Y-73445271D01*
X102123790Y-73445271D02*
X102219028Y-73492890D01*
X102219028Y-73492890D02*
X102266647Y-73540509D01*
X102266647Y-73540509D02*
X102314266Y-73635747D01*
X102314266Y-73635747D02*
X102314266Y-73873842D01*
X102314266Y-73873842D02*
X102266647Y-73969080D01*
X102266647Y-73969080D02*
X102219028Y-74016700D01*
X102219028Y-74016700D02*
X102123790Y-74064319D01*
X102123790Y-74064319D02*
X101838076Y-74064319D01*
X101838076Y-74064319D02*
X101742838Y-74016700D01*
X101742838Y-74016700D02*
X101695219Y-73969080D01*
X99885695Y-70014319D02*
X100457123Y-70014319D01*
X100171409Y-71014319D02*
X100171409Y-70014319D01*
X100790457Y-71014319D02*
X100790457Y-70014319D01*
X100790457Y-70014319D02*
X101171409Y-70014319D01*
X101171409Y-70014319D02*
X101266647Y-70061938D01*
X101266647Y-70061938D02*
X101314266Y-70109557D01*
X101314266Y-70109557D02*
X101361885Y-70204795D01*
X101361885Y-70204795D02*
X101361885Y-70347652D01*
X101361885Y-70347652D02*
X101314266Y-70442890D01*
X101314266Y-70442890D02*
X101266647Y-70490509D01*
X101266647Y-70490509D02*
X101171409Y-70538128D01*
X101171409Y-70538128D02*
X100790457Y-70538128D01*
X101742838Y-70109557D02*
X101790457Y-70061938D01*
X101790457Y-70061938D02*
X101885695Y-70014319D01*
X101885695Y-70014319D02*
X102123790Y-70014319D01*
X102123790Y-70014319D02*
X102219028Y-70061938D01*
X102219028Y-70061938D02*
X102266647Y-70109557D01*
X102266647Y-70109557D02*
X102314266Y-70204795D01*
X102314266Y-70204795D02*
X102314266Y-70300033D01*
X102314266Y-70300033D02*
X102266647Y-70442890D01*
X102266647Y-70442890D02*
X101695219Y-71014319D01*
X101695219Y-71014319D02*
X102314266Y-71014319D01*
X136654742Y-78292319D02*
X136321409Y-77816128D01*
X136083314Y-78292319D02*
X136083314Y-77292319D01*
X136083314Y-77292319D02*
X136464266Y-77292319D01*
X136464266Y-77292319D02*
X136559504Y-77339938D01*
X136559504Y-77339938D02*
X136607123Y-77387557D01*
X136607123Y-77387557D02*
X136654742Y-77482795D01*
X136654742Y-77482795D02*
X136654742Y-77625652D01*
X136654742Y-77625652D02*
X136607123Y-77720890D01*
X136607123Y-77720890D02*
X136559504Y-77768509D01*
X136559504Y-77768509D02*
X136464266Y-77816128D01*
X136464266Y-77816128D02*
X136083314Y-77816128D01*
X136988076Y-77292319D02*
X137607123Y-77292319D01*
X137607123Y-77292319D02*
X137273790Y-77673271D01*
X137273790Y-77673271D02*
X137416647Y-77673271D01*
X137416647Y-77673271D02*
X137511885Y-77720890D01*
X137511885Y-77720890D02*
X137559504Y-77768509D01*
X137559504Y-77768509D02*
X137607123Y-77863747D01*
X137607123Y-77863747D02*
X137607123Y-78101842D01*
X137607123Y-78101842D02*
X137559504Y-78197080D01*
X137559504Y-78197080D02*
X137511885Y-78244700D01*
X137511885Y-78244700D02*
X137416647Y-78292319D01*
X137416647Y-78292319D02*
X137130933Y-78292319D01*
X137130933Y-78292319D02*
X137035695Y-78244700D01*
X137035695Y-78244700D02*
X136988076Y-78197080D01*
X137988076Y-77387557D02*
X138035695Y-77339938D01*
X138035695Y-77339938D02*
X138130933Y-77292319D01*
X138130933Y-77292319D02*
X138369028Y-77292319D01*
X138369028Y-77292319D02*
X138464266Y-77339938D01*
X138464266Y-77339938D02*
X138511885Y-77387557D01*
X138511885Y-77387557D02*
X138559504Y-77482795D01*
X138559504Y-77482795D02*
X138559504Y-77578033D01*
X138559504Y-77578033D02*
X138511885Y-77720890D01*
X138511885Y-77720890D02*
X137940457Y-78292319D01*
X137940457Y-78292319D02*
X138559504Y-78292319D01*
X136654742Y-75782319D02*
X136321409Y-75306128D01*
X136083314Y-75782319D02*
X136083314Y-74782319D01*
X136083314Y-74782319D02*
X136464266Y-74782319D01*
X136464266Y-74782319D02*
X136559504Y-74829938D01*
X136559504Y-74829938D02*
X136607123Y-74877557D01*
X136607123Y-74877557D02*
X136654742Y-74972795D01*
X136654742Y-74972795D02*
X136654742Y-75115652D01*
X136654742Y-75115652D02*
X136607123Y-75210890D01*
X136607123Y-75210890D02*
X136559504Y-75258509D01*
X136559504Y-75258509D02*
X136464266Y-75306128D01*
X136464266Y-75306128D02*
X136083314Y-75306128D01*
X136988076Y-74782319D02*
X137607123Y-74782319D01*
X137607123Y-74782319D02*
X137273790Y-75163271D01*
X137273790Y-75163271D02*
X137416647Y-75163271D01*
X137416647Y-75163271D02*
X137511885Y-75210890D01*
X137511885Y-75210890D02*
X137559504Y-75258509D01*
X137559504Y-75258509D02*
X137607123Y-75353747D01*
X137607123Y-75353747D02*
X137607123Y-75591842D01*
X137607123Y-75591842D02*
X137559504Y-75687080D01*
X137559504Y-75687080D02*
X137511885Y-75734700D01*
X137511885Y-75734700D02*
X137416647Y-75782319D01*
X137416647Y-75782319D02*
X137130933Y-75782319D01*
X137130933Y-75782319D02*
X137035695Y-75734700D01*
X137035695Y-75734700D02*
X136988076Y-75687080D01*
X138559504Y-75782319D02*
X137988076Y-75782319D01*
X138273790Y-75782319D02*
X138273790Y-74782319D01*
X138273790Y-74782319D02*
X138178552Y-74925176D01*
X138178552Y-74925176D02*
X138083314Y-75020414D01*
X138083314Y-75020414D02*
X137988076Y-75068033D01*
X136854742Y-106032319D02*
X136521409Y-105556128D01*
X136283314Y-106032319D02*
X136283314Y-105032319D01*
X136283314Y-105032319D02*
X136664266Y-105032319D01*
X136664266Y-105032319D02*
X136759504Y-105079938D01*
X136759504Y-105079938D02*
X136807123Y-105127557D01*
X136807123Y-105127557D02*
X136854742Y-105222795D01*
X136854742Y-105222795D02*
X136854742Y-105365652D01*
X136854742Y-105365652D02*
X136807123Y-105460890D01*
X136807123Y-105460890D02*
X136759504Y-105508509D01*
X136759504Y-105508509D02*
X136664266Y-105556128D01*
X136664266Y-105556128D02*
X136283314Y-105556128D01*
X137188076Y-105032319D02*
X137807123Y-105032319D01*
X137807123Y-105032319D02*
X137473790Y-105413271D01*
X137473790Y-105413271D02*
X137616647Y-105413271D01*
X137616647Y-105413271D02*
X137711885Y-105460890D01*
X137711885Y-105460890D02*
X137759504Y-105508509D01*
X137759504Y-105508509D02*
X137807123Y-105603747D01*
X137807123Y-105603747D02*
X137807123Y-105841842D01*
X137807123Y-105841842D02*
X137759504Y-105937080D01*
X137759504Y-105937080D02*
X137711885Y-105984700D01*
X137711885Y-105984700D02*
X137616647Y-106032319D01*
X137616647Y-106032319D02*
X137330933Y-106032319D01*
X137330933Y-106032319D02*
X137235695Y-105984700D01*
X137235695Y-105984700D02*
X137188076Y-105937080D01*
X138426171Y-105032319D02*
X138521409Y-105032319D01*
X138521409Y-105032319D02*
X138616647Y-105079938D01*
X138616647Y-105079938D02*
X138664266Y-105127557D01*
X138664266Y-105127557D02*
X138711885Y-105222795D01*
X138711885Y-105222795D02*
X138759504Y-105413271D01*
X138759504Y-105413271D02*
X138759504Y-105651366D01*
X138759504Y-105651366D02*
X138711885Y-105841842D01*
X138711885Y-105841842D02*
X138664266Y-105937080D01*
X138664266Y-105937080D02*
X138616647Y-105984700D01*
X138616647Y-105984700D02*
X138521409Y-106032319D01*
X138521409Y-106032319D02*
X138426171Y-106032319D01*
X138426171Y-106032319D02*
X138330933Y-105984700D01*
X138330933Y-105984700D02*
X138283314Y-105937080D01*
X138283314Y-105937080D02*
X138235695Y-105841842D01*
X138235695Y-105841842D02*
X138188076Y-105651366D01*
X138188076Y-105651366D02*
X138188076Y-105413271D01*
X138188076Y-105413271D02*
X138235695Y-105222795D01*
X138235695Y-105222795D02*
X138283314Y-105127557D01*
X138283314Y-105127557D02*
X138330933Y-105079938D01*
X138330933Y-105079938D02*
X138426171Y-105032319D01*
X136854742Y-103082319D02*
X136521409Y-102606128D01*
X136283314Y-103082319D02*
X136283314Y-102082319D01*
X136283314Y-102082319D02*
X136664266Y-102082319D01*
X136664266Y-102082319D02*
X136759504Y-102129938D01*
X136759504Y-102129938D02*
X136807123Y-102177557D01*
X136807123Y-102177557D02*
X136854742Y-102272795D01*
X136854742Y-102272795D02*
X136854742Y-102415652D01*
X136854742Y-102415652D02*
X136807123Y-102510890D01*
X136807123Y-102510890D02*
X136759504Y-102558509D01*
X136759504Y-102558509D02*
X136664266Y-102606128D01*
X136664266Y-102606128D02*
X136283314Y-102606128D01*
X137235695Y-102177557D02*
X137283314Y-102129938D01*
X137283314Y-102129938D02*
X137378552Y-102082319D01*
X137378552Y-102082319D02*
X137616647Y-102082319D01*
X137616647Y-102082319D02*
X137711885Y-102129938D01*
X137711885Y-102129938D02*
X137759504Y-102177557D01*
X137759504Y-102177557D02*
X137807123Y-102272795D01*
X137807123Y-102272795D02*
X137807123Y-102368033D01*
X137807123Y-102368033D02*
X137759504Y-102510890D01*
X137759504Y-102510890D02*
X137188076Y-103082319D01*
X137188076Y-103082319D02*
X137807123Y-103082319D01*
X138283314Y-103082319D02*
X138473790Y-103082319D01*
X138473790Y-103082319D02*
X138569028Y-103034700D01*
X138569028Y-103034700D02*
X138616647Y-102987080D01*
X138616647Y-102987080D02*
X138711885Y-102844223D01*
X138711885Y-102844223D02*
X138759504Y-102653747D01*
X138759504Y-102653747D02*
X138759504Y-102272795D01*
X138759504Y-102272795D02*
X138711885Y-102177557D01*
X138711885Y-102177557D02*
X138664266Y-102129938D01*
X138664266Y-102129938D02*
X138569028Y-102082319D01*
X138569028Y-102082319D02*
X138378552Y-102082319D01*
X138378552Y-102082319D02*
X138283314Y-102129938D01*
X138283314Y-102129938D02*
X138235695Y-102177557D01*
X138235695Y-102177557D02*
X138188076Y-102272795D01*
X138188076Y-102272795D02*
X138188076Y-102510890D01*
X138188076Y-102510890D02*
X138235695Y-102606128D01*
X138235695Y-102606128D02*
X138283314Y-102653747D01*
X138283314Y-102653747D02*
X138378552Y-102701366D01*
X138378552Y-102701366D02*
X138569028Y-102701366D01*
X138569028Y-102701366D02*
X138664266Y-102653747D01*
X138664266Y-102653747D02*
X138711885Y-102606128D01*
X138711885Y-102606128D02*
X138759504Y-102510890D01*
X131864742Y-111622319D02*
X131531409Y-111146128D01*
X131293314Y-111622319D02*
X131293314Y-110622319D01*
X131293314Y-110622319D02*
X131674266Y-110622319D01*
X131674266Y-110622319D02*
X131769504Y-110669938D01*
X131769504Y-110669938D02*
X131817123Y-110717557D01*
X131817123Y-110717557D02*
X131864742Y-110812795D01*
X131864742Y-110812795D02*
X131864742Y-110955652D01*
X131864742Y-110955652D02*
X131817123Y-111050890D01*
X131817123Y-111050890D02*
X131769504Y-111098509D01*
X131769504Y-111098509D02*
X131674266Y-111146128D01*
X131674266Y-111146128D02*
X131293314Y-111146128D01*
X132245695Y-110717557D02*
X132293314Y-110669938D01*
X132293314Y-110669938D02*
X132388552Y-110622319D01*
X132388552Y-110622319D02*
X132626647Y-110622319D01*
X132626647Y-110622319D02*
X132721885Y-110669938D01*
X132721885Y-110669938D02*
X132769504Y-110717557D01*
X132769504Y-110717557D02*
X132817123Y-110812795D01*
X132817123Y-110812795D02*
X132817123Y-110908033D01*
X132817123Y-110908033D02*
X132769504Y-111050890D01*
X132769504Y-111050890D02*
X132198076Y-111622319D01*
X132198076Y-111622319D02*
X132817123Y-111622319D01*
X133388552Y-111050890D02*
X133293314Y-111003271D01*
X133293314Y-111003271D02*
X133245695Y-110955652D01*
X133245695Y-110955652D02*
X133198076Y-110860414D01*
X133198076Y-110860414D02*
X133198076Y-110812795D01*
X133198076Y-110812795D02*
X133245695Y-110717557D01*
X133245695Y-110717557D02*
X133293314Y-110669938D01*
X133293314Y-110669938D02*
X133388552Y-110622319D01*
X133388552Y-110622319D02*
X133579028Y-110622319D01*
X133579028Y-110622319D02*
X133674266Y-110669938D01*
X133674266Y-110669938D02*
X133721885Y-110717557D01*
X133721885Y-110717557D02*
X133769504Y-110812795D01*
X133769504Y-110812795D02*
X133769504Y-110860414D01*
X133769504Y-110860414D02*
X133721885Y-110955652D01*
X133721885Y-110955652D02*
X133674266Y-111003271D01*
X133674266Y-111003271D02*
X133579028Y-111050890D01*
X133579028Y-111050890D02*
X133388552Y-111050890D01*
X133388552Y-111050890D02*
X133293314Y-111098509D01*
X133293314Y-111098509D02*
X133245695Y-111146128D01*
X133245695Y-111146128D02*
X133198076Y-111241366D01*
X133198076Y-111241366D02*
X133198076Y-111431842D01*
X133198076Y-111431842D02*
X133245695Y-111527080D01*
X133245695Y-111527080D02*
X133293314Y-111574700D01*
X133293314Y-111574700D02*
X133388552Y-111622319D01*
X133388552Y-111622319D02*
X133579028Y-111622319D01*
X133579028Y-111622319D02*
X133674266Y-111574700D01*
X133674266Y-111574700D02*
X133721885Y-111527080D01*
X133721885Y-111527080D02*
X133769504Y-111431842D01*
X133769504Y-111431842D02*
X133769504Y-111241366D01*
X133769504Y-111241366D02*
X133721885Y-111146128D01*
X133721885Y-111146128D02*
X133674266Y-111098509D01*
X133674266Y-111098509D02*
X133579028Y-111050890D01*
X136654742Y-73272319D02*
X136321409Y-72796128D01*
X136083314Y-73272319D02*
X136083314Y-72272319D01*
X136083314Y-72272319D02*
X136464266Y-72272319D01*
X136464266Y-72272319D02*
X136559504Y-72319938D01*
X136559504Y-72319938D02*
X136607123Y-72367557D01*
X136607123Y-72367557D02*
X136654742Y-72462795D01*
X136654742Y-72462795D02*
X136654742Y-72605652D01*
X136654742Y-72605652D02*
X136607123Y-72700890D01*
X136607123Y-72700890D02*
X136559504Y-72748509D01*
X136559504Y-72748509D02*
X136464266Y-72796128D01*
X136464266Y-72796128D02*
X136083314Y-72796128D01*
X137035695Y-72367557D02*
X137083314Y-72319938D01*
X137083314Y-72319938D02*
X137178552Y-72272319D01*
X137178552Y-72272319D02*
X137416647Y-72272319D01*
X137416647Y-72272319D02*
X137511885Y-72319938D01*
X137511885Y-72319938D02*
X137559504Y-72367557D01*
X137559504Y-72367557D02*
X137607123Y-72462795D01*
X137607123Y-72462795D02*
X137607123Y-72558033D01*
X137607123Y-72558033D02*
X137559504Y-72700890D01*
X137559504Y-72700890D02*
X136988076Y-73272319D01*
X136988076Y-73272319D02*
X137607123Y-73272319D01*
X137940457Y-72272319D02*
X138607123Y-72272319D01*
X138607123Y-72272319D02*
X138178552Y-73272319D01*
X136654742Y-70762319D02*
X136321409Y-70286128D01*
X136083314Y-70762319D02*
X136083314Y-69762319D01*
X136083314Y-69762319D02*
X136464266Y-69762319D01*
X136464266Y-69762319D02*
X136559504Y-69809938D01*
X136559504Y-69809938D02*
X136607123Y-69857557D01*
X136607123Y-69857557D02*
X136654742Y-69952795D01*
X136654742Y-69952795D02*
X136654742Y-70095652D01*
X136654742Y-70095652D02*
X136607123Y-70190890D01*
X136607123Y-70190890D02*
X136559504Y-70238509D01*
X136559504Y-70238509D02*
X136464266Y-70286128D01*
X136464266Y-70286128D02*
X136083314Y-70286128D01*
X137035695Y-69857557D02*
X137083314Y-69809938D01*
X137083314Y-69809938D02*
X137178552Y-69762319D01*
X137178552Y-69762319D02*
X137416647Y-69762319D01*
X137416647Y-69762319D02*
X137511885Y-69809938D01*
X137511885Y-69809938D02*
X137559504Y-69857557D01*
X137559504Y-69857557D02*
X137607123Y-69952795D01*
X137607123Y-69952795D02*
X137607123Y-70048033D01*
X137607123Y-70048033D02*
X137559504Y-70190890D01*
X137559504Y-70190890D02*
X136988076Y-70762319D01*
X136988076Y-70762319D02*
X137607123Y-70762319D01*
X138464266Y-69762319D02*
X138273790Y-69762319D01*
X138273790Y-69762319D02*
X138178552Y-69809938D01*
X138178552Y-69809938D02*
X138130933Y-69857557D01*
X138130933Y-69857557D02*
X138035695Y-70000414D01*
X138035695Y-70000414D02*
X137988076Y-70190890D01*
X137988076Y-70190890D02*
X137988076Y-70571842D01*
X137988076Y-70571842D02*
X138035695Y-70667080D01*
X138035695Y-70667080D02*
X138083314Y-70714700D01*
X138083314Y-70714700D02*
X138178552Y-70762319D01*
X138178552Y-70762319D02*
X138369028Y-70762319D01*
X138369028Y-70762319D02*
X138464266Y-70714700D01*
X138464266Y-70714700D02*
X138511885Y-70667080D01*
X138511885Y-70667080D02*
X138559504Y-70571842D01*
X138559504Y-70571842D02*
X138559504Y-70333747D01*
X138559504Y-70333747D02*
X138511885Y-70238509D01*
X138511885Y-70238509D02*
X138464266Y-70190890D01*
X138464266Y-70190890D02*
X138369028Y-70143271D01*
X138369028Y-70143271D02*
X138178552Y-70143271D01*
X138178552Y-70143271D02*
X138083314Y-70190890D01*
X138083314Y-70190890D02*
X138035695Y-70238509D01*
X138035695Y-70238509D02*
X137988076Y-70333747D01*
X132304742Y-85822319D02*
X131971409Y-85346128D01*
X131733314Y-85822319D02*
X131733314Y-84822319D01*
X131733314Y-84822319D02*
X132114266Y-84822319D01*
X132114266Y-84822319D02*
X132209504Y-84869938D01*
X132209504Y-84869938D02*
X132257123Y-84917557D01*
X132257123Y-84917557D02*
X132304742Y-85012795D01*
X132304742Y-85012795D02*
X132304742Y-85155652D01*
X132304742Y-85155652D02*
X132257123Y-85250890D01*
X132257123Y-85250890D02*
X132209504Y-85298509D01*
X132209504Y-85298509D02*
X132114266Y-85346128D01*
X132114266Y-85346128D02*
X131733314Y-85346128D01*
X132685695Y-84917557D02*
X132733314Y-84869938D01*
X132733314Y-84869938D02*
X132828552Y-84822319D01*
X132828552Y-84822319D02*
X133066647Y-84822319D01*
X133066647Y-84822319D02*
X133161885Y-84869938D01*
X133161885Y-84869938D02*
X133209504Y-84917557D01*
X133209504Y-84917557D02*
X133257123Y-85012795D01*
X133257123Y-85012795D02*
X133257123Y-85108033D01*
X133257123Y-85108033D02*
X133209504Y-85250890D01*
X133209504Y-85250890D02*
X132638076Y-85822319D01*
X132638076Y-85822319D02*
X133257123Y-85822319D01*
X134161885Y-84822319D02*
X133685695Y-84822319D01*
X133685695Y-84822319D02*
X133638076Y-85298509D01*
X133638076Y-85298509D02*
X133685695Y-85250890D01*
X133685695Y-85250890D02*
X133780933Y-85203271D01*
X133780933Y-85203271D02*
X134019028Y-85203271D01*
X134019028Y-85203271D02*
X134114266Y-85250890D01*
X134114266Y-85250890D02*
X134161885Y-85298509D01*
X134161885Y-85298509D02*
X134209504Y-85393747D01*
X134209504Y-85393747D02*
X134209504Y-85631842D01*
X134209504Y-85631842D02*
X134161885Y-85727080D01*
X134161885Y-85727080D02*
X134114266Y-85774700D01*
X134114266Y-85774700D02*
X134019028Y-85822319D01*
X134019028Y-85822319D02*
X133780933Y-85822319D01*
X133780933Y-85822319D02*
X133685695Y-85774700D01*
X133685695Y-85774700D02*
X133638076Y-85727080D01*
X132304742Y-83312319D02*
X131971409Y-82836128D01*
X131733314Y-83312319D02*
X131733314Y-82312319D01*
X131733314Y-82312319D02*
X132114266Y-82312319D01*
X132114266Y-82312319D02*
X132209504Y-82359938D01*
X132209504Y-82359938D02*
X132257123Y-82407557D01*
X132257123Y-82407557D02*
X132304742Y-82502795D01*
X132304742Y-82502795D02*
X132304742Y-82645652D01*
X132304742Y-82645652D02*
X132257123Y-82740890D01*
X132257123Y-82740890D02*
X132209504Y-82788509D01*
X132209504Y-82788509D02*
X132114266Y-82836128D01*
X132114266Y-82836128D02*
X131733314Y-82836128D01*
X132685695Y-82407557D02*
X132733314Y-82359938D01*
X132733314Y-82359938D02*
X132828552Y-82312319D01*
X132828552Y-82312319D02*
X133066647Y-82312319D01*
X133066647Y-82312319D02*
X133161885Y-82359938D01*
X133161885Y-82359938D02*
X133209504Y-82407557D01*
X133209504Y-82407557D02*
X133257123Y-82502795D01*
X133257123Y-82502795D02*
X133257123Y-82598033D01*
X133257123Y-82598033D02*
X133209504Y-82740890D01*
X133209504Y-82740890D02*
X132638076Y-83312319D01*
X132638076Y-83312319D02*
X133257123Y-83312319D01*
X134114266Y-82645652D02*
X134114266Y-83312319D01*
X133876171Y-82264700D02*
X133638076Y-82978985D01*
X133638076Y-82978985D02*
X134257123Y-82978985D01*
X132304742Y-80802319D02*
X131971409Y-80326128D01*
X131733314Y-80802319D02*
X131733314Y-79802319D01*
X131733314Y-79802319D02*
X132114266Y-79802319D01*
X132114266Y-79802319D02*
X132209504Y-79849938D01*
X132209504Y-79849938D02*
X132257123Y-79897557D01*
X132257123Y-79897557D02*
X132304742Y-79992795D01*
X132304742Y-79992795D02*
X132304742Y-80135652D01*
X132304742Y-80135652D02*
X132257123Y-80230890D01*
X132257123Y-80230890D02*
X132209504Y-80278509D01*
X132209504Y-80278509D02*
X132114266Y-80326128D01*
X132114266Y-80326128D02*
X131733314Y-80326128D01*
X132685695Y-79897557D02*
X132733314Y-79849938D01*
X132733314Y-79849938D02*
X132828552Y-79802319D01*
X132828552Y-79802319D02*
X133066647Y-79802319D01*
X133066647Y-79802319D02*
X133161885Y-79849938D01*
X133161885Y-79849938D02*
X133209504Y-79897557D01*
X133209504Y-79897557D02*
X133257123Y-79992795D01*
X133257123Y-79992795D02*
X133257123Y-80088033D01*
X133257123Y-80088033D02*
X133209504Y-80230890D01*
X133209504Y-80230890D02*
X132638076Y-80802319D01*
X132638076Y-80802319D02*
X133257123Y-80802319D01*
X133590457Y-79802319D02*
X134209504Y-79802319D01*
X134209504Y-79802319D02*
X133876171Y-80183271D01*
X133876171Y-80183271D02*
X134019028Y-80183271D01*
X134019028Y-80183271D02*
X134114266Y-80230890D01*
X134114266Y-80230890D02*
X134161885Y-80278509D01*
X134161885Y-80278509D02*
X134209504Y-80373747D01*
X134209504Y-80373747D02*
X134209504Y-80611842D01*
X134209504Y-80611842D02*
X134161885Y-80707080D01*
X134161885Y-80707080D02*
X134114266Y-80754700D01*
X134114266Y-80754700D02*
X134019028Y-80802319D01*
X134019028Y-80802319D02*
X133733314Y-80802319D01*
X133733314Y-80802319D02*
X133638076Y-80754700D01*
X133638076Y-80754700D02*
X133590457Y-80707080D01*
X132304742Y-78292319D02*
X131971409Y-77816128D01*
X131733314Y-78292319D02*
X131733314Y-77292319D01*
X131733314Y-77292319D02*
X132114266Y-77292319D01*
X132114266Y-77292319D02*
X132209504Y-77339938D01*
X132209504Y-77339938D02*
X132257123Y-77387557D01*
X132257123Y-77387557D02*
X132304742Y-77482795D01*
X132304742Y-77482795D02*
X132304742Y-77625652D01*
X132304742Y-77625652D02*
X132257123Y-77720890D01*
X132257123Y-77720890D02*
X132209504Y-77768509D01*
X132209504Y-77768509D02*
X132114266Y-77816128D01*
X132114266Y-77816128D02*
X131733314Y-77816128D01*
X132685695Y-77387557D02*
X132733314Y-77339938D01*
X132733314Y-77339938D02*
X132828552Y-77292319D01*
X132828552Y-77292319D02*
X133066647Y-77292319D01*
X133066647Y-77292319D02*
X133161885Y-77339938D01*
X133161885Y-77339938D02*
X133209504Y-77387557D01*
X133209504Y-77387557D02*
X133257123Y-77482795D01*
X133257123Y-77482795D02*
X133257123Y-77578033D01*
X133257123Y-77578033D02*
X133209504Y-77720890D01*
X133209504Y-77720890D02*
X132638076Y-78292319D01*
X132638076Y-78292319D02*
X133257123Y-78292319D01*
X133638076Y-77387557D02*
X133685695Y-77339938D01*
X133685695Y-77339938D02*
X133780933Y-77292319D01*
X133780933Y-77292319D02*
X134019028Y-77292319D01*
X134019028Y-77292319D02*
X134114266Y-77339938D01*
X134114266Y-77339938D02*
X134161885Y-77387557D01*
X134161885Y-77387557D02*
X134209504Y-77482795D01*
X134209504Y-77482795D02*
X134209504Y-77578033D01*
X134209504Y-77578033D02*
X134161885Y-77720890D01*
X134161885Y-77720890D02*
X133590457Y-78292319D01*
X133590457Y-78292319D02*
X134209504Y-78292319D01*
X132304742Y-75782319D02*
X131971409Y-75306128D01*
X131733314Y-75782319D02*
X131733314Y-74782319D01*
X131733314Y-74782319D02*
X132114266Y-74782319D01*
X132114266Y-74782319D02*
X132209504Y-74829938D01*
X132209504Y-74829938D02*
X132257123Y-74877557D01*
X132257123Y-74877557D02*
X132304742Y-74972795D01*
X132304742Y-74972795D02*
X132304742Y-75115652D01*
X132304742Y-75115652D02*
X132257123Y-75210890D01*
X132257123Y-75210890D02*
X132209504Y-75258509D01*
X132209504Y-75258509D02*
X132114266Y-75306128D01*
X132114266Y-75306128D02*
X131733314Y-75306128D01*
X132685695Y-74877557D02*
X132733314Y-74829938D01*
X132733314Y-74829938D02*
X132828552Y-74782319D01*
X132828552Y-74782319D02*
X133066647Y-74782319D01*
X133066647Y-74782319D02*
X133161885Y-74829938D01*
X133161885Y-74829938D02*
X133209504Y-74877557D01*
X133209504Y-74877557D02*
X133257123Y-74972795D01*
X133257123Y-74972795D02*
X133257123Y-75068033D01*
X133257123Y-75068033D02*
X133209504Y-75210890D01*
X133209504Y-75210890D02*
X132638076Y-75782319D01*
X132638076Y-75782319D02*
X133257123Y-75782319D01*
X134209504Y-75782319D02*
X133638076Y-75782319D01*
X133923790Y-75782319D02*
X133923790Y-74782319D01*
X133923790Y-74782319D02*
X133828552Y-74925176D01*
X133828552Y-74925176D02*
X133733314Y-75020414D01*
X133733314Y-75020414D02*
X133638076Y-75068033D01*
X132304742Y-73272319D02*
X131971409Y-72796128D01*
X131733314Y-73272319D02*
X131733314Y-72272319D01*
X131733314Y-72272319D02*
X132114266Y-72272319D01*
X132114266Y-72272319D02*
X132209504Y-72319938D01*
X132209504Y-72319938D02*
X132257123Y-72367557D01*
X132257123Y-72367557D02*
X132304742Y-72462795D01*
X132304742Y-72462795D02*
X132304742Y-72605652D01*
X132304742Y-72605652D02*
X132257123Y-72700890D01*
X132257123Y-72700890D02*
X132209504Y-72748509D01*
X132209504Y-72748509D02*
X132114266Y-72796128D01*
X132114266Y-72796128D02*
X131733314Y-72796128D01*
X132685695Y-72367557D02*
X132733314Y-72319938D01*
X132733314Y-72319938D02*
X132828552Y-72272319D01*
X132828552Y-72272319D02*
X133066647Y-72272319D01*
X133066647Y-72272319D02*
X133161885Y-72319938D01*
X133161885Y-72319938D02*
X133209504Y-72367557D01*
X133209504Y-72367557D02*
X133257123Y-72462795D01*
X133257123Y-72462795D02*
X133257123Y-72558033D01*
X133257123Y-72558033D02*
X133209504Y-72700890D01*
X133209504Y-72700890D02*
X132638076Y-73272319D01*
X132638076Y-73272319D02*
X133257123Y-73272319D01*
X133876171Y-72272319D02*
X133971409Y-72272319D01*
X133971409Y-72272319D02*
X134066647Y-72319938D01*
X134066647Y-72319938D02*
X134114266Y-72367557D01*
X134114266Y-72367557D02*
X134161885Y-72462795D01*
X134161885Y-72462795D02*
X134209504Y-72653271D01*
X134209504Y-72653271D02*
X134209504Y-72891366D01*
X134209504Y-72891366D02*
X134161885Y-73081842D01*
X134161885Y-73081842D02*
X134114266Y-73177080D01*
X134114266Y-73177080D02*
X134066647Y-73224700D01*
X134066647Y-73224700D02*
X133971409Y-73272319D01*
X133971409Y-73272319D02*
X133876171Y-73272319D01*
X133876171Y-73272319D02*
X133780933Y-73224700D01*
X133780933Y-73224700D02*
X133733314Y-73177080D01*
X133733314Y-73177080D02*
X133685695Y-73081842D01*
X133685695Y-73081842D02*
X133638076Y-72891366D01*
X133638076Y-72891366D02*
X133638076Y-72653271D01*
X133638076Y-72653271D02*
X133685695Y-72462795D01*
X133685695Y-72462795D02*
X133733314Y-72367557D01*
X133733314Y-72367557D02*
X133780933Y-72319938D01*
X133780933Y-72319938D02*
X133876171Y-72272319D01*
X132304742Y-70762319D02*
X131971409Y-70286128D01*
X131733314Y-70762319D02*
X131733314Y-69762319D01*
X131733314Y-69762319D02*
X132114266Y-69762319D01*
X132114266Y-69762319D02*
X132209504Y-69809938D01*
X132209504Y-69809938D02*
X132257123Y-69857557D01*
X132257123Y-69857557D02*
X132304742Y-69952795D01*
X132304742Y-69952795D02*
X132304742Y-70095652D01*
X132304742Y-70095652D02*
X132257123Y-70190890D01*
X132257123Y-70190890D02*
X132209504Y-70238509D01*
X132209504Y-70238509D02*
X132114266Y-70286128D01*
X132114266Y-70286128D02*
X131733314Y-70286128D01*
X133257123Y-70762319D02*
X132685695Y-70762319D01*
X132971409Y-70762319D02*
X132971409Y-69762319D01*
X132971409Y-69762319D02*
X132876171Y-69905176D01*
X132876171Y-69905176D02*
X132780933Y-70000414D01*
X132780933Y-70000414D02*
X132685695Y-70048033D01*
X134114266Y-69762319D02*
X133923790Y-69762319D01*
X133923790Y-69762319D02*
X133828552Y-69809938D01*
X133828552Y-69809938D02*
X133780933Y-69857557D01*
X133780933Y-69857557D02*
X133685695Y-70000414D01*
X133685695Y-70000414D02*
X133638076Y-70190890D01*
X133638076Y-70190890D02*
X133638076Y-70571842D01*
X133638076Y-70571842D02*
X133685695Y-70667080D01*
X133685695Y-70667080D02*
X133733314Y-70714700D01*
X133733314Y-70714700D02*
X133828552Y-70762319D01*
X133828552Y-70762319D02*
X134019028Y-70762319D01*
X134019028Y-70762319D02*
X134114266Y-70714700D01*
X134114266Y-70714700D02*
X134161885Y-70667080D01*
X134161885Y-70667080D02*
X134209504Y-70571842D01*
X134209504Y-70571842D02*
X134209504Y-70333747D01*
X134209504Y-70333747D02*
X134161885Y-70238509D01*
X134161885Y-70238509D02*
X134114266Y-70190890D01*
X134114266Y-70190890D02*
X134019028Y-70143271D01*
X134019028Y-70143271D02*
X133828552Y-70143271D01*
X133828552Y-70143271D02*
X133733314Y-70190890D01*
X133733314Y-70190890D02*
X133685695Y-70238509D01*
X133685695Y-70238509D02*
X133638076Y-70333747D01*
X127954742Y-85822319D02*
X127621409Y-85346128D01*
X127383314Y-85822319D02*
X127383314Y-84822319D01*
X127383314Y-84822319D02*
X127764266Y-84822319D01*
X127764266Y-84822319D02*
X127859504Y-84869938D01*
X127859504Y-84869938D02*
X127907123Y-84917557D01*
X127907123Y-84917557D02*
X127954742Y-85012795D01*
X127954742Y-85012795D02*
X127954742Y-85155652D01*
X127954742Y-85155652D02*
X127907123Y-85250890D01*
X127907123Y-85250890D02*
X127859504Y-85298509D01*
X127859504Y-85298509D02*
X127764266Y-85346128D01*
X127764266Y-85346128D02*
X127383314Y-85346128D01*
X128907123Y-85822319D02*
X128335695Y-85822319D01*
X128621409Y-85822319D02*
X128621409Y-84822319D01*
X128621409Y-84822319D02*
X128526171Y-84965176D01*
X128526171Y-84965176D02*
X128430933Y-85060414D01*
X128430933Y-85060414D02*
X128335695Y-85108033D01*
X129764266Y-85155652D02*
X129764266Y-85822319D01*
X129526171Y-84774700D02*
X129288076Y-85488985D01*
X129288076Y-85488985D02*
X129907123Y-85488985D01*
X136854742Y-100132319D02*
X136521409Y-99656128D01*
X136283314Y-100132319D02*
X136283314Y-99132319D01*
X136283314Y-99132319D02*
X136664266Y-99132319D01*
X136664266Y-99132319D02*
X136759504Y-99179938D01*
X136759504Y-99179938D02*
X136807123Y-99227557D01*
X136807123Y-99227557D02*
X136854742Y-99322795D01*
X136854742Y-99322795D02*
X136854742Y-99465652D01*
X136854742Y-99465652D02*
X136807123Y-99560890D01*
X136807123Y-99560890D02*
X136759504Y-99608509D01*
X136759504Y-99608509D02*
X136664266Y-99656128D01*
X136664266Y-99656128D02*
X136283314Y-99656128D01*
X137807123Y-100132319D02*
X137235695Y-100132319D01*
X137521409Y-100132319D02*
X137521409Y-99132319D01*
X137521409Y-99132319D02*
X137426171Y-99275176D01*
X137426171Y-99275176D02*
X137330933Y-99370414D01*
X137330933Y-99370414D02*
X137235695Y-99418033D01*
X138140457Y-99132319D02*
X138759504Y-99132319D01*
X138759504Y-99132319D02*
X138426171Y-99513271D01*
X138426171Y-99513271D02*
X138569028Y-99513271D01*
X138569028Y-99513271D02*
X138664266Y-99560890D01*
X138664266Y-99560890D02*
X138711885Y-99608509D01*
X138711885Y-99608509D02*
X138759504Y-99703747D01*
X138759504Y-99703747D02*
X138759504Y-99941842D01*
X138759504Y-99941842D02*
X138711885Y-100037080D01*
X138711885Y-100037080D02*
X138664266Y-100084700D01*
X138664266Y-100084700D02*
X138569028Y-100132319D01*
X138569028Y-100132319D02*
X138283314Y-100132319D01*
X138283314Y-100132319D02*
X138188076Y-100084700D01*
X138188076Y-100084700D02*
X138140457Y-100037080D01*
X127954742Y-83312319D02*
X127621409Y-82836128D01*
X127383314Y-83312319D02*
X127383314Y-82312319D01*
X127383314Y-82312319D02*
X127764266Y-82312319D01*
X127764266Y-82312319D02*
X127859504Y-82359938D01*
X127859504Y-82359938D02*
X127907123Y-82407557D01*
X127907123Y-82407557D02*
X127954742Y-82502795D01*
X127954742Y-82502795D02*
X127954742Y-82645652D01*
X127954742Y-82645652D02*
X127907123Y-82740890D01*
X127907123Y-82740890D02*
X127859504Y-82788509D01*
X127859504Y-82788509D02*
X127764266Y-82836128D01*
X127764266Y-82836128D02*
X127383314Y-82836128D01*
X128907123Y-83312319D02*
X128335695Y-83312319D01*
X128621409Y-83312319D02*
X128621409Y-82312319D01*
X128621409Y-82312319D02*
X128526171Y-82455176D01*
X128526171Y-82455176D02*
X128430933Y-82550414D01*
X128430933Y-82550414D02*
X128335695Y-82598033D01*
X129288076Y-82407557D02*
X129335695Y-82359938D01*
X129335695Y-82359938D02*
X129430933Y-82312319D01*
X129430933Y-82312319D02*
X129669028Y-82312319D01*
X129669028Y-82312319D02*
X129764266Y-82359938D01*
X129764266Y-82359938D02*
X129811885Y-82407557D01*
X129811885Y-82407557D02*
X129859504Y-82502795D01*
X129859504Y-82502795D02*
X129859504Y-82598033D01*
X129859504Y-82598033D02*
X129811885Y-82740890D01*
X129811885Y-82740890D02*
X129240457Y-83312319D01*
X129240457Y-83312319D02*
X129859504Y-83312319D01*
X136854742Y-97182319D02*
X136521409Y-96706128D01*
X136283314Y-97182319D02*
X136283314Y-96182319D01*
X136283314Y-96182319D02*
X136664266Y-96182319D01*
X136664266Y-96182319D02*
X136759504Y-96229938D01*
X136759504Y-96229938D02*
X136807123Y-96277557D01*
X136807123Y-96277557D02*
X136854742Y-96372795D01*
X136854742Y-96372795D02*
X136854742Y-96515652D01*
X136854742Y-96515652D02*
X136807123Y-96610890D01*
X136807123Y-96610890D02*
X136759504Y-96658509D01*
X136759504Y-96658509D02*
X136664266Y-96706128D01*
X136664266Y-96706128D02*
X136283314Y-96706128D01*
X137807123Y-97182319D02*
X137235695Y-97182319D01*
X137521409Y-97182319D02*
X137521409Y-96182319D01*
X137521409Y-96182319D02*
X137426171Y-96325176D01*
X137426171Y-96325176D02*
X137330933Y-96420414D01*
X137330933Y-96420414D02*
X137235695Y-96468033D01*
X138759504Y-97182319D02*
X138188076Y-97182319D01*
X138473790Y-97182319D02*
X138473790Y-96182319D01*
X138473790Y-96182319D02*
X138378552Y-96325176D01*
X138378552Y-96325176D02*
X138283314Y-96420414D01*
X138283314Y-96420414D02*
X138188076Y-96468033D01*
X136854742Y-94232319D02*
X136521409Y-93756128D01*
X136283314Y-94232319D02*
X136283314Y-93232319D01*
X136283314Y-93232319D02*
X136664266Y-93232319D01*
X136664266Y-93232319D02*
X136759504Y-93279938D01*
X136759504Y-93279938D02*
X136807123Y-93327557D01*
X136807123Y-93327557D02*
X136854742Y-93422795D01*
X136854742Y-93422795D02*
X136854742Y-93565652D01*
X136854742Y-93565652D02*
X136807123Y-93660890D01*
X136807123Y-93660890D02*
X136759504Y-93708509D01*
X136759504Y-93708509D02*
X136664266Y-93756128D01*
X136664266Y-93756128D02*
X136283314Y-93756128D01*
X137807123Y-94232319D02*
X137235695Y-94232319D01*
X137521409Y-94232319D02*
X137521409Y-93232319D01*
X137521409Y-93232319D02*
X137426171Y-93375176D01*
X137426171Y-93375176D02*
X137330933Y-93470414D01*
X137330933Y-93470414D02*
X137235695Y-93518033D01*
X138426171Y-93232319D02*
X138521409Y-93232319D01*
X138521409Y-93232319D02*
X138616647Y-93279938D01*
X138616647Y-93279938D02*
X138664266Y-93327557D01*
X138664266Y-93327557D02*
X138711885Y-93422795D01*
X138711885Y-93422795D02*
X138759504Y-93613271D01*
X138759504Y-93613271D02*
X138759504Y-93851366D01*
X138759504Y-93851366D02*
X138711885Y-94041842D01*
X138711885Y-94041842D02*
X138664266Y-94137080D01*
X138664266Y-94137080D02*
X138616647Y-94184700D01*
X138616647Y-94184700D02*
X138521409Y-94232319D01*
X138521409Y-94232319D02*
X138426171Y-94232319D01*
X138426171Y-94232319D02*
X138330933Y-94184700D01*
X138330933Y-94184700D02*
X138283314Y-94137080D01*
X138283314Y-94137080D02*
X138235695Y-94041842D01*
X138235695Y-94041842D02*
X138188076Y-93851366D01*
X138188076Y-93851366D02*
X138188076Y-93613271D01*
X138188076Y-93613271D02*
X138235695Y-93422795D01*
X138235695Y-93422795D02*
X138283314Y-93327557D01*
X138283314Y-93327557D02*
X138330933Y-93279938D01*
X138330933Y-93279938D02*
X138426171Y-93232319D01*
X137330933Y-91282319D02*
X136997600Y-90806128D01*
X136759505Y-91282319D02*
X136759505Y-90282319D01*
X136759505Y-90282319D02*
X137140457Y-90282319D01*
X137140457Y-90282319D02*
X137235695Y-90329938D01*
X137235695Y-90329938D02*
X137283314Y-90377557D01*
X137283314Y-90377557D02*
X137330933Y-90472795D01*
X137330933Y-90472795D02*
X137330933Y-90615652D01*
X137330933Y-90615652D02*
X137283314Y-90710890D01*
X137283314Y-90710890D02*
X137235695Y-90758509D01*
X137235695Y-90758509D02*
X137140457Y-90806128D01*
X137140457Y-90806128D02*
X136759505Y-90806128D01*
X137664267Y-90282319D02*
X138330933Y-90282319D01*
X138330933Y-90282319D02*
X137902362Y-91282319D01*
X137330933Y-88332319D02*
X136997600Y-87856128D01*
X136759505Y-88332319D02*
X136759505Y-87332319D01*
X136759505Y-87332319D02*
X137140457Y-87332319D01*
X137140457Y-87332319D02*
X137235695Y-87379938D01*
X137235695Y-87379938D02*
X137283314Y-87427557D01*
X137283314Y-87427557D02*
X137330933Y-87522795D01*
X137330933Y-87522795D02*
X137330933Y-87665652D01*
X137330933Y-87665652D02*
X137283314Y-87760890D01*
X137283314Y-87760890D02*
X137235695Y-87808509D01*
X137235695Y-87808509D02*
X137140457Y-87856128D01*
X137140457Y-87856128D02*
X136759505Y-87856128D01*
X138188076Y-87332319D02*
X137997600Y-87332319D01*
X137997600Y-87332319D02*
X137902362Y-87379938D01*
X137902362Y-87379938D02*
X137854743Y-87427557D01*
X137854743Y-87427557D02*
X137759505Y-87570414D01*
X137759505Y-87570414D02*
X137711886Y-87760890D01*
X137711886Y-87760890D02*
X137711886Y-88141842D01*
X137711886Y-88141842D02*
X137759505Y-88237080D01*
X137759505Y-88237080D02*
X137807124Y-88284700D01*
X137807124Y-88284700D02*
X137902362Y-88332319D01*
X137902362Y-88332319D02*
X138092838Y-88332319D01*
X138092838Y-88332319D02*
X138188076Y-88284700D01*
X138188076Y-88284700D02*
X138235695Y-88237080D01*
X138235695Y-88237080D02*
X138283314Y-88141842D01*
X138283314Y-88141842D02*
X138283314Y-87903747D01*
X138283314Y-87903747D02*
X138235695Y-87808509D01*
X138235695Y-87808509D02*
X138188076Y-87760890D01*
X138188076Y-87760890D02*
X138092838Y-87713271D01*
X138092838Y-87713271D02*
X137902362Y-87713271D01*
X137902362Y-87713271D02*
X137807124Y-87760890D01*
X137807124Y-87760890D02*
X137759505Y-87808509D01*
X137759505Y-87808509D02*
X137711886Y-87903747D01*
X132340933Y-109632319D02*
X132007600Y-109156128D01*
X131769505Y-109632319D02*
X131769505Y-108632319D01*
X131769505Y-108632319D02*
X132150457Y-108632319D01*
X132150457Y-108632319D02*
X132245695Y-108679938D01*
X132245695Y-108679938D02*
X132293314Y-108727557D01*
X132293314Y-108727557D02*
X132340933Y-108822795D01*
X132340933Y-108822795D02*
X132340933Y-108965652D01*
X132340933Y-108965652D02*
X132293314Y-109060890D01*
X132293314Y-109060890D02*
X132245695Y-109108509D01*
X132245695Y-109108509D02*
X132150457Y-109156128D01*
X132150457Y-109156128D02*
X131769505Y-109156128D01*
X133245695Y-108632319D02*
X132769505Y-108632319D01*
X132769505Y-108632319D02*
X132721886Y-109108509D01*
X132721886Y-109108509D02*
X132769505Y-109060890D01*
X132769505Y-109060890D02*
X132864743Y-109013271D01*
X132864743Y-109013271D02*
X133102838Y-109013271D01*
X133102838Y-109013271D02*
X133198076Y-109060890D01*
X133198076Y-109060890D02*
X133245695Y-109108509D01*
X133245695Y-109108509D02*
X133293314Y-109203747D01*
X133293314Y-109203747D02*
X133293314Y-109441842D01*
X133293314Y-109441842D02*
X133245695Y-109537080D01*
X133245695Y-109537080D02*
X133198076Y-109584700D01*
X133198076Y-109584700D02*
X133102838Y-109632319D01*
X133102838Y-109632319D02*
X132864743Y-109632319D01*
X132864743Y-109632319D02*
X132769505Y-109584700D01*
X132769505Y-109584700D02*
X132721886Y-109537080D01*
X128710933Y-112142319D02*
X128377600Y-111666128D01*
X128139505Y-112142319D02*
X128139505Y-111142319D01*
X128139505Y-111142319D02*
X128520457Y-111142319D01*
X128520457Y-111142319D02*
X128615695Y-111189938D01*
X128615695Y-111189938D02*
X128663314Y-111237557D01*
X128663314Y-111237557D02*
X128710933Y-111332795D01*
X128710933Y-111332795D02*
X128710933Y-111475652D01*
X128710933Y-111475652D02*
X128663314Y-111570890D01*
X128663314Y-111570890D02*
X128615695Y-111618509D01*
X128615695Y-111618509D02*
X128520457Y-111666128D01*
X128520457Y-111666128D02*
X128139505Y-111666128D01*
X129568076Y-111475652D02*
X129568076Y-112142319D01*
X129329981Y-111094700D02*
X129091886Y-111808985D01*
X129091886Y-111808985D02*
X129710933Y-111808985D01*
X128710933Y-109632319D02*
X128377600Y-109156128D01*
X128139505Y-109632319D02*
X128139505Y-108632319D01*
X128139505Y-108632319D02*
X128520457Y-108632319D01*
X128520457Y-108632319D02*
X128615695Y-108679938D01*
X128615695Y-108679938D02*
X128663314Y-108727557D01*
X128663314Y-108727557D02*
X128710933Y-108822795D01*
X128710933Y-108822795D02*
X128710933Y-108965652D01*
X128710933Y-108965652D02*
X128663314Y-109060890D01*
X128663314Y-109060890D02*
X128615695Y-109108509D01*
X128615695Y-109108509D02*
X128520457Y-109156128D01*
X128520457Y-109156128D02*
X128139505Y-109156128D01*
X129091886Y-108727557D02*
X129139505Y-108679938D01*
X129139505Y-108679938D02*
X129234743Y-108632319D01*
X129234743Y-108632319D02*
X129472838Y-108632319D01*
X129472838Y-108632319D02*
X129568076Y-108679938D01*
X129568076Y-108679938D02*
X129615695Y-108727557D01*
X129615695Y-108727557D02*
X129663314Y-108822795D01*
X129663314Y-108822795D02*
X129663314Y-108918033D01*
X129663314Y-108918033D02*
X129615695Y-109060890D01*
X129615695Y-109060890D02*
X129044267Y-109632319D01*
X129044267Y-109632319D02*
X129663314Y-109632319D01*
X141950933Y-83012319D02*
X141474743Y-83012319D01*
X141474743Y-83012319D02*
X141474743Y-82012319D01*
X142236648Y-82107557D02*
X142284267Y-82059938D01*
X142284267Y-82059938D02*
X142379505Y-82012319D01*
X142379505Y-82012319D02*
X142617600Y-82012319D01*
X142617600Y-82012319D02*
X142712838Y-82059938D01*
X142712838Y-82059938D02*
X142760457Y-82107557D01*
X142760457Y-82107557D02*
X142808076Y-82202795D01*
X142808076Y-82202795D02*
X142808076Y-82298033D01*
X142808076Y-82298033D02*
X142760457Y-82440890D01*
X142760457Y-82440890D02*
X142189029Y-83012319D01*
X142189029Y-83012319D02*
X142808076Y-83012319D01*
X141950933Y-79262319D02*
X141474743Y-79262319D01*
X141474743Y-79262319D02*
X141474743Y-78262319D01*
X142808076Y-79262319D02*
X142236648Y-79262319D01*
X142522362Y-79262319D02*
X142522362Y-78262319D01*
X142522362Y-78262319D02*
X142427124Y-78405176D01*
X142427124Y-78405176D02*
X142331886Y-78500414D01*
X142331886Y-78500414D02*
X142236648Y-78548033D01*
X131638076Y-101682319D02*
X131638076Y-102396604D01*
X131638076Y-102396604D02*
X131590457Y-102539461D01*
X131590457Y-102539461D02*
X131495219Y-102634700D01*
X131495219Y-102634700D02*
X131352362Y-102682319D01*
X131352362Y-102682319D02*
X131257124Y-102682319D01*
X132114267Y-102682319D02*
X132114267Y-101682319D01*
X132114267Y-101682319D02*
X132495219Y-101682319D01*
X132495219Y-101682319D02*
X132590457Y-101729938D01*
X132590457Y-101729938D02*
X132638076Y-101777557D01*
X132638076Y-101777557D02*
X132685695Y-101872795D01*
X132685695Y-101872795D02*
X132685695Y-102015652D01*
X132685695Y-102015652D02*
X132638076Y-102110890D01*
X132638076Y-102110890D02*
X132590457Y-102158509D01*
X132590457Y-102158509D02*
X132495219Y-102206128D01*
X132495219Y-102206128D02*
X132114267Y-102206128D01*
X133638076Y-102682319D02*
X133066648Y-102682319D01*
X133352362Y-102682319D02*
X133352362Y-101682319D01*
X133352362Y-101682319D02*
X133257124Y-101825176D01*
X133257124Y-101825176D02*
X133161886Y-101920414D01*
X133161886Y-101920414D02*
X133066648Y-101968033D01*
X134209505Y-102110890D02*
X134114267Y-102063271D01*
X134114267Y-102063271D02*
X134066648Y-102015652D01*
X134066648Y-102015652D02*
X134019029Y-101920414D01*
X134019029Y-101920414D02*
X134019029Y-101872795D01*
X134019029Y-101872795D02*
X134066648Y-101777557D01*
X134066648Y-101777557D02*
X134114267Y-101729938D01*
X134114267Y-101729938D02*
X134209505Y-101682319D01*
X134209505Y-101682319D02*
X134399981Y-101682319D01*
X134399981Y-101682319D02*
X134495219Y-101729938D01*
X134495219Y-101729938D02*
X134542838Y-101777557D01*
X134542838Y-101777557D02*
X134590457Y-101872795D01*
X134590457Y-101872795D02*
X134590457Y-101920414D01*
X134590457Y-101920414D02*
X134542838Y-102015652D01*
X134542838Y-102015652D02*
X134495219Y-102063271D01*
X134495219Y-102063271D02*
X134399981Y-102110890D01*
X134399981Y-102110890D02*
X134209505Y-102110890D01*
X134209505Y-102110890D02*
X134114267Y-102158509D01*
X134114267Y-102158509D02*
X134066648Y-102206128D01*
X134066648Y-102206128D02*
X134019029Y-102301366D01*
X134019029Y-102301366D02*
X134019029Y-102491842D01*
X134019029Y-102491842D02*
X134066648Y-102587080D01*
X134066648Y-102587080D02*
X134114267Y-102634700D01*
X134114267Y-102634700D02*
X134209505Y-102682319D01*
X134209505Y-102682319D02*
X134399981Y-102682319D01*
X134399981Y-102682319D02*
X134495219Y-102634700D01*
X134495219Y-102634700D02*
X134542838Y-102587080D01*
X134542838Y-102587080D02*
X134590457Y-102491842D01*
X134590457Y-102491842D02*
X134590457Y-102301366D01*
X134590457Y-102301366D02*
X134542838Y-102206128D01*
X134542838Y-102206128D02*
X134495219Y-102158509D01*
X134495219Y-102158509D02*
X134399981Y-102110890D01*
X131638076Y-98132319D02*
X131638076Y-98846604D01*
X131638076Y-98846604D02*
X131590457Y-98989461D01*
X131590457Y-98989461D02*
X131495219Y-99084700D01*
X131495219Y-99084700D02*
X131352362Y-99132319D01*
X131352362Y-99132319D02*
X131257124Y-99132319D01*
X132114267Y-99132319D02*
X132114267Y-98132319D01*
X132114267Y-98132319D02*
X132495219Y-98132319D01*
X132495219Y-98132319D02*
X132590457Y-98179938D01*
X132590457Y-98179938D02*
X132638076Y-98227557D01*
X132638076Y-98227557D02*
X132685695Y-98322795D01*
X132685695Y-98322795D02*
X132685695Y-98465652D01*
X132685695Y-98465652D02*
X132638076Y-98560890D01*
X132638076Y-98560890D02*
X132590457Y-98608509D01*
X132590457Y-98608509D02*
X132495219Y-98656128D01*
X132495219Y-98656128D02*
X132114267Y-98656128D01*
X133638076Y-99132319D02*
X133066648Y-99132319D01*
X133352362Y-99132319D02*
X133352362Y-98132319D01*
X133352362Y-98132319D02*
X133257124Y-98275176D01*
X133257124Y-98275176D02*
X133161886Y-98370414D01*
X133161886Y-98370414D02*
X133066648Y-98418033D01*
X134495219Y-98132319D02*
X134304743Y-98132319D01*
X134304743Y-98132319D02*
X134209505Y-98179938D01*
X134209505Y-98179938D02*
X134161886Y-98227557D01*
X134161886Y-98227557D02*
X134066648Y-98370414D01*
X134066648Y-98370414D02*
X134019029Y-98560890D01*
X134019029Y-98560890D02*
X134019029Y-98941842D01*
X134019029Y-98941842D02*
X134066648Y-99037080D01*
X134066648Y-99037080D02*
X134114267Y-99084700D01*
X134114267Y-99084700D02*
X134209505Y-99132319D01*
X134209505Y-99132319D02*
X134399981Y-99132319D01*
X134399981Y-99132319D02*
X134495219Y-99084700D01*
X134495219Y-99084700D02*
X134542838Y-99037080D01*
X134542838Y-99037080D02*
X134590457Y-98941842D01*
X134590457Y-98941842D02*
X134590457Y-98703747D01*
X134590457Y-98703747D02*
X134542838Y-98608509D01*
X134542838Y-98608509D02*
X134495219Y-98560890D01*
X134495219Y-98560890D02*
X134399981Y-98513271D01*
X134399981Y-98513271D02*
X134209505Y-98513271D01*
X134209505Y-98513271D02*
X134114267Y-98560890D01*
X134114267Y-98560890D02*
X134066648Y-98608509D01*
X134066648Y-98608509D02*
X134019029Y-98703747D01*
X131638076Y-94582319D02*
X131638076Y-95296604D01*
X131638076Y-95296604D02*
X131590457Y-95439461D01*
X131590457Y-95439461D02*
X131495219Y-95534700D01*
X131495219Y-95534700D02*
X131352362Y-95582319D01*
X131352362Y-95582319D02*
X131257124Y-95582319D01*
X132114267Y-95582319D02*
X132114267Y-94582319D01*
X132114267Y-94582319D02*
X132495219Y-94582319D01*
X132495219Y-94582319D02*
X132590457Y-94629938D01*
X132590457Y-94629938D02*
X132638076Y-94677557D01*
X132638076Y-94677557D02*
X132685695Y-94772795D01*
X132685695Y-94772795D02*
X132685695Y-94915652D01*
X132685695Y-94915652D02*
X132638076Y-95010890D01*
X132638076Y-95010890D02*
X132590457Y-95058509D01*
X132590457Y-95058509D02*
X132495219Y-95106128D01*
X132495219Y-95106128D02*
X132114267Y-95106128D01*
X133638076Y-95582319D02*
X133066648Y-95582319D01*
X133352362Y-95582319D02*
X133352362Y-94582319D01*
X133352362Y-94582319D02*
X133257124Y-94725176D01*
X133257124Y-94725176D02*
X133161886Y-94820414D01*
X133161886Y-94820414D02*
X133066648Y-94868033D01*
X134542838Y-94582319D02*
X134066648Y-94582319D01*
X134066648Y-94582319D02*
X134019029Y-95058509D01*
X134019029Y-95058509D02*
X134066648Y-95010890D01*
X134066648Y-95010890D02*
X134161886Y-94963271D01*
X134161886Y-94963271D02*
X134399981Y-94963271D01*
X134399981Y-94963271D02*
X134495219Y-95010890D01*
X134495219Y-95010890D02*
X134542838Y-95058509D01*
X134542838Y-95058509D02*
X134590457Y-95153747D01*
X134590457Y-95153747D02*
X134590457Y-95391842D01*
X134590457Y-95391842D02*
X134542838Y-95487080D01*
X134542838Y-95487080D02*
X134495219Y-95534700D01*
X134495219Y-95534700D02*
X134399981Y-95582319D01*
X134399981Y-95582319D02*
X134161886Y-95582319D01*
X134161886Y-95582319D02*
X134066648Y-95534700D01*
X134066648Y-95534700D02*
X134019029Y-95487080D01*
X131638076Y-91032319D02*
X131638076Y-91746604D01*
X131638076Y-91746604D02*
X131590457Y-91889461D01*
X131590457Y-91889461D02*
X131495219Y-91984700D01*
X131495219Y-91984700D02*
X131352362Y-92032319D01*
X131352362Y-92032319D02*
X131257124Y-92032319D01*
X132114267Y-92032319D02*
X132114267Y-91032319D01*
X132114267Y-91032319D02*
X132495219Y-91032319D01*
X132495219Y-91032319D02*
X132590457Y-91079938D01*
X132590457Y-91079938D02*
X132638076Y-91127557D01*
X132638076Y-91127557D02*
X132685695Y-91222795D01*
X132685695Y-91222795D02*
X132685695Y-91365652D01*
X132685695Y-91365652D02*
X132638076Y-91460890D01*
X132638076Y-91460890D02*
X132590457Y-91508509D01*
X132590457Y-91508509D02*
X132495219Y-91556128D01*
X132495219Y-91556128D02*
X132114267Y-91556128D01*
X133638076Y-92032319D02*
X133066648Y-92032319D01*
X133352362Y-92032319D02*
X133352362Y-91032319D01*
X133352362Y-91032319D02*
X133257124Y-91175176D01*
X133257124Y-91175176D02*
X133161886Y-91270414D01*
X133161886Y-91270414D02*
X133066648Y-91318033D01*
X134495219Y-91365652D02*
X134495219Y-92032319D01*
X134257124Y-90984700D02*
X134019029Y-91698985D01*
X134019029Y-91698985D02*
X134638076Y-91698985D01*
X131638076Y-87482319D02*
X131638076Y-88196604D01*
X131638076Y-88196604D02*
X131590457Y-88339461D01*
X131590457Y-88339461D02*
X131495219Y-88434700D01*
X131495219Y-88434700D02*
X131352362Y-88482319D01*
X131352362Y-88482319D02*
X131257124Y-88482319D01*
X132114267Y-88482319D02*
X132114267Y-87482319D01*
X132114267Y-87482319D02*
X132495219Y-87482319D01*
X132495219Y-87482319D02*
X132590457Y-87529938D01*
X132590457Y-87529938D02*
X132638076Y-87577557D01*
X132638076Y-87577557D02*
X132685695Y-87672795D01*
X132685695Y-87672795D02*
X132685695Y-87815652D01*
X132685695Y-87815652D02*
X132638076Y-87910890D01*
X132638076Y-87910890D02*
X132590457Y-87958509D01*
X132590457Y-87958509D02*
X132495219Y-88006128D01*
X132495219Y-88006128D02*
X132114267Y-88006128D01*
X133638076Y-88482319D02*
X133066648Y-88482319D01*
X133352362Y-88482319D02*
X133352362Y-87482319D01*
X133352362Y-87482319D02*
X133257124Y-87625176D01*
X133257124Y-87625176D02*
X133161886Y-87720414D01*
X133161886Y-87720414D02*
X133066648Y-87768033D01*
X133971410Y-87482319D02*
X134590457Y-87482319D01*
X134590457Y-87482319D02*
X134257124Y-87863271D01*
X134257124Y-87863271D02*
X134399981Y-87863271D01*
X134399981Y-87863271D02*
X134495219Y-87910890D01*
X134495219Y-87910890D02*
X134542838Y-87958509D01*
X134542838Y-87958509D02*
X134590457Y-88053747D01*
X134590457Y-88053747D02*
X134590457Y-88291842D01*
X134590457Y-88291842D02*
X134542838Y-88387080D01*
X134542838Y-88387080D02*
X134495219Y-88434700D01*
X134495219Y-88434700D02*
X134399981Y-88482319D01*
X134399981Y-88482319D02*
X134114267Y-88482319D01*
X134114267Y-88482319D02*
X134019029Y-88434700D01*
X134019029Y-88434700D02*
X133971410Y-88387080D01*
X127288076Y-105232319D02*
X127288076Y-105946604D01*
X127288076Y-105946604D02*
X127240457Y-106089461D01*
X127240457Y-106089461D02*
X127145219Y-106184700D01*
X127145219Y-106184700D02*
X127002362Y-106232319D01*
X127002362Y-106232319D02*
X126907124Y-106232319D01*
X127764267Y-106232319D02*
X127764267Y-105232319D01*
X127764267Y-105232319D02*
X128145219Y-105232319D01*
X128145219Y-105232319D02*
X128240457Y-105279938D01*
X128240457Y-105279938D02*
X128288076Y-105327557D01*
X128288076Y-105327557D02*
X128335695Y-105422795D01*
X128335695Y-105422795D02*
X128335695Y-105565652D01*
X128335695Y-105565652D02*
X128288076Y-105660890D01*
X128288076Y-105660890D02*
X128240457Y-105708509D01*
X128240457Y-105708509D02*
X128145219Y-105756128D01*
X128145219Y-105756128D02*
X127764267Y-105756128D01*
X129288076Y-106232319D02*
X128716648Y-106232319D01*
X129002362Y-106232319D02*
X129002362Y-105232319D01*
X129002362Y-105232319D02*
X128907124Y-105375176D01*
X128907124Y-105375176D02*
X128811886Y-105470414D01*
X128811886Y-105470414D02*
X128716648Y-105518033D01*
X129669029Y-105327557D02*
X129716648Y-105279938D01*
X129716648Y-105279938D02*
X129811886Y-105232319D01*
X129811886Y-105232319D02*
X130049981Y-105232319D01*
X130049981Y-105232319D02*
X130145219Y-105279938D01*
X130145219Y-105279938D02*
X130192838Y-105327557D01*
X130192838Y-105327557D02*
X130240457Y-105422795D01*
X130240457Y-105422795D02*
X130240457Y-105518033D01*
X130240457Y-105518033D02*
X130192838Y-105660890D01*
X130192838Y-105660890D02*
X129621410Y-106232319D01*
X129621410Y-106232319D02*
X130240457Y-106232319D01*
X127288076Y-101682319D02*
X127288076Y-102396604D01*
X127288076Y-102396604D02*
X127240457Y-102539461D01*
X127240457Y-102539461D02*
X127145219Y-102634700D01*
X127145219Y-102634700D02*
X127002362Y-102682319D01*
X127002362Y-102682319D02*
X126907124Y-102682319D01*
X127764267Y-102682319D02*
X127764267Y-101682319D01*
X127764267Y-101682319D02*
X128145219Y-101682319D01*
X128145219Y-101682319D02*
X128240457Y-101729938D01*
X128240457Y-101729938D02*
X128288076Y-101777557D01*
X128288076Y-101777557D02*
X128335695Y-101872795D01*
X128335695Y-101872795D02*
X128335695Y-102015652D01*
X128335695Y-102015652D02*
X128288076Y-102110890D01*
X128288076Y-102110890D02*
X128240457Y-102158509D01*
X128240457Y-102158509D02*
X128145219Y-102206128D01*
X128145219Y-102206128D02*
X127764267Y-102206128D01*
X129288076Y-102682319D02*
X128716648Y-102682319D01*
X129002362Y-102682319D02*
X129002362Y-101682319D01*
X129002362Y-101682319D02*
X128907124Y-101825176D01*
X128907124Y-101825176D02*
X128811886Y-101920414D01*
X128811886Y-101920414D02*
X128716648Y-101968033D01*
X130240457Y-102682319D02*
X129669029Y-102682319D01*
X129954743Y-102682319D02*
X129954743Y-101682319D01*
X129954743Y-101682319D02*
X129859505Y-101825176D01*
X129859505Y-101825176D02*
X129764267Y-101920414D01*
X129764267Y-101920414D02*
X129669029Y-101968033D01*
X127288076Y-98132319D02*
X127288076Y-98846604D01*
X127288076Y-98846604D02*
X127240457Y-98989461D01*
X127240457Y-98989461D02*
X127145219Y-99084700D01*
X127145219Y-99084700D02*
X127002362Y-99132319D01*
X127002362Y-99132319D02*
X126907124Y-99132319D01*
X127764267Y-99132319D02*
X127764267Y-98132319D01*
X127764267Y-98132319D02*
X128145219Y-98132319D01*
X128145219Y-98132319D02*
X128240457Y-98179938D01*
X128240457Y-98179938D02*
X128288076Y-98227557D01*
X128288076Y-98227557D02*
X128335695Y-98322795D01*
X128335695Y-98322795D02*
X128335695Y-98465652D01*
X128335695Y-98465652D02*
X128288076Y-98560890D01*
X128288076Y-98560890D02*
X128240457Y-98608509D01*
X128240457Y-98608509D02*
X128145219Y-98656128D01*
X128145219Y-98656128D02*
X127764267Y-98656128D01*
X129288076Y-99132319D02*
X128716648Y-99132319D01*
X129002362Y-99132319D02*
X129002362Y-98132319D01*
X129002362Y-98132319D02*
X128907124Y-98275176D01*
X128907124Y-98275176D02*
X128811886Y-98370414D01*
X128811886Y-98370414D02*
X128716648Y-98418033D01*
X129907124Y-98132319D02*
X130002362Y-98132319D01*
X130002362Y-98132319D02*
X130097600Y-98179938D01*
X130097600Y-98179938D02*
X130145219Y-98227557D01*
X130145219Y-98227557D02*
X130192838Y-98322795D01*
X130192838Y-98322795D02*
X130240457Y-98513271D01*
X130240457Y-98513271D02*
X130240457Y-98751366D01*
X130240457Y-98751366D02*
X130192838Y-98941842D01*
X130192838Y-98941842D02*
X130145219Y-99037080D01*
X130145219Y-99037080D02*
X130097600Y-99084700D01*
X130097600Y-99084700D02*
X130002362Y-99132319D01*
X130002362Y-99132319D02*
X129907124Y-99132319D01*
X129907124Y-99132319D02*
X129811886Y-99084700D01*
X129811886Y-99084700D02*
X129764267Y-99037080D01*
X129764267Y-99037080D02*
X129716648Y-98941842D01*
X129716648Y-98941842D02*
X129669029Y-98751366D01*
X129669029Y-98751366D02*
X129669029Y-98513271D01*
X129669029Y-98513271D02*
X129716648Y-98322795D01*
X129716648Y-98322795D02*
X129764267Y-98227557D01*
X129764267Y-98227557D02*
X129811886Y-98179938D01*
X129811886Y-98179938D02*
X129907124Y-98132319D01*
X127764266Y-94582319D02*
X127764266Y-95296604D01*
X127764266Y-95296604D02*
X127716647Y-95439461D01*
X127716647Y-95439461D02*
X127621409Y-95534700D01*
X127621409Y-95534700D02*
X127478552Y-95582319D01*
X127478552Y-95582319D02*
X127383314Y-95582319D01*
X128240457Y-95582319D02*
X128240457Y-94582319D01*
X128240457Y-94582319D02*
X128621409Y-94582319D01*
X128621409Y-94582319D02*
X128716647Y-94629938D01*
X128716647Y-94629938D02*
X128764266Y-94677557D01*
X128764266Y-94677557D02*
X128811885Y-94772795D01*
X128811885Y-94772795D02*
X128811885Y-94915652D01*
X128811885Y-94915652D02*
X128764266Y-95010890D01*
X128764266Y-95010890D02*
X128716647Y-95058509D01*
X128716647Y-95058509D02*
X128621409Y-95106128D01*
X128621409Y-95106128D02*
X128240457Y-95106128D01*
X129288076Y-95582319D02*
X129478552Y-95582319D01*
X129478552Y-95582319D02*
X129573790Y-95534700D01*
X129573790Y-95534700D02*
X129621409Y-95487080D01*
X129621409Y-95487080D02*
X129716647Y-95344223D01*
X129716647Y-95344223D02*
X129764266Y-95153747D01*
X129764266Y-95153747D02*
X129764266Y-94772795D01*
X129764266Y-94772795D02*
X129716647Y-94677557D01*
X129716647Y-94677557D02*
X129669028Y-94629938D01*
X129669028Y-94629938D02*
X129573790Y-94582319D01*
X129573790Y-94582319D02*
X129383314Y-94582319D01*
X129383314Y-94582319D02*
X129288076Y-94629938D01*
X129288076Y-94629938D02*
X129240457Y-94677557D01*
X129240457Y-94677557D02*
X129192838Y-94772795D01*
X129192838Y-94772795D02*
X129192838Y-95010890D01*
X129192838Y-95010890D02*
X129240457Y-95106128D01*
X129240457Y-95106128D02*
X129288076Y-95153747D01*
X129288076Y-95153747D02*
X129383314Y-95201366D01*
X129383314Y-95201366D02*
X129573790Y-95201366D01*
X129573790Y-95201366D02*
X129669028Y-95153747D01*
X129669028Y-95153747D02*
X129716647Y-95106128D01*
X129716647Y-95106128D02*
X129764266Y-95010890D01*
X127764266Y-91032319D02*
X127764266Y-91746604D01*
X127764266Y-91746604D02*
X127716647Y-91889461D01*
X127716647Y-91889461D02*
X127621409Y-91984700D01*
X127621409Y-91984700D02*
X127478552Y-92032319D01*
X127478552Y-92032319D02*
X127383314Y-92032319D01*
X128240457Y-92032319D02*
X128240457Y-91032319D01*
X128240457Y-91032319D02*
X128621409Y-91032319D01*
X128621409Y-91032319D02*
X128716647Y-91079938D01*
X128716647Y-91079938D02*
X128764266Y-91127557D01*
X128764266Y-91127557D02*
X128811885Y-91222795D01*
X128811885Y-91222795D02*
X128811885Y-91365652D01*
X128811885Y-91365652D02*
X128764266Y-91460890D01*
X128764266Y-91460890D02*
X128716647Y-91508509D01*
X128716647Y-91508509D02*
X128621409Y-91556128D01*
X128621409Y-91556128D02*
X128240457Y-91556128D01*
X129383314Y-91460890D02*
X129288076Y-91413271D01*
X129288076Y-91413271D02*
X129240457Y-91365652D01*
X129240457Y-91365652D02*
X129192838Y-91270414D01*
X129192838Y-91270414D02*
X129192838Y-91222795D01*
X129192838Y-91222795D02*
X129240457Y-91127557D01*
X129240457Y-91127557D02*
X129288076Y-91079938D01*
X129288076Y-91079938D02*
X129383314Y-91032319D01*
X129383314Y-91032319D02*
X129573790Y-91032319D01*
X129573790Y-91032319D02*
X129669028Y-91079938D01*
X129669028Y-91079938D02*
X129716647Y-91127557D01*
X129716647Y-91127557D02*
X129764266Y-91222795D01*
X129764266Y-91222795D02*
X129764266Y-91270414D01*
X129764266Y-91270414D02*
X129716647Y-91365652D01*
X129716647Y-91365652D02*
X129669028Y-91413271D01*
X129669028Y-91413271D02*
X129573790Y-91460890D01*
X129573790Y-91460890D02*
X129383314Y-91460890D01*
X129383314Y-91460890D02*
X129288076Y-91508509D01*
X129288076Y-91508509D02*
X129240457Y-91556128D01*
X129240457Y-91556128D02*
X129192838Y-91651366D01*
X129192838Y-91651366D02*
X129192838Y-91841842D01*
X129192838Y-91841842D02*
X129240457Y-91937080D01*
X129240457Y-91937080D02*
X129288076Y-91984700D01*
X129288076Y-91984700D02*
X129383314Y-92032319D01*
X129383314Y-92032319D02*
X129573790Y-92032319D01*
X129573790Y-92032319D02*
X129669028Y-91984700D01*
X129669028Y-91984700D02*
X129716647Y-91937080D01*
X129716647Y-91937080D02*
X129764266Y-91841842D01*
X129764266Y-91841842D02*
X129764266Y-91651366D01*
X129764266Y-91651366D02*
X129716647Y-91556128D01*
X129716647Y-91556128D02*
X129669028Y-91508509D01*
X129669028Y-91508509D02*
X129573790Y-91460890D01*
X127764266Y-87482319D02*
X127764266Y-88196604D01*
X127764266Y-88196604D02*
X127716647Y-88339461D01*
X127716647Y-88339461D02*
X127621409Y-88434700D01*
X127621409Y-88434700D02*
X127478552Y-88482319D01*
X127478552Y-88482319D02*
X127383314Y-88482319D01*
X128240457Y-88482319D02*
X128240457Y-87482319D01*
X128240457Y-87482319D02*
X128621409Y-87482319D01*
X128621409Y-87482319D02*
X128716647Y-87529938D01*
X128716647Y-87529938D02*
X128764266Y-87577557D01*
X128764266Y-87577557D02*
X128811885Y-87672795D01*
X128811885Y-87672795D02*
X128811885Y-87815652D01*
X128811885Y-87815652D02*
X128764266Y-87910890D01*
X128764266Y-87910890D02*
X128716647Y-87958509D01*
X128716647Y-87958509D02*
X128621409Y-88006128D01*
X128621409Y-88006128D02*
X128240457Y-88006128D01*
X129145219Y-87482319D02*
X129811885Y-87482319D01*
X129811885Y-87482319D02*
X129383314Y-88482319D01*
X123414266Y-105232319D02*
X123414266Y-105946604D01*
X123414266Y-105946604D02*
X123366647Y-106089461D01*
X123366647Y-106089461D02*
X123271409Y-106184700D01*
X123271409Y-106184700D02*
X123128552Y-106232319D01*
X123128552Y-106232319D02*
X123033314Y-106232319D01*
X123890457Y-106232319D02*
X123890457Y-105232319D01*
X123890457Y-105232319D02*
X124271409Y-105232319D01*
X124271409Y-105232319D02*
X124366647Y-105279938D01*
X124366647Y-105279938D02*
X124414266Y-105327557D01*
X124414266Y-105327557D02*
X124461885Y-105422795D01*
X124461885Y-105422795D02*
X124461885Y-105565652D01*
X124461885Y-105565652D02*
X124414266Y-105660890D01*
X124414266Y-105660890D02*
X124366647Y-105708509D01*
X124366647Y-105708509D02*
X124271409Y-105756128D01*
X124271409Y-105756128D02*
X123890457Y-105756128D01*
X125319028Y-105232319D02*
X125128552Y-105232319D01*
X125128552Y-105232319D02*
X125033314Y-105279938D01*
X125033314Y-105279938D02*
X124985695Y-105327557D01*
X124985695Y-105327557D02*
X124890457Y-105470414D01*
X124890457Y-105470414D02*
X124842838Y-105660890D01*
X124842838Y-105660890D02*
X124842838Y-106041842D01*
X124842838Y-106041842D02*
X124890457Y-106137080D01*
X124890457Y-106137080D02*
X124938076Y-106184700D01*
X124938076Y-106184700D02*
X125033314Y-106232319D01*
X125033314Y-106232319D02*
X125223790Y-106232319D01*
X125223790Y-106232319D02*
X125319028Y-106184700D01*
X125319028Y-106184700D02*
X125366647Y-106137080D01*
X125366647Y-106137080D02*
X125414266Y-106041842D01*
X125414266Y-106041842D02*
X125414266Y-105803747D01*
X125414266Y-105803747D02*
X125366647Y-105708509D01*
X125366647Y-105708509D02*
X125319028Y-105660890D01*
X125319028Y-105660890D02*
X125223790Y-105613271D01*
X125223790Y-105613271D02*
X125033314Y-105613271D01*
X125033314Y-105613271D02*
X124938076Y-105660890D01*
X124938076Y-105660890D02*
X124890457Y-105708509D01*
X124890457Y-105708509D02*
X124842838Y-105803747D01*
X123414266Y-101682319D02*
X123414266Y-102396604D01*
X123414266Y-102396604D02*
X123366647Y-102539461D01*
X123366647Y-102539461D02*
X123271409Y-102634700D01*
X123271409Y-102634700D02*
X123128552Y-102682319D01*
X123128552Y-102682319D02*
X123033314Y-102682319D01*
X123890457Y-102682319D02*
X123890457Y-101682319D01*
X123890457Y-101682319D02*
X124271409Y-101682319D01*
X124271409Y-101682319D02*
X124366647Y-101729938D01*
X124366647Y-101729938D02*
X124414266Y-101777557D01*
X124414266Y-101777557D02*
X124461885Y-101872795D01*
X124461885Y-101872795D02*
X124461885Y-102015652D01*
X124461885Y-102015652D02*
X124414266Y-102110890D01*
X124414266Y-102110890D02*
X124366647Y-102158509D01*
X124366647Y-102158509D02*
X124271409Y-102206128D01*
X124271409Y-102206128D02*
X123890457Y-102206128D01*
X125366647Y-101682319D02*
X124890457Y-101682319D01*
X124890457Y-101682319D02*
X124842838Y-102158509D01*
X124842838Y-102158509D02*
X124890457Y-102110890D01*
X124890457Y-102110890D02*
X124985695Y-102063271D01*
X124985695Y-102063271D02*
X125223790Y-102063271D01*
X125223790Y-102063271D02*
X125319028Y-102110890D01*
X125319028Y-102110890D02*
X125366647Y-102158509D01*
X125366647Y-102158509D02*
X125414266Y-102253747D01*
X125414266Y-102253747D02*
X125414266Y-102491842D01*
X125414266Y-102491842D02*
X125366647Y-102587080D01*
X125366647Y-102587080D02*
X125319028Y-102634700D01*
X125319028Y-102634700D02*
X125223790Y-102682319D01*
X125223790Y-102682319D02*
X124985695Y-102682319D01*
X124985695Y-102682319D02*
X124890457Y-102634700D01*
X124890457Y-102634700D02*
X124842838Y-102587080D01*
X123414266Y-98132319D02*
X123414266Y-98846604D01*
X123414266Y-98846604D02*
X123366647Y-98989461D01*
X123366647Y-98989461D02*
X123271409Y-99084700D01*
X123271409Y-99084700D02*
X123128552Y-99132319D01*
X123128552Y-99132319D02*
X123033314Y-99132319D01*
X123890457Y-99132319D02*
X123890457Y-98132319D01*
X123890457Y-98132319D02*
X124271409Y-98132319D01*
X124271409Y-98132319D02*
X124366647Y-98179938D01*
X124366647Y-98179938D02*
X124414266Y-98227557D01*
X124414266Y-98227557D02*
X124461885Y-98322795D01*
X124461885Y-98322795D02*
X124461885Y-98465652D01*
X124461885Y-98465652D02*
X124414266Y-98560890D01*
X124414266Y-98560890D02*
X124366647Y-98608509D01*
X124366647Y-98608509D02*
X124271409Y-98656128D01*
X124271409Y-98656128D02*
X123890457Y-98656128D01*
X125319028Y-98465652D02*
X125319028Y-99132319D01*
X125080933Y-98084700D02*
X124842838Y-98798985D01*
X124842838Y-98798985D02*
X125461885Y-98798985D01*
X123414266Y-94582319D02*
X123414266Y-95296604D01*
X123414266Y-95296604D02*
X123366647Y-95439461D01*
X123366647Y-95439461D02*
X123271409Y-95534700D01*
X123271409Y-95534700D02*
X123128552Y-95582319D01*
X123128552Y-95582319D02*
X123033314Y-95582319D01*
X123890457Y-95582319D02*
X123890457Y-94582319D01*
X123890457Y-94582319D02*
X124271409Y-94582319D01*
X124271409Y-94582319D02*
X124366647Y-94629938D01*
X124366647Y-94629938D02*
X124414266Y-94677557D01*
X124414266Y-94677557D02*
X124461885Y-94772795D01*
X124461885Y-94772795D02*
X124461885Y-94915652D01*
X124461885Y-94915652D02*
X124414266Y-95010890D01*
X124414266Y-95010890D02*
X124366647Y-95058509D01*
X124366647Y-95058509D02*
X124271409Y-95106128D01*
X124271409Y-95106128D02*
X123890457Y-95106128D01*
X124795219Y-94582319D02*
X125414266Y-94582319D01*
X125414266Y-94582319D02*
X125080933Y-94963271D01*
X125080933Y-94963271D02*
X125223790Y-94963271D01*
X125223790Y-94963271D02*
X125319028Y-95010890D01*
X125319028Y-95010890D02*
X125366647Y-95058509D01*
X125366647Y-95058509D02*
X125414266Y-95153747D01*
X125414266Y-95153747D02*
X125414266Y-95391842D01*
X125414266Y-95391842D02*
X125366647Y-95487080D01*
X125366647Y-95487080D02*
X125319028Y-95534700D01*
X125319028Y-95534700D02*
X125223790Y-95582319D01*
X125223790Y-95582319D02*
X124938076Y-95582319D01*
X124938076Y-95582319D02*
X124842838Y-95534700D01*
X124842838Y-95534700D02*
X124795219Y-95487080D01*
X123414266Y-91032319D02*
X123414266Y-91746604D01*
X123414266Y-91746604D02*
X123366647Y-91889461D01*
X123366647Y-91889461D02*
X123271409Y-91984700D01*
X123271409Y-91984700D02*
X123128552Y-92032319D01*
X123128552Y-92032319D02*
X123033314Y-92032319D01*
X123890457Y-92032319D02*
X123890457Y-91032319D01*
X123890457Y-91032319D02*
X124271409Y-91032319D01*
X124271409Y-91032319D02*
X124366647Y-91079938D01*
X124366647Y-91079938D02*
X124414266Y-91127557D01*
X124414266Y-91127557D02*
X124461885Y-91222795D01*
X124461885Y-91222795D02*
X124461885Y-91365652D01*
X124461885Y-91365652D02*
X124414266Y-91460890D01*
X124414266Y-91460890D02*
X124366647Y-91508509D01*
X124366647Y-91508509D02*
X124271409Y-91556128D01*
X124271409Y-91556128D02*
X123890457Y-91556128D01*
X124842838Y-91127557D02*
X124890457Y-91079938D01*
X124890457Y-91079938D02*
X124985695Y-91032319D01*
X124985695Y-91032319D02*
X125223790Y-91032319D01*
X125223790Y-91032319D02*
X125319028Y-91079938D01*
X125319028Y-91079938D02*
X125366647Y-91127557D01*
X125366647Y-91127557D02*
X125414266Y-91222795D01*
X125414266Y-91222795D02*
X125414266Y-91318033D01*
X125414266Y-91318033D02*
X125366647Y-91460890D01*
X125366647Y-91460890D02*
X124795219Y-92032319D01*
X124795219Y-92032319D02*
X125414266Y-92032319D01*
X123414266Y-87482319D02*
X123414266Y-88196604D01*
X123414266Y-88196604D02*
X123366647Y-88339461D01*
X123366647Y-88339461D02*
X123271409Y-88434700D01*
X123271409Y-88434700D02*
X123128552Y-88482319D01*
X123128552Y-88482319D02*
X123033314Y-88482319D01*
X123890457Y-88482319D02*
X123890457Y-87482319D01*
X123890457Y-87482319D02*
X124271409Y-87482319D01*
X124271409Y-87482319D02*
X124366647Y-87529938D01*
X124366647Y-87529938D02*
X124414266Y-87577557D01*
X124414266Y-87577557D02*
X124461885Y-87672795D01*
X124461885Y-87672795D02*
X124461885Y-87815652D01*
X124461885Y-87815652D02*
X124414266Y-87910890D01*
X124414266Y-87910890D02*
X124366647Y-87958509D01*
X124366647Y-87958509D02*
X124271409Y-88006128D01*
X124271409Y-88006128D02*
X123890457Y-88006128D01*
X125414266Y-88482319D02*
X124842838Y-88482319D01*
X125128552Y-88482319D02*
X125128552Y-87482319D01*
X125128552Y-87482319D02*
X125033314Y-87625176D01*
X125033314Y-87625176D02*
X124938076Y-87720414D01*
X124938076Y-87720414D02*
X124842838Y-87768033D01*
X105619267Y-90807226D02*
X105619267Y-91714369D01*
X105619267Y-91714369D02*
X105558790Y-91895797D01*
X105558790Y-91895797D02*
X105437838Y-92016750D01*
X105437838Y-92016750D02*
X105256409Y-92077226D01*
X105256409Y-92077226D02*
X105135457Y-92077226D01*
X106768314Y-91230559D02*
X106768314Y-92077226D01*
X106465933Y-90746750D02*
X106163552Y-91653892D01*
X106163552Y-91653892D02*
X106949743Y-91653892D01*
X118134266Y-69932319D02*
X118134266Y-70646604D01*
X118134266Y-70646604D02*
X118086647Y-70789461D01*
X118086647Y-70789461D02*
X117991409Y-70884700D01*
X117991409Y-70884700D02*
X117848552Y-70932319D01*
X117848552Y-70932319D02*
X117753314Y-70932319D01*
X118515219Y-69932319D02*
X119134266Y-69932319D01*
X119134266Y-69932319D02*
X118800933Y-70313271D01*
X118800933Y-70313271D02*
X118943790Y-70313271D01*
X118943790Y-70313271D02*
X119039028Y-70360890D01*
X119039028Y-70360890D02*
X119086647Y-70408509D01*
X119086647Y-70408509D02*
X119134266Y-70503747D01*
X119134266Y-70503747D02*
X119134266Y-70741842D01*
X119134266Y-70741842D02*
X119086647Y-70837080D01*
X119086647Y-70837080D02*
X119039028Y-70884700D01*
X119039028Y-70884700D02*
X118943790Y-70932319D01*
X118943790Y-70932319D02*
X118658076Y-70932319D01*
X118658076Y-70932319D02*
X118562838Y-70884700D01*
X118562838Y-70884700D02*
X118515219Y-70837080D01*
X104364266Y-99462319D02*
X104364266Y-100176604D01*
X104364266Y-100176604D02*
X104316647Y-100319461D01*
X104316647Y-100319461D02*
X104221409Y-100414700D01*
X104221409Y-100414700D02*
X104078552Y-100462319D01*
X104078552Y-100462319D02*
X103983314Y-100462319D01*
X105364266Y-100462319D02*
X104792838Y-100462319D01*
X105078552Y-100462319D02*
X105078552Y-99462319D01*
X105078552Y-99462319D02*
X104983314Y-99605176D01*
X104983314Y-99605176D02*
X104888076Y-99700414D01*
X104888076Y-99700414D02*
X104792838Y-99748033D01*
X111254505Y-105682319D02*
X111254505Y-104682319D01*
X111254505Y-104682319D02*
X111492600Y-104682319D01*
X111492600Y-104682319D02*
X111635457Y-104729938D01*
X111635457Y-104729938D02*
X111730695Y-104825176D01*
X111730695Y-104825176D02*
X111778314Y-104920414D01*
X111778314Y-104920414D02*
X111825933Y-105110890D01*
X111825933Y-105110890D02*
X111825933Y-105253747D01*
X111825933Y-105253747D02*
X111778314Y-105444223D01*
X111778314Y-105444223D02*
X111730695Y-105539461D01*
X111730695Y-105539461D02*
X111635457Y-105634700D01*
X111635457Y-105634700D02*
X111492600Y-105682319D01*
X111492600Y-105682319D02*
X111254505Y-105682319D01*
X112683076Y-105015652D02*
X112683076Y-105682319D01*
X112444981Y-104634700D02*
X112206886Y-105348985D01*
X112206886Y-105348985D02*
X112825933Y-105348985D01*
X111254505Y-103092319D02*
X111254505Y-102092319D01*
X111254505Y-102092319D02*
X111492600Y-102092319D01*
X111492600Y-102092319D02*
X111635457Y-102139938D01*
X111635457Y-102139938D02*
X111730695Y-102235176D01*
X111730695Y-102235176D02*
X111778314Y-102330414D01*
X111778314Y-102330414D02*
X111825933Y-102520890D01*
X111825933Y-102520890D02*
X111825933Y-102663747D01*
X111825933Y-102663747D02*
X111778314Y-102854223D01*
X111778314Y-102854223D02*
X111730695Y-102949461D01*
X111730695Y-102949461D02*
X111635457Y-103044700D01*
X111635457Y-103044700D02*
X111492600Y-103092319D01*
X111492600Y-103092319D02*
X111254505Y-103092319D01*
X112159267Y-102092319D02*
X112778314Y-102092319D01*
X112778314Y-102092319D02*
X112444981Y-102473271D01*
X112444981Y-102473271D02*
X112587838Y-102473271D01*
X112587838Y-102473271D02*
X112683076Y-102520890D01*
X112683076Y-102520890D02*
X112730695Y-102568509D01*
X112730695Y-102568509D02*
X112778314Y-102663747D01*
X112778314Y-102663747D02*
X112778314Y-102901842D01*
X112778314Y-102901842D02*
X112730695Y-102997080D01*
X112730695Y-102997080D02*
X112683076Y-103044700D01*
X112683076Y-103044700D02*
X112587838Y-103092319D01*
X112587838Y-103092319D02*
X112302124Y-103092319D01*
X112302124Y-103092319D02*
X112206886Y-103044700D01*
X112206886Y-103044700D02*
X112159267Y-102997080D01*
X111254505Y-100502319D02*
X111254505Y-99502319D01*
X111254505Y-99502319D02*
X111492600Y-99502319D01*
X111492600Y-99502319D02*
X111635457Y-99549938D01*
X111635457Y-99549938D02*
X111730695Y-99645176D01*
X111730695Y-99645176D02*
X111778314Y-99740414D01*
X111778314Y-99740414D02*
X111825933Y-99930890D01*
X111825933Y-99930890D02*
X111825933Y-100073747D01*
X111825933Y-100073747D02*
X111778314Y-100264223D01*
X111778314Y-100264223D02*
X111730695Y-100359461D01*
X111730695Y-100359461D02*
X111635457Y-100454700D01*
X111635457Y-100454700D02*
X111492600Y-100502319D01*
X111492600Y-100502319D02*
X111254505Y-100502319D01*
X112778314Y-100502319D02*
X112206886Y-100502319D01*
X112492600Y-100502319D02*
X112492600Y-99502319D01*
X112492600Y-99502319D02*
X112397362Y-99645176D01*
X112397362Y-99645176D02*
X112302124Y-99740414D01*
X112302124Y-99740414D02*
X112206886Y-99788033D01*
X142234742Y-94937080D02*
X142187123Y-94984700D01*
X142187123Y-94984700D02*
X142044266Y-95032319D01*
X142044266Y-95032319D02*
X141949028Y-95032319D01*
X141949028Y-95032319D02*
X141806171Y-94984700D01*
X141806171Y-94984700D02*
X141710933Y-94889461D01*
X141710933Y-94889461D02*
X141663314Y-94794223D01*
X141663314Y-94794223D02*
X141615695Y-94603747D01*
X141615695Y-94603747D02*
X141615695Y-94460890D01*
X141615695Y-94460890D02*
X141663314Y-94270414D01*
X141663314Y-94270414D02*
X141710933Y-94175176D01*
X141710933Y-94175176D02*
X141806171Y-94079938D01*
X141806171Y-94079938D02*
X141949028Y-94032319D01*
X141949028Y-94032319D02*
X142044266Y-94032319D01*
X142044266Y-94032319D02*
X142187123Y-94079938D01*
X142187123Y-94079938D02*
X142234742Y-94127557D01*
X142615695Y-94127557D02*
X142663314Y-94079938D01*
X142663314Y-94079938D02*
X142758552Y-94032319D01*
X142758552Y-94032319D02*
X142996647Y-94032319D01*
X142996647Y-94032319D02*
X143091885Y-94079938D01*
X143091885Y-94079938D02*
X143139504Y-94127557D01*
X143139504Y-94127557D02*
X143187123Y-94222795D01*
X143187123Y-94222795D02*
X143187123Y-94318033D01*
X143187123Y-94318033D02*
X143139504Y-94460890D01*
X143139504Y-94460890D02*
X142568076Y-95032319D01*
X142568076Y-95032319D02*
X143187123Y-95032319D01*
X144139504Y-95032319D02*
X143568076Y-95032319D01*
X143853790Y-95032319D02*
X143853790Y-94032319D01*
X143853790Y-94032319D02*
X143758552Y-94175176D01*
X143758552Y-94175176D02*
X143663314Y-94270414D01*
X143663314Y-94270414D02*
X143568076Y-94318033D01*
X142234742Y-91587080D02*
X142187123Y-91634700D01*
X142187123Y-91634700D02*
X142044266Y-91682319D01*
X142044266Y-91682319D02*
X141949028Y-91682319D01*
X141949028Y-91682319D02*
X141806171Y-91634700D01*
X141806171Y-91634700D02*
X141710933Y-91539461D01*
X141710933Y-91539461D02*
X141663314Y-91444223D01*
X141663314Y-91444223D02*
X141615695Y-91253747D01*
X141615695Y-91253747D02*
X141615695Y-91110890D01*
X141615695Y-91110890D02*
X141663314Y-90920414D01*
X141663314Y-90920414D02*
X141710933Y-90825176D01*
X141710933Y-90825176D02*
X141806171Y-90729938D01*
X141806171Y-90729938D02*
X141949028Y-90682319D01*
X141949028Y-90682319D02*
X142044266Y-90682319D01*
X142044266Y-90682319D02*
X142187123Y-90729938D01*
X142187123Y-90729938D02*
X142234742Y-90777557D01*
X142615695Y-90777557D02*
X142663314Y-90729938D01*
X142663314Y-90729938D02*
X142758552Y-90682319D01*
X142758552Y-90682319D02*
X142996647Y-90682319D01*
X142996647Y-90682319D02*
X143091885Y-90729938D01*
X143091885Y-90729938D02*
X143139504Y-90777557D01*
X143139504Y-90777557D02*
X143187123Y-90872795D01*
X143187123Y-90872795D02*
X143187123Y-90968033D01*
X143187123Y-90968033D02*
X143139504Y-91110890D01*
X143139504Y-91110890D02*
X142568076Y-91682319D01*
X142568076Y-91682319D02*
X143187123Y-91682319D01*
X143806171Y-90682319D02*
X143901409Y-90682319D01*
X143901409Y-90682319D02*
X143996647Y-90729938D01*
X143996647Y-90729938D02*
X144044266Y-90777557D01*
X144044266Y-90777557D02*
X144091885Y-90872795D01*
X144091885Y-90872795D02*
X144139504Y-91063271D01*
X144139504Y-91063271D02*
X144139504Y-91301366D01*
X144139504Y-91301366D02*
X144091885Y-91491842D01*
X144091885Y-91491842D02*
X144044266Y-91587080D01*
X144044266Y-91587080D02*
X143996647Y-91634700D01*
X143996647Y-91634700D02*
X143901409Y-91682319D01*
X143901409Y-91682319D02*
X143806171Y-91682319D01*
X143806171Y-91682319D02*
X143710933Y-91634700D01*
X143710933Y-91634700D02*
X143663314Y-91587080D01*
X143663314Y-91587080D02*
X143615695Y-91491842D01*
X143615695Y-91491842D02*
X143568076Y-91301366D01*
X143568076Y-91301366D02*
X143568076Y-91063271D01*
X143568076Y-91063271D02*
X143615695Y-90872795D01*
X143615695Y-90872795D02*
X143663314Y-90777557D01*
X143663314Y-90777557D02*
X143710933Y-90729938D01*
X143710933Y-90729938D02*
X143806171Y-90682319D01*
X142234742Y-88237080D02*
X142187123Y-88284700D01*
X142187123Y-88284700D02*
X142044266Y-88332319D01*
X142044266Y-88332319D02*
X141949028Y-88332319D01*
X141949028Y-88332319D02*
X141806171Y-88284700D01*
X141806171Y-88284700D02*
X141710933Y-88189461D01*
X141710933Y-88189461D02*
X141663314Y-88094223D01*
X141663314Y-88094223D02*
X141615695Y-87903747D01*
X141615695Y-87903747D02*
X141615695Y-87760890D01*
X141615695Y-87760890D02*
X141663314Y-87570414D01*
X141663314Y-87570414D02*
X141710933Y-87475176D01*
X141710933Y-87475176D02*
X141806171Y-87379938D01*
X141806171Y-87379938D02*
X141949028Y-87332319D01*
X141949028Y-87332319D02*
X142044266Y-87332319D01*
X142044266Y-87332319D02*
X142187123Y-87379938D01*
X142187123Y-87379938D02*
X142234742Y-87427557D01*
X143187123Y-88332319D02*
X142615695Y-88332319D01*
X142901409Y-88332319D02*
X142901409Y-87332319D01*
X142901409Y-87332319D02*
X142806171Y-87475176D01*
X142806171Y-87475176D02*
X142710933Y-87570414D01*
X142710933Y-87570414D02*
X142615695Y-87618033D01*
X143663314Y-88332319D02*
X143853790Y-88332319D01*
X143853790Y-88332319D02*
X143949028Y-88284700D01*
X143949028Y-88284700D02*
X143996647Y-88237080D01*
X143996647Y-88237080D02*
X144091885Y-88094223D01*
X144091885Y-88094223D02*
X144139504Y-87903747D01*
X144139504Y-87903747D02*
X144139504Y-87522795D01*
X144139504Y-87522795D02*
X144091885Y-87427557D01*
X144091885Y-87427557D02*
X144044266Y-87379938D01*
X144044266Y-87379938D02*
X143949028Y-87332319D01*
X143949028Y-87332319D02*
X143758552Y-87332319D01*
X143758552Y-87332319D02*
X143663314Y-87379938D01*
X143663314Y-87379938D02*
X143615695Y-87427557D01*
X143615695Y-87427557D02*
X143568076Y-87522795D01*
X143568076Y-87522795D02*
X143568076Y-87760890D01*
X143568076Y-87760890D02*
X143615695Y-87856128D01*
X143615695Y-87856128D02*
X143663314Y-87903747D01*
X143663314Y-87903747D02*
X143758552Y-87951366D01*
X143758552Y-87951366D02*
X143949028Y-87951366D01*
X143949028Y-87951366D02*
X144044266Y-87903747D01*
X144044266Y-87903747D02*
X144091885Y-87856128D01*
X144091885Y-87856128D02*
X144139504Y-87760890D01*
X127954742Y-80707080D02*
X127907123Y-80754700D01*
X127907123Y-80754700D02*
X127764266Y-80802319D01*
X127764266Y-80802319D02*
X127669028Y-80802319D01*
X127669028Y-80802319D02*
X127526171Y-80754700D01*
X127526171Y-80754700D02*
X127430933Y-80659461D01*
X127430933Y-80659461D02*
X127383314Y-80564223D01*
X127383314Y-80564223D02*
X127335695Y-80373747D01*
X127335695Y-80373747D02*
X127335695Y-80230890D01*
X127335695Y-80230890D02*
X127383314Y-80040414D01*
X127383314Y-80040414D02*
X127430933Y-79945176D01*
X127430933Y-79945176D02*
X127526171Y-79849938D01*
X127526171Y-79849938D02*
X127669028Y-79802319D01*
X127669028Y-79802319D02*
X127764266Y-79802319D01*
X127764266Y-79802319D02*
X127907123Y-79849938D01*
X127907123Y-79849938D02*
X127954742Y-79897557D01*
X128907123Y-80802319D02*
X128335695Y-80802319D01*
X128621409Y-80802319D02*
X128621409Y-79802319D01*
X128621409Y-79802319D02*
X128526171Y-79945176D01*
X128526171Y-79945176D02*
X128430933Y-80040414D01*
X128430933Y-80040414D02*
X128335695Y-80088033D01*
X129240457Y-79802319D02*
X129907123Y-79802319D01*
X129907123Y-79802319D02*
X129478552Y-80802319D01*
X127954742Y-78197080D02*
X127907123Y-78244700D01*
X127907123Y-78244700D02*
X127764266Y-78292319D01*
X127764266Y-78292319D02*
X127669028Y-78292319D01*
X127669028Y-78292319D02*
X127526171Y-78244700D01*
X127526171Y-78244700D02*
X127430933Y-78149461D01*
X127430933Y-78149461D02*
X127383314Y-78054223D01*
X127383314Y-78054223D02*
X127335695Y-77863747D01*
X127335695Y-77863747D02*
X127335695Y-77720890D01*
X127335695Y-77720890D02*
X127383314Y-77530414D01*
X127383314Y-77530414D02*
X127430933Y-77435176D01*
X127430933Y-77435176D02*
X127526171Y-77339938D01*
X127526171Y-77339938D02*
X127669028Y-77292319D01*
X127669028Y-77292319D02*
X127764266Y-77292319D01*
X127764266Y-77292319D02*
X127907123Y-77339938D01*
X127907123Y-77339938D02*
X127954742Y-77387557D01*
X128907123Y-78292319D02*
X128335695Y-78292319D01*
X128621409Y-78292319D02*
X128621409Y-77292319D01*
X128621409Y-77292319D02*
X128526171Y-77435176D01*
X128526171Y-77435176D02*
X128430933Y-77530414D01*
X128430933Y-77530414D02*
X128335695Y-77578033D01*
X129764266Y-77292319D02*
X129573790Y-77292319D01*
X129573790Y-77292319D02*
X129478552Y-77339938D01*
X129478552Y-77339938D02*
X129430933Y-77387557D01*
X129430933Y-77387557D02*
X129335695Y-77530414D01*
X129335695Y-77530414D02*
X129288076Y-77720890D01*
X129288076Y-77720890D02*
X129288076Y-78101842D01*
X129288076Y-78101842D02*
X129335695Y-78197080D01*
X129335695Y-78197080D02*
X129383314Y-78244700D01*
X129383314Y-78244700D02*
X129478552Y-78292319D01*
X129478552Y-78292319D02*
X129669028Y-78292319D01*
X129669028Y-78292319D02*
X129764266Y-78244700D01*
X129764266Y-78244700D02*
X129811885Y-78197080D01*
X129811885Y-78197080D02*
X129859504Y-78101842D01*
X129859504Y-78101842D02*
X129859504Y-77863747D01*
X129859504Y-77863747D02*
X129811885Y-77768509D01*
X129811885Y-77768509D02*
X129764266Y-77720890D01*
X129764266Y-77720890D02*
X129669028Y-77673271D01*
X129669028Y-77673271D02*
X129478552Y-77673271D01*
X129478552Y-77673271D02*
X129383314Y-77720890D01*
X129383314Y-77720890D02*
X129335695Y-77768509D01*
X129335695Y-77768509D02*
X129288076Y-77863747D01*
X142704742Y-110857080D02*
X142657123Y-110904700D01*
X142657123Y-110904700D02*
X142514266Y-110952319D01*
X142514266Y-110952319D02*
X142419028Y-110952319D01*
X142419028Y-110952319D02*
X142276171Y-110904700D01*
X142276171Y-110904700D02*
X142180933Y-110809461D01*
X142180933Y-110809461D02*
X142133314Y-110714223D01*
X142133314Y-110714223D02*
X142085695Y-110523747D01*
X142085695Y-110523747D02*
X142085695Y-110380890D01*
X142085695Y-110380890D02*
X142133314Y-110190414D01*
X142133314Y-110190414D02*
X142180933Y-110095176D01*
X142180933Y-110095176D02*
X142276171Y-109999938D01*
X142276171Y-109999938D02*
X142419028Y-109952319D01*
X142419028Y-109952319D02*
X142514266Y-109952319D01*
X142514266Y-109952319D02*
X142657123Y-109999938D01*
X142657123Y-109999938D02*
X142704742Y-110047557D01*
X143657123Y-110952319D02*
X143085695Y-110952319D01*
X143371409Y-110952319D02*
X143371409Y-109952319D01*
X143371409Y-109952319D02*
X143276171Y-110095176D01*
X143276171Y-110095176D02*
X143180933Y-110190414D01*
X143180933Y-110190414D02*
X143085695Y-110238033D01*
X144561885Y-109952319D02*
X144085695Y-109952319D01*
X144085695Y-109952319D02*
X144038076Y-110428509D01*
X144038076Y-110428509D02*
X144085695Y-110380890D01*
X144085695Y-110380890D02*
X144180933Y-110333271D01*
X144180933Y-110333271D02*
X144419028Y-110333271D01*
X144419028Y-110333271D02*
X144514266Y-110380890D01*
X144514266Y-110380890D02*
X144561885Y-110428509D01*
X144561885Y-110428509D02*
X144609504Y-110523747D01*
X144609504Y-110523747D02*
X144609504Y-110761842D01*
X144609504Y-110761842D02*
X144561885Y-110857080D01*
X144561885Y-110857080D02*
X144514266Y-110904700D01*
X144514266Y-110904700D02*
X144419028Y-110952319D01*
X144419028Y-110952319D02*
X144180933Y-110952319D01*
X144180933Y-110952319D02*
X144085695Y-110904700D01*
X144085695Y-110904700D02*
X144038076Y-110857080D01*
X127954742Y-75687080D02*
X127907123Y-75734700D01*
X127907123Y-75734700D02*
X127764266Y-75782319D01*
X127764266Y-75782319D02*
X127669028Y-75782319D01*
X127669028Y-75782319D02*
X127526171Y-75734700D01*
X127526171Y-75734700D02*
X127430933Y-75639461D01*
X127430933Y-75639461D02*
X127383314Y-75544223D01*
X127383314Y-75544223D02*
X127335695Y-75353747D01*
X127335695Y-75353747D02*
X127335695Y-75210890D01*
X127335695Y-75210890D02*
X127383314Y-75020414D01*
X127383314Y-75020414D02*
X127430933Y-74925176D01*
X127430933Y-74925176D02*
X127526171Y-74829938D01*
X127526171Y-74829938D02*
X127669028Y-74782319D01*
X127669028Y-74782319D02*
X127764266Y-74782319D01*
X127764266Y-74782319D02*
X127907123Y-74829938D01*
X127907123Y-74829938D02*
X127954742Y-74877557D01*
X128907123Y-75782319D02*
X128335695Y-75782319D01*
X128621409Y-75782319D02*
X128621409Y-74782319D01*
X128621409Y-74782319D02*
X128526171Y-74925176D01*
X128526171Y-74925176D02*
X128430933Y-75020414D01*
X128430933Y-75020414D02*
X128335695Y-75068033D01*
X129764266Y-75115652D02*
X129764266Y-75782319D01*
X129526171Y-74734700D02*
X129288076Y-75448985D01*
X129288076Y-75448985D02*
X129907123Y-75448985D01*
X127954742Y-73177080D02*
X127907123Y-73224700D01*
X127907123Y-73224700D02*
X127764266Y-73272319D01*
X127764266Y-73272319D02*
X127669028Y-73272319D01*
X127669028Y-73272319D02*
X127526171Y-73224700D01*
X127526171Y-73224700D02*
X127430933Y-73129461D01*
X127430933Y-73129461D02*
X127383314Y-73034223D01*
X127383314Y-73034223D02*
X127335695Y-72843747D01*
X127335695Y-72843747D02*
X127335695Y-72700890D01*
X127335695Y-72700890D02*
X127383314Y-72510414D01*
X127383314Y-72510414D02*
X127430933Y-72415176D01*
X127430933Y-72415176D02*
X127526171Y-72319938D01*
X127526171Y-72319938D02*
X127669028Y-72272319D01*
X127669028Y-72272319D02*
X127764266Y-72272319D01*
X127764266Y-72272319D02*
X127907123Y-72319938D01*
X127907123Y-72319938D02*
X127954742Y-72367557D01*
X128907123Y-73272319D02*
X128335695Y-73272319D01*
X128621409Y-73272319D02*
X128621409Y-72272319D01*
X128621409Y-72272319D02*
X128526171Y-72415176D01*
X128526171Y-72415176D02*
X128430933Y-72510414D01*
X128430933Y-72510414D02*
X128335695Y-72558033D01*
X129240457Y-72272319D02*
X129859504Y-72272319D01*
X129859504Y-72272319D02*
X129526171Y-72653271D01*
X129526171Y-72653271D02*
X129669028Y-72653271D01*
X129669028Y-72653271D02*
X129764266Y-72700890D01*
X129764266Y-72700890D02*
X129811885Y-72748509D01*
X129811885Y-72748509D02*
X129859504Y-72843747D01*
X129859504Y-72843747D02*
X129859504Y-73081842D01*
X129859504Y-73081842D02*
X129811885Y-73177080D01*
X129811885Y-73177080D02*
X129764266Y-73224700D01*
X129764266Y-73224700D02*
X129669028Y-73272319D01*
X129669028Y-73272319D02*
X129383314Y-73272319D01*
X129383314Y-73272319D02*
X129288076Y-73224700D01*
X129288076Y-73224700D02*
X129240457Y-73177080D01*
X127954742Y-70667080D02*
X127907123Y-70714700D01*
X127907123Y-70714700D02*
X127764266Y-70762319D01*
X127764266Y-70762319D02*
X127669028Y-70762319D01*
X127669028Y-70762319D02*
X127526171Y-70714700D01*
X127526171Y-70714700D02*
X127430933Y-70619461D01*
X127430933Y-70619461D02*
X127383314Y-70524223D01*
X127383314Y-70524223D02*
X127335695Y-70333747D01*
X127335695Y-70333747D02*
X127335695Y-70190890D01*
X127335695Y-70190890D02*
X127383314Y-70000414D01*
X127383314Y-70000414D02*
X127430933Y-69905176D01*
X127430933Y-69905176D02*
X127526171Y-69809938D01*
X127526171Y-69809938D02*
X127669028Y-69762319D01*
X127669028Y-69762319D02*
X127764266Y-69762319D01*
X127764266Y-69762319D02*
X127907123Y-69809938D01*
X127907123Y-69809938D02*
X127954742Y-69857557D01*
X128907123Y-70762319D02*
X128335695Y-70762319D01*
X128621409Y-70762319D02*
X128621409Y-69762319D01*
X128621409Y-69762319D02*
X128526171Y-69905176D01*
X128526171Y-69905176D02*
X128430933Y-70000414D01*
X128430933Y-70000414D02*
X128335695Y-70048033D01*
X129288076Y-69857557D02*
X129335695Y-69809938D01*
X129335695Y-69809938D02*
X129430933Y-69762319D01*
X129430933Y-69762319D02*
X129669028Y-69762319D01*
X129669028Y-69762319D02*
X129764266Y-69809938D01*
X129764266Y-69809938D02*
X129811885Y-69857557D01*
X129811885Y-69857557D02*
X129859504Y-69952795D01*
X129859504Y-69952795D02*
X129859504Y-70048033D01*
X129859504Y-70048033D02*
X129811885Y-70190890D01*
X129811885Y-70190890D02*
X129240457Y-70762319D01*
X129240457Y-70762319D02*
X129859504Y-70762319D01*
X123604742Y-85727080D02*
X123557123Y-85774700D01*
X123557123Y-85774700D02*
X123414266Y-85822319D01*
X123414266Y-85822319D02*
X123319028Y-85822319D01*
X123319028Y-85822319D02*
X123176171Y-85774700D01*
X123176171Y-85774700D02*
X123080933Y-85679461D01*
X123080933Y-85679461D02*
X123033314Y-85584223D01*
X123033314Y-85584223D02*
X122985695Y-85393747D01*
X122985695Y-85393747D02*
X122985695Y-85250890D01*
X122985695Y-85250890D02*
X123033314Y-85060414D01*
X123033314Y-85060414D02*
X123080933Y-84965176D01*
X123080933Y-84965176D02*
X123176171Y-84869938D01*
X123176171Y-84869938D02*
X123319028Y-84822319D01*
X123319028Y-84822319D02*
X123414266Y-84822319D01*
X123414266Y-84822319D02*
X123557123Y-84869938D01*
X123557123Y-84869938D02*
X123604742Y-84917557D01*
X124557123Y-85822319D02*
X123985695Y-85822319D01*
X124271409Y-85822319D02*
X124271409Y-84822319D01*
X124271409Y-84822319D02*
X124176171Y-84965176D01*
X124176171Y-84965176D02*
X124080933Y-85060414D01*
X124080933Y-85060414D02*
X123985695Y-85108033D01*
X125509504Y-85822319D02*
X124938076Y-85822319D01*
X125223790Y-85822319D02*
X125223790Y-84822319D01*
X125223790Y-84822319D02*
X125128552Y-84965176D01*
X125128552Y-84965176D02*
X125033314Y-85060414D01*
X125033314Y-85060414D02*
X124938076Y-85108033D01*
X142704742Y-108887080D02*
X142657123Y-108934700D01*
X142657123Y-108934700D02*
X142514266Y-108982319D01*
X142514266Y-108982319D02*
X142419028Y-108982319D01*
X142419028Y-108982319D02*
X142276171Y-108934700D01*
X142276171Y-108934700D02*
X142180933Y-108839461D01*
X142180933Y-108839461D02*
X142133314Y-108744223D01*
X142133314Y-108744223D02*
X142085695Y-108553747D01*
X142085695Y-108553747D02*
X142085695Y-108410890D01*
X142085695Y-108410890D02*
X142133314Y-108220414D01*
X142133314Y-108220414D02*
X142180933Y-108125176D01*
X142180933Y-108125176D02*
X142276171Y-108029938D01*
X142276171Y-108029938D02*
X142419028Y-107982319D01*
X142419028Y-107982319D02*
X142514266Y-107982319D01*
X142514266Y-107982319D02*
X142657123Y-108029938D01*
X142657123Y-108029938D02*
X142704742Y-108077557D01*
X143657123Y-108982319D02*
X143085695Y-108982319D01*
X143371409Y-108982319D02*
X143371409Y-107982319D01*
X143371409Y-107982319D02*
X143276171Y-108125176D01*
X143276171Y-108125176D02*
X143180933Y-108220414D01*
X143180933Y-108220414D02*
X143085695Y-108268033D01*
X144276171Y-107982319D02*
X144371409Y-107982319D01*
X144371409Y-107982319D02*
X144466647Y-108029938D01*
X144466647Y-108029938D02*
X144514266Y-108077557D01*
X144514266Y-108077557D02*
X144561885Y-108172795D01*
X144561885Y-108172795D02*
X144609504Y-108363271D01*
X144609504Y-108363271D02*
X144609504Y-108601366D01*
X144609504Y-108601366D02*
X144561885Y-108791842D01*
X144561885Y-108791842D02*
X144514266Y-108887080D01*
X144514266Y-108887080D02*
X144466647Y-108934700D01*
X144466647Y-108934700D02*
X144371409Y-108982319D01*
X144371409Y-108982319D02*
X144276171Y-108982319D01*
X144276171Y-108982319D02*
X144180933Y-108934700D01*
X144180933Y-108934700D02*
X144133314Y-108887080D01*
X144133314Y-108887080D02*
X144085695Y-108791842D01*
X144085695Y-108791842D02*
X144038076Y-108601366D01*
X144038076Y-108601366D02*
X144038076Y-108363271D01*
X144038076Y-108363271D02*
X144085695Y-108172795D01*
X144085695Y-108172795D02*
X144133314Y-108077557D01*
X144133314Y-108077557D02*
X144180933Y-108029938D01*
X144180933Y-108029938D02*
X144276171Y-107982319D01*
X111080933Y-112427080D02*
X111033314Y-112474700D01*
X111033314Y-112474700D02*
X110890457Y-112522319D01*
X110890457Y-112522319D02*
X110795219Y-112522319D01*
X110795219Y-112522319D02*
X110652362Y-112474700D01*
X110652362Y-112474700D02*
X110557124Y-112379461D01*
X110557124Y-112379461D02*
X110509505Y-112284223D01*
X110509505Y-112284223D02*
X110461886Y-112093747D01*
X110461886Y-112093747D02*
X110461886Y-111950890D01*
X110461886Y-111950890D02*
X110509505Y-111760414D01*
X110509505Y-111760414D02*
X110557124Y-111665176D01*
X110557124Y-111665176D02*
X110652362Y-111569938D01*
X110652362Y-111569938D02*
X110795219Y-111522319D01*
X110795219Y-111522319D02*
X110890457Y-111522319D01*
X110890457Y-111522319D02*
X111033314Y-111569938D01*
X111033314Y-111569938D02*
X111080933Y-111617557D01*
X111557124Y-112522319D02*
X111747600Y-112522319D01*
X111747600Y-112522319D02*
X111842838Y-112474700D01*
X111842838Y-112474700D02*
X111890457Y-112427080D01*
X111890457Y-112427080D02*
X111985695Y-112284223D01*
X111985695Y-112284223D02*
X112033314Y-112093747D01*
X112033314Y-112093747D02*
X112033314Y-111712795D01*
X112033314Y-111712795D02*
X111985695Y-111617557D01*
X111985695Y-111617557D02*
X111938076Y-111569938D01*
X111938076Y-111569938D02*
X111842838Y-111522319D01*
X111842838Y-111522319D02*
X111652362Y-111522319D01*
X111652362Y-111522319D02*
X111557124Y-111569938D01*
X111557124Y-111569938D02*
X111509505Y-111617557D01*
X111509505Y-111617557D02*
X111461886Y-111712795D01*
X111461886Y-111712795D02*
X111461886Y-111950890D01*
X111461886Y-111950890D02*
X111509505Y-112046128D01*
X111509505Y-112046128D02*
X111557124Y-112093747D01*
X111557124Y-112093747D02*
X111652362Y-112141366D01*
X111652362Y-112141366D02*
X111842838Y-112141366D01*
X111842838Y-112141366D02*
X111938076Y-112093747D01*
X111938076Y-112093747D02*
X111985695Y-112046128D01*
X111985695Y-112046128D02*
X112033314Y-111950890D01*
X111080933Y-109417080D02*
X111033314Y-109464700D01*
X111033314Y-109464700D02*
X110890457Y-109512319D01*
X110890457Y-109512319D02*
X110795219Y-109512319D01*
X110795219Y-109512319D02*
X110652362Y-109464700D01*
X110652362Y-109464700D02*
X110557124Y-109369461D01*
X110557124Y-109369461D02*
X110509505Y-109274223D01*
X110509505Y-109274223D02*
X110461886Y-109083747D01*
X110461886Y-109083747D02*
X110461886Y-108940890D01*
X110461886Y-108940890D02*
X110509505Y-108750414D01*
X110509505Y-108750414D02*
X110557124Y-108655176D01*
X110557124Y-108655176D02*
X110652362Y-108559938D01*
X110652362Y-108559938D02*
X110795219Y-108512319D01*
X110795219Y-108512319D02*
X110890457Y-108512319D01*
X110890457Y-108512319D02*
X111033314Y-108559938D01*
X111033314Y-108559938D02*
X111080933Y-108607557D01*
X111652362Y-108940890D02*
X111557124Y-108893271D01*
X111557124Y-108893271D02*
X111509505Y-108845652D01*
X111509505Y-108845652D02*
X111461886Y-108750414D01*
X111461886Y-108750414D02*
X111461886Y-108702795D01*
X111461886Y-108702795D02*
X111509505Y-108607557D01*
X111509505Y-108607557D02*
X111557124Y-108559938D01*
X111557124Y-108559938D02*
X111652362Y-108512319D01*
X111652362Y-108512319D02*
X111842838Y-108512319D01*
X111842838Y-108512319D02*
X111938076Y-108559938D01*
X111938076Y-108559938D02*
X111985695Y-108607557D01*
X111985695Y-108607557D02*
X112033314Y-108702795D01*
X112033314Y-108702795D02*
X112033314Y-108750414D01*
X112033314Y-108750414D02*
X111985695Y-108845652D01*
X111985695Y-108845652D02*
X111938076Y-108893271D01*
X111938076Y-108893271D02*
X111842838Y-108940890D01*
X111842838Y-108940890D02*
X111652362Y-108940890D01*
X111652362Y-108940890D02*
X111557124Y-108988509D01*
X111557124Y-108988509D02*
X111509505Y-109036128D01*
X111509505Y-109036128D02*
X111461886Y-109131366D01*
X111461886Y-109131366D02*
X111461886Y-109321842D01*
X111461886Y-109321842D02*
X111509505Y-109417080D01*
X111509505Y-109417080D02*
X111557124Y-109464700D01*
X111557124Y-109464700D02*
X111652362Y-109512319D01*
X111652362Y-109512319D02*
X111842838Y-109512319D01*
X111842838Y-109512319D02*
X111938076Y-109464700D01*
X111938076Y-109464700D02*
X111985695Y-109417080D01*
X111985695Y-109417080D02*
X112033314Y-109321842D01*
X112033314Y-109321842D02*
X112033314Y-109131366D01*
X112033314Y-109131366D02*
X111985695Y-109036128D01*
X111985695Y-109036128D02*
X111938076Y-108988509D01*
X111938076Y-108988509D02*
X111842838Y-108940890D01*
X124080933Y-83217080D02*
X124033314Y-83264700D01*
X124033314Y-83264700D02*
X123890457Y-83312319D01*
X123890457Y-83312319D02*
X123795219Y-83312319D01*
X123795219Y-83312319D02*
X123652362Y-83264700D01*
X123652362Y-83264700D02*
X123557124Y-83169461D01*
X123557124Y-83169461D02*
X123509505Y-83074223D01*
X123509505Y-83074223D02*
X123461886Y-82883747D01*
X123461886Y-82883747D02*
X123461886Y-82740890D01*
X123461886Y-82740890D02*
X123509505Y-82550414D01*
X123509505Y-82550414D02*
X123557124Y-82455176D01*
X123557124Y-82455176D02*
X123652362Y-82359938D01*
X123652362Y-82359938D02*
X123795219Y-82312319D01*
X123795219Y-82312319D02*
X123890457Y-82312319D01*
X123890457Y-82312319D02*
X124033314Y-82359938D01*
X124033314Y-82359938D02*
X124080933Y-82407557D01*
X124414267Y-82312319D02*
X125080933Y-82312319D01*
X125080933Y-82312319D02*
X124652362Y-83312319D01*
X124080933Y-80707080D02*
X124033314Y-80754700D01*
X124033314Y-80754700D02*
X123890457Y-80802319D01*
X123890457Y-80802319D02*
X123795219Y-80802319D01*
X123795219Y-80802319D02*
X123652362Y-80754700D01*
X123652362Y-80754700D02*
X123557124Y-80659461D01*
X123557124Y-80659461D02*
X123509505Y-80564223D01*
X123509505Y-80564223D02*
X123461886Y-80373747D01*
X123461886Y-80373747D02*
X123461886Y-80230890D01*
X123461886Y-80230890D02*
X123509505Y-80040414D01*
X123509505Y-80040414D02*
X123557124Y-79945176D01*
X123557124Y-79945176D02*
X123652362Y-79849938D01*
X123652362Y-79849938D02*
X123795219Y-79802319D01*
X123795219Y-79802319D02*
X123890457Y-79802319D01*
X123890457Y-79802319D02*
X124033314Y-79849938D01*
X124033314Y-79849938D02*
X124080933Y-79897557D01*
X124938076Y-79802319D02*
X124747600Y-79802319D01*
X124747600Y-79802319D02*
X124652362Y-79849938D01*
X124652362Y-79849938D02*
X124604743Y-79897557D01*
X124604743Y-79897557D02*
X124509505Y-80040414D01*
X124509505Y-80040414D02*
X124461886Y-80230890D01*
X124461886Y-80230890D02*
X124461886Y-80611842D01*
X124461886Y-80611842D02*
X124509505Y-80707080D01*
X124509505Y-80707080D02*
X124557124Y-80754700D01*
X124557124Y-80754700D02*
X124652362Y-80802319D01*
X124652362Y-80802319D02*
X124842838Y-80802319D01*
X124842838Y-80802319D02*
X124938076Y-80754700D01*
X124938076Y-80754700D02*
X124985695Y-80707080D01*
X124985695Y-80707080D02*
X125033314Y-80611842D01*
X125033314Y-80611842D02*
X125033314Y-80373747D01*
X125033314Y-80373747D02*
X124985695Y-80278509D01*
X124985695Y-80278509D02*
X124938076Y-80230890D01*
X124938076Y-80230890D02*
X124842838Y-80183271D01*
X124842838Y-80183271D02*
X124652362Y-80183271D01*
X124652362Y-80183271D02*
X124557124Y-80230890D01*
X124557124Y-80230890D02*
X124509505Y-80278509D01*
X124509505Y-80278509D02*
X124461886Y-80373747D01*
X124080933Y-78197080D02*
X124033314Y-78244700D01*
X124033314Y-78244700D02*
X123890457Y-78292319D01*
X123890457Y-78292319D02*
X123795219Y-78292319D01*
X123795219Y-78292319D02*
X123652362Y-78244700D01*
X123652362Y-78244700D02*
X123557124Y-78149461D01*
X123557124Y-78149461D02*
X123509505Y-78054223D01*
X123509505Y-78054223D02*
X123461886Y-77863747D01*
X123461886Y-77863747D02*
X123461886Y-77720890D01*
X123461886Y-77720890D02*
X123509505Y-77530414D01*
X123509505Y-77530414D02*
X123557124Y-77435176D01*
X123557124Y-77435176D02*
X123652362Y-77339938D01*
X123652362Y-77339938D02*
X123795219Y-77292319D01*
X123795219Y-77292319D02*
X123890457Y-77292319D01*
X123890457Y-77292319D02*
X124033314Y-77339938D01*
X124033314Y-77339938D02*
X124080933Y-77387557D01*
X124985695Y-77292319D02*
X124509505Y-77292319D01*
X124509505Y-77292319D02*
X124461886Y-77768509D01*
X124461886Y-77768509D02*
X124509505Y-77720890D01*
X124509505Y-77720890D02*
X124604743Y-77673271D01*
X124604743Y-77673271D02*
X124842838Y-77673271D01*
X124842838Y-77673271D02*
X124938076Y-77720890D01*
X124938076Y-77720890D02*
X124985695Y-77768509D01*
X124985695Y-77768509D02*
X125033314Y-77863747D01*
X125033314Y-77863747D02*
X125033314Y-78101842D01*
X125033314Y-78101842D02*
X124985695Y-78197080D01*
X124985695Y-78197080D02*
X124938076Y-78244700D01*
X124938076Y-78244700D02*
X124842838Y-78292319D01*
X124842838Y-78292319D02*
X124604743Y-78292319D01*
X124604743Y-78292319D02*
X124509505Y-78244700D01*
X124509505Y-78244700D02*
X124461886Y-78197080D01*
X124080933Y-75687080D02*
X124033314Y-75734700D01*
X124033314Y-75734700D02*
X123890457Y-75782319D01*
X123890457Y-75782319D02*
X123795219Y-75782319D01*
X123795219Y-75782319D02*
X123652362Y-75734700D01*
X123652362Y-75734700D02*
X123557124Y-75639461D01*
X123557124Y-75639461D02*
X123509505Y-75544223D01*
X123509505Y-75544223D02*
X123461886Y-75353747D01*
X123461886Y-75353747D02*
X123461886Y-75210890D01*
X123461886Y-75210890D02*
X123509505Y-75020414D01*
X123509505Y-75020414D02*
X123557124Y-74925176D01*
X123557124Y-74925176D02*
X123652362Y-74829938D01*
X123652362Y-74829938D02*
X123795219Y-74782319D01*
X123795219Y-74782319D02*
X123890457Y-74782319D01*
X123890457Y-74782319D02*
X124033314Y-74829938D01*
X124033314Y-74829938D02*
X124080933Y-74877557D01*
X124938076Y-75115652D02*
X124938076Y-75782319D01*
X124699981Y-74734700D02*
X124461886Y-75448985D01*
X124461886Y-75448985D02*
X125080933Y-75448985D01*
X124080933Y-73177080D02*
X124033314Y-73224700D01*
X124033314Y-73224700D02*
X123890457Y-73272319D01*
X123890457Y-73272319D02*
X123795219Y-73272319D01*
X123795219Y-73272319D02*
X123652362Y-73224700D01*
X123652362Y-73224700D02*
X123557124Y-73129461D01*
X123557124Y-73129461D02*
X123509505Y-73034223D01*
X123509505Y-73034223D02*
X123461886Y-72843747D01*
X123461886Y-72843747D02*
X123461886Y-72700890D01*
X123461886Y-72700890D02*
X123509505Y-72510414D01*
X123509505Y-72510414D02*
X123557124Y-72415176D01*
X123557124Y-72415176D02*
X123652362Y-72319938D01*
X123652362Y-72319938D02*
X123795219Y-72272319D01*
X123795219Y-72272319D02*
X123890457Y-72272319D01*
X123890457Y-72272319D02*
X124033314Y-72319938D01*
X124033314Y-72319938D02*
X124080933Y-72367557D01*
X124414267Y-72272319D02*
X125033314Y-72272319D01*
X125033314Y-72272319D02*
X124699981Y-72653271D01*
X124699981Y-72653271D02*
X124842838Y-72653271D01*
X124842838Y-72653271D02*
X124938076Y-72700890D01*
X124938076Y-72700890D02*
X124985695Y-72748509D01*
X124985695Y-72748509D02*
X125033314Y-72843747D01*
X125033314Y-72843747D02*
X125033314Y-73081842D01*
X125033314Y-73081842D02*
X124985695Y-73177080D01*
X124985695Y-73177080D02*
X124938076Y-73224700D01*
X124938076Y-73224700D02*
X124842838Y-73272319D01*
X124842838Y-73272319D02*
X124557124Y-73272319D01*
X124557124Y-73272319D02*
X124461886Y-73224700D01*
X124461886Y-73224700D02*
X124414267Y-73177080D01*
X124080933Y-70667080D02*
X124033314Y-70714700D01*
X124033314Y-70714700D02*
X123890457Y-70762319D01*
X123890457Y-70762319D02*
X123795219Y-70762319D01*
X123795219Y-70762319D02*
X123652362Y-70714700D01*
X123652362Y-70714700D02*
X123557124Y-70619461D01*
X123557124Y-70619461D02*
X123509505Y-70524223D01*
X123509505Y-70524223D02*
X123461886Y-70333747D01*
X123461886Y-70333747D02*
X123461886Y-70190890D01*
X123461886Y-70190890D02*
X123509505Y-70000414D01*
X123509505Y-70000414D02*
X123557124Y-69905176D01*
X123557124Y-69905176D02*
X123652362Y-69809938D01*
X123652362Y-69809938D02*
X123795219Y-69762319D01*
X123795219Y-69762319D02*
X123890457Y-69762319D01*
X123890457Y-69762319D02*
X124033314Y-69809938D01*
X124033314Y-69809938D02*
X124080933Y-69857557D01*
X124461886Y-69857557D02*
X124509505Y-69809938D01*
X124509505Y-69809938D02*
X124604743Y-69762319D01*
X124604743Y-69762319D02*
X124842838Y-69762319D01*
X124842838Y-69762319D02*
X124938076Y-69809938D01*
X124938076Y-69809938D02*
X124985695Y-69857557D01*
X124985695Y-69857557D02*
X125033314Y-69952795D01*
X125033314Y-69952795D02*
X125033314Y-70048033D01*
X125033314Y-70048033D02*
X124985695Y-70190890D01*
X124985695Y-70190890D02*
X124414267Y-70762319D01*
X124414267Y-70762319D02*
X125033314Y-70762319D01*
%TO.C,U13*%
X140047600Y-72782600D02*
X145047600Y-72782600D01*
X140047600Y-73912600D02*
X140047600Y-72782600D01*
X140047600Y-74152600D02*
X140047600Y-73912600D01*
X140047600Y-75212600D02*
X140147600Y-75212600D01*
X140047600Y-76682600D02*
X140047600Y-75212600D01*
X140047600Y-76682600D02*
X145047600Y-76682600D01*
X140087600Y-74192600D02*
X140047600Y-74152600D01*
X145047600Y-76682600D02*
X145047600Y-72782600D01*
X140087600Y-74192600D02*
G75*
G02*
X140627600Y-74732600I43899J-496101D01*
G01*
X140627600Y-74732600D02*
G75*
G02*
X140147600Y-75212600I-480001J1D01*
G01*
X140911900Y-75992800D02*
G75*
G02*
X140343500Y-75992800I-284200J0D01*
G01*
X140343500Y-75992800D02*
G75*
G02*
X140911900Y-75992800I284200J0D01*
G01*
D11*
%TO.C,U12*%
X123572600Y-109979500D02*
X125372600Y-109979500D01*
X123572600Y-113079500D02*
X125372600Y-113079500D01*
X125996600Y-113180400D02*
G75*
G02*
X125742600Y-113180400I-127000J0D01*
G01*
X125742600Y-113180400D02*
G75*
G02*
X125996600Y-113180400I127000J0D01*
G01*
D12*
%TO.C,U9*%
X136018800Y-111296100D02*
X141171200Y-111296100D01*
X136018800Y-114338900D02*
X136018800Y-111296100D01*
X141171200Y-111296100D02*
X141171200Y-114338900D01*
X141171200Y-114338900D02*
X136018800Y-114338900D01*
D13*
X136072800Y-115500000D02*
G75*
G02*
X135772600Y-115500000I-150100J0D01*
G01*
X135772600Y-115500000D02*
G75*
G02*
X136072800Y-115500000I150100J0D01*
G01*
X136586100Y-113833500D02*
G75*
G02*
X136285900Y-113833500I-150100J0D01*
G01*
X136285900Y-113833500D02*
G75*
G02*
X136586100Y-113833500I150100J0D01*
G01*
D14*
%TO.C,U5*%
X142447600Y-103567500D02*
X141647600Y-103567500D01*
X142447600Y-103567500D02*
X143247600Y-103567500D01*
X142447600Y-106687500D02*
X141647600Y-106687500D01*
X142447600Y-106687500D02*
X143247600Y-106687500D01*
X141147600Y-103617500D02*
X140907600Y-103287500D01*
X141387600Y-103287500D01*
X141147600Y-103617500D01*
G36*
X141147600Y-103617500D02*
G01*
X140907600Y-103287500D01*
X141387600Y-103287500D01*
X141147600Y-103617500D01*
G37*
%TO.C,U4*%
X104422600Y-109792500D02*
X102222600Y-109792500D01*
X104422600Y-109792500D02*
X106622600Y-109792500D01*
X104422600Y-115312500D02*
X102222600Y-115312500D01*
X104422600Y-115312500D02*
X106622600Y-115312500D01*
X100512600Y-110277500D02*
X100182600Y-110517500D01*
X100182600Y-110037500D01*
X100512600Y-110277500D01*
G36*
X100512600Y-110277500D02*
G01*
X100182600Y-110517500D01*
X100182600Y-110037500D01*
X100512600Y-110277500D01*
G37*
%TO.C,U3*%
X142447600Y-98942500D02*
X141647600Y-98942500D01*
X142447600Y-98942500D02*
X143247600Y-98942500D01*
X142447600Y-102062500D02*
X141647600Y-102062500D01*
X142447600Y-102062500D02*
X143247600Y-102062500D01*
X141147600Y-98992500D02*
X140907600Y-98662500D01*
X141387600Y-98662500D01*
X141147600Y-98992500D01*
G36*
X141147600Y-98992500D02*
G01*
X140907600Y-98662500D01*
X141387600Y-98662500D01*
X141147600Y-98992500D01*
G37*
%TO.C,TP36*%
X114047600Y-87257500D02*
G75*
G02*
X112647600Y-87257500I-700000J0D01*
G01*
X112647600Y-87257500D02*
G75*
G02*
X114047600Y-87257500I700000J0D01*
G01*
%TO.C,TP35*%
X114047600Y-84207500D02*
G75*
G02*
X112647600Y-84207500I-700000J0D01*
G01*
X112647600Y-84207500D02*
G75*
G02*
X114047600Y-84207500I700000J0D01*
G01*
%TO.C,TP34*%
X114047600Y-81157500D02*
G75*
G02*
X112647600Y-81157500I-700000J0D01*
G01*
X112647600Y-81157500D02*
G75*
G02*
X114047600Y-81157500I700000J0D01*
G01*
%TO.C,TP33*%
X114047600Y-78107500D02*
G75*
G02*
X112647600Y-78107500I-700000J0D01*
G01*
X112647600Y-78107500D02*
G75*
G02*
X114047600Y-78107500I700000J0D01*
G01*
%TO.C,TP32*%
X114047600Y-75057500D02*
G75*
G02*
X112647600Y-75057500I-700000J0D01*
G01*
X112647600Y-75057500D02*
G75*
G02*
X114047600Y-75057500I700000J0D01*
G01*
%TO.C,TP31*%
X114047600Y-72007500D02*
G75*
G02*
X112647600Y-72007500I-700000J0D01*
G01*
X112647600Y-72007500D02*
G75*
G02*
X114047600Y-72007500I700000J0D01*
G01*
%TO.C,TP30*%
X110997600Y-90307500D02*
G75*
G02*
X109597600Y-90307500I-700000J0D01*
G01*
X109597600Y-90307500D02*
G75*
G02*
X110997600Y-90307500I700000J0D01*
G01*
%TO.C,TP29*%
X110997600Y-87257500D02*
G75*
G02*
X109597600Y-87257500I-700000J0D01*
G01*
X109597600Y-87257500D02*
G75*
G02*
X110997600Y-87257500I700000J0D01*
G01*
%TO.C,TP28*%
X110997600Y-84207500D02*
G75*
G02*
X109597600Y-84207500I-700000J0D01*
G01*
X109597600Y-84207500D02*
G75*
G02*
X110997600Y-84207500I700000J0D01*
G01*
%TO.C,TP26*%
X110997600Y-81157500D02*
G75*
G02*
X109597600Y-81157500I-700000J0D01*
G01*
X109597600Y-81157500D02*
G75*
G02*
X110997600Y-81157500I700000J0D01*
G01*
%TO.C,TP25*%
X110997600Y-78107500D02*
G75*
G02*
X109597600Y-78107500I-700000J0D01*
G01*
X109597600Y-78107500D02*
G75*
G02*
X110997600Y-78107500I700000J0D01*
G01*
%TO.C,TP24*%
X110997600Y-75057500D02*
G75*
G02*
X109597600Y-75057500I-700000J0D01*
G01*
X109597600Y-75057500D02*
G75*
G02*
X110997600Y-75057500I700000J0D01*
G01*
%TO.C,TP23*%
X110997600Y-72007500D02*
G75*
G02*
X109597600Y-72007500I-700000J0D01*
G01*
X109597600Y-72007500D02*
G75*
G02*
X110997600Y-72007500I700000J0D01*
G01*
%TO.C,TP22*%
X107947600Y-90307500D02*
G75*
G02*
X106547600Y-90307500I-700000J0D01*
G01*
X106547600Y-90307500D02*
G75*
G02*
X107947600Y-90307500I700000J0D01*
G01*
%TO.C,TP21*%
X107947600Y-87257500D02*
G75*
G02*
X106547600Y-87257500I-700000J0D01*
G01*
X106547600Y-87257500D02*
G75*
G02*
X107947600Y-87257500I700000J0D01*
G01*
%TO.C,TP20*%
X107947600Y-84207500D02*
G75*
G02*
X106547600Y-84207500I-700000J0D01*
G01*
X106547600Y-84207500D02*
G75*
G02*
X107947600Y-84207500I700000J0D01*
G01*
%TO.C,TP19*%
X107947600Y-81157500D02*
G75*
G02*
X106547600Y-81157500I-700000J0D01*
G01*
X106547600Y-81157500D02*
G75*
G02*
X107947600Y-81157500I700000J0D01*
G01*
%TO.C,TP18*%
X107947600Y-78107500D02*
G75*
G02*
X106547600Y-78107500I-700000J0D01*
G01*
X106547600Y-78107500D02*
G75*
G02*
X107947600Y-78107500I700000J0D01*
G01*
%TO.C,TP17*%
X107947600Y-75057500D02*
G75*
G02*
X106547600Y-75057500I-700000J0D01*
G01*
X106547600Y-75057500D02*
G75*
G02*
X107947600Y-75057500I700000J0D01*
G01*
%TO.C,TP16*%
X107947600Y-72007500D02*
G75*
G02*
X106547600Y-72007500I-700000J0D01*
G01*
X106547600Y-72007500D02*
G75*
G02*
X107947600Y-72007500I700000J0D01*
G01*
%TO.C,TP15*%
X104897600Y-90307500D02*
G75*
G02*
X103497600Y-90307500I-700000J0D01*
G01*
X103497600Y-90307500D02*
G75*
G02*
X104897600Y-90307500I700000J0D01*
G01*
%TO.C,TP14*%
X104897600Y-87257500D02*
G75*
G02*
X103497600Y-87257500I-700000J0D01*
G01*
X103497600Y-87257500D02*
G75*
G02*
X104897600Y-87257500I700000J0D01*
G01*
%TO.C,TP13*%
X104897600Y-84207500D02*
G75*
G02*
X103497600Y-84207500I-700000J0D01*
G01*
X103497600Y-84207500D02*
G75*
G02*
X104897600Y-84207500I700000J0D01*
G01*
%TO.C,TP12*%
X104897600Y-81157500D02*
G75*
G02*
X103497600Y-81157500I-700000J0D01*
G01*
X103497600Y-81157500D02*
G75*
G02*
X104897600Y-81157500I700000J0D01*
G01*
%TO.C,TP11*%
X104897600Y-78107500D02*
G75*
G02*
X103497600Y-78107500I-700000J0D01*
G01*
X103497600Y-78107500D02*
G75*
G02*
X104897600Y-78107500I700000J0D01*
G01*
%TO.C,TP10*%
X104897600Y-75057500D02*
G75*
G02*
X103497600Y-75057500I-700000J0D01*
G01*
X103497600Y-75057500D02*
G75*
G02*
X104897600Y-75057500I700000J0D01*
G01*
%TO.C,TP9*%
X104897600Y-72007500D02*
G75*
G02*
X103497600Y-72007500I-700000J0D01*
G01*
X103497600Y-72007500D02*
G75*
G02*
X104897600Y-72007500I700000J0D01*
G01*
%TO.C,TP8*%
X101847600Y-90307500D02*
G75*
G02*
X100447600Y-90307500I-700000J0D01*
G01*
X100447600Y-90307500D02*
G75*
G02*
X101847600Y-90307500I700000J0D01*
G01*
%TO.C,TP7*%
X101847600Y-87257500D02*
G75*
G02*
X100447600Y-87257500I-700000J0D01*
G01*
X100447600Y-87257500D02*
G75*
G02*
X101847600Y-87257500I700000J0D01*
G01*
%TO.C,TP6*%
X101847600Y-84207500D02*
G75*
G02*
X100447600Y-84207500I-700000J0D01*
G01*
X100447600Y-84207500D02*
G75*
G02*
X101847600Y-84207500I700000J0D01*
G01*
%TO.C,TP5*%
X101847600Y-81157500D02*
G75*
G02*
X100447600Y-81157500I-700000J0D01*
G01*
X100447600Y-81157500D02*
G75*
G02*
X101847600Y-81157500I700000J0D01*
G01*
%TO.C,TP4*%
X101847600Y-78107500D02*
G75*
G02*
X100447600Y-78107500I-700000J0D01*
G01*
X100447600Y-78107500D02*
G75*
G02*
X101847600Y-78107500I700000J0D01*
G01*
%TO.C,TP3*%
X101847600Y-75057500D02*
G75*
G02*
X100447600Y-75057500I-700000J0D01*
G01*
X100447600Y-75057500D02*
G75*
G02*
X101847600Y-75057500I700000J0D01*
G01*
%TO.C,TP2*%
X101847600Y-72007500D02*
G75*
G02*
X100447600Y-72007500I-700000J0D01*
G01*
X100447600Y-72007500D02*
G75*
G02*
X101847600Y-72007500I700000J0D01*
G01*
%TO.C,R32*%
X137042876Y-78745000D02*
X137552324Y-78745000D01*
X137042876Y-79790000D02*
X137552324Y-79790000D01*
%TO.C,R31*%
X137042876Y-76235000D02*
X137552324Y-76235000D01*
X137042876Y-77280000D02*
X137552324Y-77280000D01*
%TO.C,R30*%
X137270536Y-106492500D02*
X137724664Y-106492500D01*
X137270536Y-107962500D02*
X137724664Y-107962500D01*
%TO.C,R29*%
X137270536Y-103542500D02*
X137724664Y-103542500D01*
X137270536Y-105012500D02*
X137724664Y-105012500D01*
%TO.C,R28*%
X132339979Y-111957500D02*
X132675221Y-111957500D01*
X132339979Y-112717500D02*
X132675221Y-112717500D01*
%TO.C,R27*%
X137042876Y-73725000D02*
X137552324Y-73725000D01*
X137042876Y-74770000D02*
X137552324Y-74770000D01*
%TO.C,R26*%
X137042876Y-71215000D02*
X137552324Y-71215000D01*
X137042876Y-72260000D02*
X137552324Y-72260000D01*
%TO.C,R25*%
X132692876Y-86275000D02*
X133202324Y-86275000D01*
X132692876Y-87320000D02*
X133202324Y-87320000D01*
%TO.C,R24*%
X132692876Y-83765000D02*
X133202324Y-83765000D01*
X132692876Y-84810000D02*
X133202324Y-84810000D01*
%TO.C,R23*%
X132692876Y-81255000D02*
X133202324Y-81255000D01*
X132692876Y-82300000D02*
X133202324Y-82300000D01*
%TO.C,R22*%
X132692876Y-78745000D02*
X133202324Y-78745000D01*
X132692876Y-79790000D02*
X133202324Y-79790000D01*
%TO.C,R21*%
X132692876Y-76235000D02*
X133202324Y-76235000D01*
X132692876Y-77280000D02*
X133202324Y-77280000D01*
%TO.C,R20*%
X132692876Y-73725000D02*
X133202324Y-73725000D01*
X132692876Y-74770000D02*
X133202324Y-74770000D01*
%TO.C,R16*%
X132692876Y-71215000D02*
X133202324Y-71215000D01*
X132692876Y-72260000D02*
X133202324Y-72260000D01*
%TO.C,R14*%
X128342876Y-86275000D02*
X128852324Y-86275000D01*
X128342876Y-87320000D02*
X128852324Y-87320000D01*
%TO.C,R13*%
X137270536Y-100592500D02*
X137724664Y-100592500D01*
X137270536Y-102062500D02*
X137724664Y-102062500D01*
%TO.C,R12*%
X128342876Y-83765000D02*
X128852324Y-83765000D01*
X128342876Y-84810000D02*
X128852324Y-84810000D01*
%TO.C,R11*%
X137270536Y-97642500D02*
X137724664Y-97642500D01*
X137270536Y-99112500D02*
X137724664Y-99112500D01*
%TO.C,R10*%
X137270536Y-94692500D02*
X137724664Y-94692500D01*
X137270536Y-96162500D02*
X137724664Y-96162500D01*
%TO.C,R7*%
X137270536Y-91742500D02*
X137724664Y-91742500D01*
X137270536Y-93212500D02*
X137724664Y-93212500D01*
%TO.C,R6*%
X137270536Y-88792500D02*
X137724664Y-88792500D01*
X137270536Y-90262500D02*
X137724664Y-90262500D01*
%TO.C,R5*%
X132339979Y-109967500D02*
X132675221Y-109967500D01*
X132339979Y-110727500D02*
X132675221Y-110727500D01*
%TO.C,R4*%
X128640342Y-112595000D02*
X129114858Y-112595000D01*
X128640342Y-113640000D02*
X129114858Y-113640000D01*
%TO.C,R2*%
X128640342Y-110085000D02*
X129114858Y-110085000D01*
X128640342Y-111130000D02*
X129114858Y-111130000D01*
%TO.C,L2*%
X141856348Y-83497500D02*
X142378852Y-83497500D01*
X141856348Y-85717500D02*
X142378852Y-85717500D01*
%TO.C,L1*%
X141856348Y-79747500D02*
X142378852Y-79747500D01*
X141856348Y-81967500D02*
X142378852Y-81967500D01*
%TO.C,JP18*%
X131547600Y-103027500D02*
X134347600Y-103027500D01*
X131547600Y-105027500D02*
X131547600Y-103027500D01*
X134347600Y-103027500D02*
X134347600Y-105027500D01*
X134347600Y-105027500D02*
X131547600Y-105027500D01*
%TO.C,JP16*%
X131547600Y-99477500D02*
X134347600Y-99477500D01*
X131547600Y-101477500D02*
X131547600Y-99477500D01*
X134347600Y-99477500D02*
X134347600Y-101477500D01*
X134347600Y-101477500D02*
X131547600Y-101477500D01*
%TO.C,JP15*%
X131547600Y-95927500D02*
X134347600Y-95927500D01*
X131547600Y-97927500D02*
X131547600Y-95927500D01*
X134347600Y-95927500D02*
X134347600Y-97927500D01*
X134347600Y-97927500D02*
X131547600Y-97927500D01*
%TO.C,JP14*%
X131547600Y-92377500D02*
X134347600Y-92377500D01*
X131547600Y-94377500D02*
X131547600Y-92377500D01*
X134347600Y-92377500D02*
X134347600Y-94377500D01*
X134347600Y-94377500D02*
X131547600Y-94377500D01*
%TO.C,JP13*%
X131547600Y-88827500D02*
X134347600Y-88827500D01*
X131547600Y-90827500D02*
X131547600Y-88827500D01*
X134347600Y-88827500D02*
X134347600Y-90827500D01*
X134347600Y-90827500D02*
X131547600Y-90827500D01*
%TO.C,JP12*%
X127197600Y-106577500D02*
X129997600Y-106577500D01*
X127197600Y-108577500D02*
X127197600Y-106577500D01*
X129997600Y-106577500D02*
X129997600Y-108577500D01*
X129997600Y-108577500D02*
X127197600Y-108577500D01*
%TO.C,JP11*%
X127197600Y-103027500D02*
X129997600Y-103027500D01*
X127197600Y-105027500D02*
X127197600Y-103027500D01*
X129997600Y-103027500D02*
X129997600Y-105027500D01*
X129997600Y-105027500D02*
X127197600Y-105027500D01*
%TO.C,JP10*%
X127197600Y-99477500D02*
X129997600Y-99477500D01*
X127197600Y-101477500D02*
X127197600Y-99477500D01*
X129997600Y-99477500D02*
X129997600Y-101477500D01*
X129997600Y-101477500D02*
X127197600Y-101477500D01*
%TO.C,JP9*%
X127197600Y-95927500D02*
X129997600Y-95927500D01*
X127197600Y-97927500D02*
X127197600Y-95927500D01*
X129997600Y-95927500D02*
X129997600Y-97927500D01*
X129997600Y-97927500D02*
X127197600Y-97927500D01*
%TO.C,JP8*%
X127197600Y-92377500D02*
X129997600Y-92377500D01*
X127197600Y-94377500D02*
X127197600Y-92377500D01*
X129997600Y-92377500D02*
X129997600Y-94377500D01*
X129997600Y-94377500D02*
X127197600Y-94377500D01*
%TO.C,JP7*%
X127197600Y-88827500D02*
X129997600Y-88827500D01*
X127197600Y-90827500D02*
X127197600Y-88827500D01*
X129997600Y-88827500D02*
X129997600Y-90827500D01*
X129997600Y-90827500D02*
X127197600Y-90827500D01*
%TO.C,JP6*%
X122847600Y-106577500D02*
X125647600Y-106577500D01*
X122847600Y-108577500D02*
X122847600Y-106577500D01*
X125647600Y-106577500D02*
X125647600Y-108577500D01*
X125647600Y-108577500D02*
X122847600Y-108577500D01*
%TO.C,JP5*%
X122847600Y-103027500D02*
X125647600Y-103027500D01*
X122847600Y-105027500D02*
X122847600Y-103027500D01*
X125647600Y-103027500D02*
X125647600Y-105027500D01*
X125647600Y-105027500D02*
X122847600Y-105027500D01*
%TO.C,JP4*%
X122847600Y-99477500D02*
X125647600Y-99477500D01*
X122847600Y-101477500D02*
X122847600Y-99477500D01*
X125647600Y-99477500D02*
X125647600Y-101477500D01*
X125647600Y-101477500D02*
X122847600Y-101477500D01*
%TO.C,JP3*%
X122847600Y-95927500D02*
X125647600Y-95927500D01*
X122847600Y-97927500D02*
X122847600Y-95927500D01*
X125647600Y-95927500D02*
X125647600Y-97927500D01*
X125647600Y-97927500D02*
X122847600Y-97927500D01*
%TO.C,JP2*%
X122847600Y-92377500D02*
X125647600Y-92377500D01*
X122847600Y-94377500D02*
X122847600Y-92377500D01*
X125647600Y-92377500D02*
X125647600Y-94377500D01*
X125647600Y-94377500D02*
X122847600Y-94377500D01*
%TO.C,JP1*%
X122847600Y-88827500D02*
X125647600Y-88827500D01*
X122847600Y-90827500D02*
X122847600Y-88827500D01*
X125647600Y-88827500D02*
X125647600Y-90827500D01*
X125647600Y-90827500D02*
X122847600Y-90827500D01*
D11*
%TO.C,J4*%
X101542500Y-95728400D02*
X101542500Y-93990700D01*
X101542500Y-99559500D02*
X101542500Y-97790700D01*
X101542500Y-99559500D02*
X110542500Y-99559500D01*
X102661300Y-92759500D02*
X102303600Y-92759500D01*
X103375600Y-94197500D02*
X103375500Y-99559500D01*
X108709600Y-94197500D02*
X108709500Y-99559500D01*
X109725500Y-92759500D02*
X109423600Y-92759500D01*
X110542500Y-95728400D02*
X110542500Y-93990700D01*
X110542500Y-99559500D02*
X110542500Y-97790700D01*
D14*
%TO.C,J3*%
X115867600Y-71477500D02*
X117197600Y-71477500D01*
X115867600Y-72807500D02*
X115867600Y-71477500D01*
X115867600Y-74077500D02*
X115867600Y-112237500D01*
X115867600Y-74077500D02*
X118467600Y-74077500D01*
X115867600Y-112237500D02*
X121067600Y-112237500D01*
X118467600Y-71477500D02*
X121067600Y-71477500D01*
X118467600Y-74077500D02*
X118467600Y-71477500D01*
X121067600Y-71477500D02*
X121067600Y-112237500D01*
%TO.C,J1*%
X100297600Y-100857500D02*
X101797600Y-100857500D01*
X100297600Y-102357500D02*
X100297600Y-100857500D01*
X100537600Y-101097500D02*
X100537600Y-108317500D01*
X100537600Y-108317500D02*
X107857600Y-108317500D01*
X107857600Y-101097500D02*
X100537600Y-101097500D01*
X108857600Y-102097500D02*
X108857600Y-107317500D01*
X107857600Y-101097500D02*
G75*
G02*
X108857600Y-102097500I0J-1000000D01*
G01*
X108857600Y-107317500D02*
G75*
G02*
X107857600Y-108317500I-1000000J0D01*
G01*
%TO.C,D4*%
X110332600Y-105922500D02*
X110332600Y-107392500D01*
X110332600Y-107392500D02*
X112792600Y-107392500D01*
X112792600Y-105922500D02*
X110332600Y-105922500D01*
%TO.C,D3*%
X110332600Y-103332500D02*
X110332600Y-104802500D01*
X110332600Y-104802500D02*
X112792600Y-104802500D01*
X112792600Y-103332500D02*
X110332600Y-103332500D01*
%TO.C,D1*%
X110332600Y-100742500D02*
X110332600Y-102212500D01*
X110332600Y-102212500D02*
X112792600Y-102212500D01*
X112792600Y-100742500D02*
X110332600Y-100742500D01*
%TO.C,C21*%
X142166348Y-95517500D02*
X143588852Y-95517500D01*
X142166348Y-97337500D02*
X143588852Y-97337500D01*
%TO.C,C20*%
X142166348Y-92167500D02*
X143588852Y-92167500D01*
X142166348Y-93987500D02*
X143588852Y-93987500D01*
%TO.C,C19*%
X142166348Y-88817500D02*
X143588852Y-88817500D01*
X142166348Y-90637500D02*
X143588852Y-90637500D01*
%TO.C,C17*%
X128451333Y-81267500D02*
X128743867Y-81267500D01*
X128451333Y-82287500D02*
X128743867Y-82287500D01*
%TO.C,C16*%
X128451333Y-78757500D02*
X128743867Y-78757500D01*
X128451333Y-79777500D02*
X128743867Y-79777500D01*
%TO.C,C15*%
X143231765Y-111297500D02*
X143463435Y-111297500D01*
X143231765Y-112017500D02*
X143463435Y-112017500D01*
%TO.C,C14*%
X128451333Y-76247500D02*
X128743867Y-76247500D01*
X128451333Y-77267500D02*
X128743867Y-77267500D01*
%TO.C,C13*%
X128451333Y-73737500D02*
X128743867Y-73737500D01*
X128451333Y-74757500D02*
X128743867Y-74757500D01*
%TO.C,C12*%
X128451333Y-71227500D02*
X128743867Y-71227500D01*
X128451333Y-72247500D02*
X128743867Y-72247500D01*
%TO.C,C11*%
X124101333Y-86287500D02*
X124393867Y-86287500D01*
X124101333Y-87307500D02*
X124393867Y-87307500D01*
%TO.C,C10*%
X143231765Y-109327500D02*
X143463435Y-109327500D01*
X143231765Y-110047500D02*
X143463435Y-110047500D01*
%TO.C,C9*%
X110986348Y-113012500D02*
X111508852Y-113012500D01*
X110986348Y-114482500D02*
X111508852Y-114482500D01*
%TO.C,C8*%
X110986348Y-110002500D02*
X111508852Y-110002500D01*
X110986348Y-111472500D02*
X111508852Y-111472500D01*
%TO.C,C7*%
X124101333Y-83777500D02*
X124393867Y-83777500D01*
X124101333Y-84797500D02*
X124393867Y-84797500D01*
%TO.C,C6*%
X124101333Y-81267500D02*
X124393867Y-81267500D01*
X124101333Y-82287500D02*
X124393867Y-82287500D01*
%TO.C,C5*%
X124101333Y-78757500D02*
X124393867Y-78757500D01*
X124101333Y-79777500D02*
X124393867Y-79777500D01*
%TO.C,C4*%
X124101333Y-76247500D02*
X124393867Y-76247500D01*
X124101333Y-77267500D02*
X124393867Y-77267500D01*
%TO.C,C3*%
X124101333Y-73737500D02*
X124393867Y-73737500D01*
X124101333Y-74757500D02*
X124393867Y-74757500D01*
%TO.C,C2*%
X124101333Y-71227500D02*
X124393867Y-71227500D01*
X124101333Y-72247500D02*
X124393867Y-72247500D01*
%TD*%
%LPC*%
%TO.C,JP18*%
G36*
X132797600Y-103277500D02*
G01*
X133097600Y-103277500D01*
X133097600Y-104777500D01*
X132797600Y-104777500D01*
X132797600Y-103277500D01*
G37*
%TO.C,JP16*%
G36*
X132797600Y-99727500D02*
G01*
X133097600Y-99727500D01*
X133097600Y-101227500D01*
X132797600Y-101227500D01*
X132797600Y-99727500D01*
G37*
%TO.C,JP15*%
G36*
X132797600Y-96177500D02*
G01*
X133097600Y-96177500D01*
X133097600Y-97677500D01*
X132797600Y-97677500D01*
X132797600Y-96177500D01*
G37*
%TO.C,JP14*%
G36*
X132797600Y-92627500D02*
G01*
X133097600Y-92627500D01*
X133097600Y-94127500D01*
X132797600Y-94127500D01*
X132797600Y-92627500D01*
G37*
%TO.C,JP13*%
G36*
X132797600Y-89077500D02*
G01*
X133097600Y-89077500D01*
X133097600Y-90577500D01*
X132797600Y-90577500D01*
X132797600Y-89077500D01*
G37*
%TO.C,JP12*%
G36*
X128447600Y-106827500D02*
G01*
X128747600Y-106827500D01*
X128747600Y-108327500D01*
X128447600Y-108327500D01*
X128447600Y-106827500D01*
G37*
%TO.C,JP11*%
G36*
X128447600Y-103277500D02*
G01*
X128747600Y-103277500D01*
X128747600Y-104777500D01*
X128447600Y-104777500D01*
X128447600Y-103277500D01*
G37*
%TO.C,JP10*%
G36*
X128447600Y-99727500D02*
G01*
X128747600Y-99727500D01*
X128747600Y-101227500D01*
X128447600Y-101227500D01*
X128447600Y-99727500D01*
G37*
%TO.C,JP9*%
G36*
X128447600Y-96177500D02*
G01*
X128747600Y-96177500D01*
X128747600Y-97677500D01*
X128447600Y-97677500D01*
X128447600Y-96177500D01*
G37*
%TO.C,JP8*%
G36*
X128447600Y-92627500D02*
G01*
X128747600Y-92627500D01*
X128747600Y-94127500D01*
X128447600Y-94127500D01*
X128447600Y-92627500D01*
G37*
%TO.C,JP7*%
G36*
X128447600Y-89077500D02*
G01*
X128747600Y-89077500D01*
X128747600Y-90577500D01*
X128447600Y-90577500D01*
X128447600Y-89077500D01*
G37*
%TO.C,JP6*%
G36*
X124097600Y-106827500D02*
G01*
X124397600Y-106827500D01*
X124397600Y-108327500D01*
X124097600Y-108327500D01*
X124097600Y-106827500D01*
G37*
%TO.C,JP5*%
G36*
X124097600Y-103277500D02*
G01*
X124397600Y-103277500D01*
X124397600Y-104777500D01*
X124097600Y-104777500D01*
X124097600Y-103277500D01*
G37*
%TO.C,JP4*%
G36*
X124097600Y-99727500D02*
G01*
X124397600Y-99727500D01*
X124397600Y-101227500D01*
X124097600Y-101227500D01*
X124097600Y-99727500D01*
G37*
%TO.C,JP3*%
G36*
X124097600Y-96177500D02*
G01*
X124397600Y-96177500D01*
X124397600Y-97677500D01*
X124097600Y-97677500D01*
X124097600Y-96177500D01*
G37*
%TO.C,JP2*%
G36*
X124097600Y-92627500D02*
G01*
X124397600Y-92627500D01*
X124397600Y-94127500D01*
X124097600Y-94127500D01*
X124097600Y-92627500D01*
G37*
%TO.C,JP1*%
G36*
X124097600Y-89077500D02*
G01*
X124397600Y-89077500D01*
X124397600Y-90577500D01*
X124097600Y-90577500D01*
X124097600Y-89077500D01*
G37*
%TD*%
D15*
%TO.C,U13*%
X140547700Y-77732700D03*
X141547700Y-77732700D03*
X142547700Y-77732700D03*
X143547700Y-77732700D03*
X144547700Y-77732700D03*
X144547700Y-71732700D03*
X143547700Y-71732500D03*
X142547700Y-71732500D03*
X141547700Y-71732500D03*
X140547700Y-71732700D03*
D16*
X142547700Y-74732500D03*
%TD*%
D17*
%TO.C,U12*%
X125822600Y-112479400D03*
X125822600Y-111529400D03*
X125822600Y-110579400D03*
X123122600Y-110579400D03*
X123122600Y-111529400D03*
X123122600Y-112479400D03*
%TD*%
D18*
%TO.C,U9*%
X136690000Y-115500000D03*
X137960000Y-115500000D03*
X139230000Y-115500000D03*
X140500000Y-115500000D03*
X140500000Y-110135000D03*
X139230000Y-110135000D03*
X137960000Y-110135000D03*
X136690000Y-110135000D03*
D19*
X138595000Y-112817500D03*
%TD*%
D20*
%TO.C,U5*%
X141310100Y-104177500D03*
X141310100Y-105127500D03*
X141310100Y-106077500D03*
X143585100Y-106077500D03*
X143585100Y-105127500D03*
X143585100Y-104177500D03*
%TD*%
D21*
%TO.C,U4*%
X104422600Y-112552500D03*
D22*
X101560100Y-110277500D03*
X101560100Y-110927500D03*
X101560100Y-111577500D03*
X101560100Y-112227500D03*
X101560100Y-112877500D03*
X101560100Y-113527500D03*
X101560100Y-114177500D03*
X101560100Y-114827500D03*
X107285100Y-114827500D03*
X107285100Y-114177500D03*
X107285100Y-113527500D03*
X107285100Y-112877500D03*
X107285100Y-112227500D03*
X107285100Y-111577500D03*
X107285100Y-110927500D03*
X107285100Y-110277500D03*
%TD*%
D20*
%TO.C,U3*%
X141310100Y-99552500D03*
X141310100Y-100502500D03*
X141310100Y-101452500D03*
X143585100Y-101452500D03*
X143585100Y-100502500D03*
X143585100Y-99552500D03*
%TD*%
D23*
%TO.C,TP36*%
X113347600Y-87257500D03*
%TD*%
%TO.C,TP35*%
X113347600Y-84207500D03*
%TD*%
%TO.C,TP34*%
X113347600Y-81157500D03*
%TD*%
%TO.C,TP33*%
X113347600Y-78107500D03*
%TD*%
%TO.C,TP32*%
X113347600Y-75057500D03*
%TD*%
%TO.C,TP31*%
X113347600Y-72007500D03*
%TD*%
%TO.C,TP30*%
X110297600Y-90307500D03*
%TD*%
%TO.C,TP29*%
X110297600Y-87257500D03*
%TD*%
%TO.C,TP28*%
X110297600Y-84207500D03*
%TD*%
%TO.C,TP26*%
X110297600Y-81157500D03*
%TD*%
%TO.C,TP25*%
X110297600Y-78107500D03*
%TD*%
%TO.C,TP24*%
X110297600Y-75057500D03*
%TD*%
%TO.C,TP23*%
X110297600Y-72007500D03*
%TD*%
%TO.C,TP22*%
X107247600Y-90307500D03*
%TD*%
%TO.C,TP21*%
X107247600Y-87257500D03*
%TD*%
%TO.C,TP20*%
X107247600Y-84207500D03*
%TD*%
%TO.C,TP19*%
X107247600Y-81157500D03*
%TD*%
%TO.C,TP18*%
X107247600Y-78107500D03*
%TD*%
%TO.C,TP17*%
X107247600Y-75057500D03*
%TD*%
%TO.C,TP16*%
X107247600Y-72007500D03*
%TD*%
%TO.C,TP15*%
X104197600Y-90307500D03*
%TD*%
%TO.C,TP14*%
X104197600Y-87257500D03*
%TD*%
%TO.C,TP13*%
X104197600Y-84207500D03*
%TD*%
%TO.C,TP12*%
X104197600Y-81157500D03*
%TD*%
%TO.C,TP11*%
X104197600Y-78107500D03*
%TD*%
%TO.C,TP10*%
X104197600Y-75057500D03*
%TD*%
%TO.C,TP9*%
X104197600Y-72007500D03*
%TD*%
%TO.C,TP8*%
X101147600Y-90307500D03*
%TD*%
%TO.C,TP7*%
X101147600Y-87257500D03*
%TD*%
%TO.C,TP6*%
X101147600Y-84207500D03*
%TD*%
%TO.C,TP5*%
X101147600Y-81157500D03*
%TD*%
%TO.C,TP4*%
X101147600Y-78107500D03*
%TD*%
%TO.C,TP3*%
X101147600Y-75057500D03*
%TD*%
%TO.C,TP2*%
X101147600Y-72007500D03*
%TD*%
D24*
%TO.C,R32*%
X136385100Y-79267500D03*
X138210100Y-79267500D03*
%TD*%
%TO.C,R31*%
X136385100Y-76757500D03*
X138210100Y-76757500D03*
%TD*%
D25*
%TO.C,R30*%
X136497600Y-107227500D03*
X138497600Y-107227500D03*
%TD*%
%TO.C,R29*%
X136497600Y-104277500D03*
X138497600Y-104277500D03*
%TD*%
D26*
%TO.C,R28*%
X131910100Y-112337500D03*
X133105100Y-112337500D03*
%TD*%
D24*
%TO.C,R27*%
X136385100Y-74247500D03*
X138210100Y-74247500D03*
%TD*%
%TO.C,R26*%
X136385100Y-71737500D03*
X138210100Y-71737500D03*
%TD*%
%TO.C,R25*%
X132035100Y-86797500D03*
X133860100Y-86797500D03*
%TD*%
%TO.C,R24*%
X132035100Y-84287500D03*
X133860100Y-84287500D03*
%TD*%
%TO.C,R23*%
X132035100Y-81777500D03*
X133860100Y-81777500D03*
%TD*%
%TO.C,R22*%
X132035100Y-79267500D03*
X133860100Y-79267500D03*
%TD*%
%TO.C,R21*%
X132035100Y-76757500D03*
X133860100Y-76757500D03*
%TD*%
%TO.C,R20*%
X132035100Y-74247500D03*
X133860100Y-74247500D03*
%TD*%
%TO.C,R16*%
X132035100Y-71737500D03*
X133860100Y-71737500D03*
%TD*%
%TO.C,R14*%
X127685100Y-86797500D03*
X129510100Y-86797500D03*
%TD*%
D25*
%TO.C,R13*%
X136497600Y-101327500D03*
X138497600Y-101327500D03*
%TD*%
D24*
%TO.C,R12*%
X127685100Y-84287500D03*
X129510100Y-84287500D03*
%TD*%
D25*
%TO.C,R11*%
X136497600Y-98377500D03*
X138497600Y-98377500D03*
%TD*%
%TO.C,R10*%
X136497600Y-95427500D03*
X138497600Y-95427500D03*
%TD*%
%TO.C,R7*%
X136497600Y-92477500D03*
X138497600Y-92477500D03*
%TD*%
%TO.C,R6*%
X136497600Y-89527500D03*
X138497600Y-89527500D03*
%TD*%
D26*
%TO.C,R5*%
X131910100Y-110347500D03*
X133105100Y-110347500D03*
%TD*%
D27*
%TO.C,R4*%
X128052600Y-113117500D03*
X129702600Y-113117500D03*
%TD*%
%TO.C,R2*%
X128052600Y-110607500D03*
X129702600Y-110607500D03*
%TD*%
D28*
%TO.C,L2*%
X140955100Y-84607500D03*
X143280100Y-84607500D03*
%TD*%
%TO.C,L1*%
X140955100Y-80857500D03*
X143280100Y-80857500D03*
%TD*%
D29*
%TO.C,JP18*%
X132297600Y-104027500D03*
X133597600Y-104027500D03*
%TD*%
%TO.C,JP16*%
X132297600Y-100477500D03*
X133597600Y-100477500D03*
%TD*%
%TO.C,JP15*%
X132297600Y-96927500D03*
X133597600Y-96927500D03*
%TD*%
%TO.C,JP14*%
X132297600Y-93377500D03*
X133597600Y-93377500D03*
%TD*%
%TO.C,JP13*%
X132297600Y-89827500D03*
X133597600Y-89827500D03*
%TD*%
%TO.C,JP12*%
X127947600Y-107577500D03*
X129247600Y-107577500D03*
%TD*%
%TO.C,JP11*%
X127947600Y-104027500D03*
X129247600Y-104027500D03*
%TD*%
%TO.C,JP10*%
X127947600Y-100477500D03*
X129247600Y-100477500D03*
%TD*%
%TO.C,JP9*%
X127947600Y-96927500D03*
X129247600Y-96927500D03*
%TD*%
%TO.C,JP8*%
X127947600Y-93377500D03*
X129247600Y-93377500D03*
%TD*%
%TO.C,JP7*%
X127947600Y-89827500D03*
X129247600Y-89827500D03*
%TD*%
%TO.C,JP6*%
X123597600Y-107577500D03*
X124897600Y-107577500D03*
%TD*%
%TO.C,JP5*%
X123597600Y-104027500D03*
X124897600Y-104027500D03*
%TD*%
%TO.C,JP4*%
X123597600Y-100477500D03*
X124897600Y-100477500D03*
%TD*%
%TO.C,JP3*%
X123597600Y-96927500D03*
X124897600Y-96927500D03*
%TD*%
%TO.C,JP2*%
X123597600Y-93377500D03*
X124897600Y-93377500D03*
%TD*%
%TO.C,JP1*%
X123597600Y-89827500D03*
X124897600Y-89827500D03*
%TD*%
D30*
%TO.C,J4*%
X101097600Y-93159500D03*
D31*
X101097600Y-96759500D03*
D30*
X110987600Y-93159500D03*
D31*
X110987600Y-96759500D03*
D32*
X105542600Y-93032500D03*
X107562400Y-93032500D03*
X108792500Y-93032500D03*
X106542600Y-93032500D03*
X104522500Y-93032500D03*
X103292400Y-93032500D03*
%TD*%
D33*
%TO.C,J3*%
X117197600Y-72807500D03*
D34*
X119737600Y-72807500D03*
X117197600Y-75347500D03*
X119737600Y-75347500D03*
X117197600Y-77887500D03*
X119737600Y-77887500D03*
X117197600Y-80427500D03*
X119737600Y-80427500D03*
X117197600Y-82967500D03*
X119737600Y-82967500D03*
X117197600Y-85507500D03*
X119737600Y-85507500D03*
X117197600Y-88047500D03*
X119737600Y-88047500D03*
X117197600Y-90587500D03*
X119737600Y-90587500D03*
X117197600Y-93127500D03*
X119737600Y-93127500D03*
X117197600Y-95667500D03*
X119737600Y-95667500D03*
X117197600Y-98207500D03*
X119737600Y-98207500D03*
X117197600Y-100747500D03*
X119737600Y-100747500D03*
X117197600Y-103287500D03*
X119737600Y-103287500D03*
X117197600Y-105827500D03*
X119737600Y-105827500D03*
X117197600Y-108367500D03*
X119737600Y-108367500D03*
X117197600Y-110907500D03*
X119737600Y-110907500D03*
%TD*%
D35*
%TO.C,J1*%
X104547600Y-107757500D03*
D36*
X106047600Y-103707500D03*
D37*
X106047600Y-105707500D03*
%TD*%
D38*
%TO.C,D4*%
X111117600Y-106657500D03*
X112867600Y-106657500D03*
%TD*%
%TO.C,D3*%
X111117600Y-104067500D03*
X112867600Y-104067500D03*
%TD*%
%TO.C,D1*%
X111117600Y-101477500D03*
X112867600Y-101477500D03*
%TD*%
D39*
%TO.C,C21*%
X141315100Y-96427500D03*
X144440100Y-96427500D03*
%TD*%
%TO.C,C20*%
X141315100Y-93077500D03*
X144440100Y-93077500D03*
%TD*%
%TO.C,C19*%
X141315100Y-89727500D03*
X144440100Y-89727500D03*
%TD*%
D40*
%TO.C,C17*%
X127735100Y-81777500D03*
X129460100Y-81777500D03*
%TD*%
%TO.C,C16*%
X127735100Y-79267500D03*
X129460100Y-79267500D03*
%TD*%
D41*
%TO.C,C15*%
X142780100Y-111657500D03*
X143915100Y-111657500D03*
%TD*%
D40*
%TO.C,C14*%
X127735100Y-76757500D03*
X129460100Y-76757500D03*
%TD*%
%TO.C,C13*%
X127735100Y-74247500D03*
X129460100Y-74247500D03*
%TD*%
%TO.C,C12*%
X127735100Y-71737500D03*
X129460100Y-71737500D03*
%TD*%
%TO.C,C11*%
X123385100Y-86797500D03*
X125110100Y-86797500D03*
%TD*%
D41*
%TO.C,C10*%
X142780100Y-109687500D03*
X143915100Y-109687500D03*
%TD*%
D42*
%TO.C,C9*%
X110210100Y-113747500D03*
X112285100Y-113747500D03*
%TD*%
%TO.C,C8*%
X110210100Y-110737500D03*
X112285100Y-110737500D03*
%TD*%
D40*
%TO.C,C7*%
X123385100Y-84287500D03*
X125110100Y-84287500D03*
%TD*%
%TO.C,C6*%
X123385100Y-81777500D03*
X125110100Y-81777500D03*
%TD*%
%TO.C,C5*%
X123385100Y-79267500D03*
X125110100Y-79267500D03*
%TD*%
%TO.C,C4*%
X123385100Y-76757500D03*
X125110100Y-76757500D03*
%TD*%
%TO.C,C3*%
X123385100Y-74247500D03*
X125110100Y-74247500D03*
%TD*%
%TO.C,C2*%
X123385100Y-71737500D03*
X125110100Y-71737500D03*
%TD*%
%LPD*%
M02*
