%TF.GenerationSoftware,KiCad,Pcbnew,9.0.0*%
%TF.CreationDate,2025-03-28T07:13:48+02:00*%
%TF.ProjectId,PCB,5043422e-6b69-4636-9164-5f7063625858,rev?*%
%TF.SameCoordinates,Original*%
%TF.FileFunction,Legend,Bot*%
%TF.FilePolarity,Positive*%
%FSLAX46Y46*%
G04 Gerber Fmt 4.6, Leading zero omitted, Abs format (unit mm)*
G04 Created by KiCad (PCBNEW 9.0.0) date 2025-03-28 07:13:48*
%MOMM*%
%LPD*%
G01*
G04 APERTURE LIST*
G04 Aperture macros list*
%AMRoundRect*
0 Rectangle with rounded corners*
0 $1 Rounding radius*
0 $2 $3 $4 $5 $6 $7 $8 $9 X,Y pos of 4 corners*
0 Add a 4 corners polygon primitive as box body*
4,1,4,$2,$3,$4,$5,$6,$7,$8,$9,$2,$3,0*
0 Add four circle primitives for the rounded corners*
1,1,$1+$1,$2,$3*
1,1,$1+$1,$4,$5*
1,1,$1+$1,$6,$7*
1,1,$1+$1,$8,$9*
0 Add four rect primitives between the rounded corners*
20,1,$1+$1,$2,$3,$4,$5,0*
20,1,$1+$1,$4,$5,$6,$7,0*
20,1,$1+$1,$6,$7,$8,$9,0*
20,1,$1+$1,$8,$9,$2,$3,0*%
G04 Aperture macros list end*
%ADD10C,2.500000*%
%ADD11O,3.000000X1.600000*%
%ADD12C,0.650000*%
%ADD13R,1.700000X1.700000*%
%ADD14O,1.700000X1.700000*%
%ADD15C,1.150000*%
%ADD16RoundRect,0.250000X-0.750000X-0.400000X0.750000X-0.400000X0.750000X0.400000X-0.750000X0.400000X0*%
%ADD17O,2.000000X1.300000*%
G04 APERTURE END LIST*
%LPC*%
D10*
%TO.C,TP38*%
X205337500Y-111970000D03*
%TD*%
%TO.C,TP37*%
X205337500Y-107420000D03*
%TD*%
D11*
%TO.C,SW1*%
X249619500Y-143352000D03*
X249619500Y-138652000D03*
X249619500Y-133952000D03*
%TD*%
D12*
%TO.C,J4*%
X249877500Y-124315000D03*
X255657500Y-124315000D03*
%TD*%
D13*
%TO.C,J3*%
X237960000Y-85180000D03*
D14*
X240500000Y-85180000D03*
X237960000Y-87720000D03*
X240500000Y-87720000D03*
X237960000Y-90260000D03*
X240500000Y-90260000D03*
X237960000Y-92800000D03*
X240500000Y-92800000D03*
X237960000Y-95340000D03*
X240500000Y-95340000D03*
X237960000Y-97880000D03*
X240500000Y-97880000D03*
X237960000Y-100420000D03*
X240500000Y-100420000D03*
X237960000Y-102960000D03*
X240500000Y-102960000D03*
X237960000Y-105500000D03*
X240500000Y-105500000D03*
X237960000Y-108040000D03*
X240500000Y-108040000D03*
X237960000Y-110580000D03*
X240500000Y-110580000D03*
X237960000Y-113120000D03*
X240500000Y-113120000D03*
X237960000Y-115660000D03*
X240500000Y-115660000D03*
X237960000Y-118200000D03*
X240500000Y-118200000D03*
X237960000Y-120740000D03*
X240500000Y-120740000D03*
X237960000Y-123280000D03*
X240500000Y-123280000D03*
%TD*%
D15*
%TO.C,J1*%
X207987500Y-97030000D03*
D16*
X209487500Y-92980000D03*
D17*
X209487500Y-94980000D03*
%TD*%
%LPD*%
M02*
